<svg width="10" height="17" viewBox="0 0 10 17" fill="none" xmlns="http://www.w3.org/2000/svg">
<path d="M2.75897 1.83594L2.68359 15.3229C2.68359 15.6997 2.90965 16.0011 3.36173 16.3025C4.26589 16.8299 5.77284 16.8299 6.67699 16.3025C7.12907 16.0764 7.35508 15.6997 7.35508 15.3229L7.43046 1.83594H2.75897Z" fill="url(#paint0_linear)"/>
<path d="M8.40747 5.37749C6.59916 6.43234 3.66064 6.43234 1.85232 5.37749C0.948163 4.85007 0.496094 4.17192 0.496094 3.41846V5.67885C0.496094 6.35697 0.948163 7.03512 1.85232 7.63789C3.66064 8.69274 6.59916 8.69274 8.40747 7.63789C9.31163 7.11046 9.7637 6.43234 9.7637 5.75423V3.49383C9.7637 4.17195 9.31163 4.85007 8.40747 5.37749Z" fill="url(#paint1_linear)"/>
<path d="M8.40859 1.60999C6.60028 0.555135 3.66177 0.555135 1.77811 1.60999C-0.0302038 2.66484 -0.0302038 4.39779 1.77811 5.45264C3.58643 6.50749 6.5249 6.50749 8.33322 5.45264C10.2169 4.32244 10.2169 2.66484 8.40859 1.60999Z" fill="#1544A8"/>
<defs>
<linearGradient id="paint0_linear" x1="2.71562" y1="9.23783" x2="7.43558" y2="9.23783" gradientUnits="userSpaceOnUse">
<stop stop-color="#2580D3"/>
<stop offset="0.0762773" stop-color="#2377CD"/>
<stop offset="0.4933" stop-color="#1649AC"/>
<stop offset="0.8149" stop-color="#0F2D98"/>
<stop offset="1" stop-color="#0C2291"/>
</linearGradient>
<linearGradient id="paint1_linear" x1="0.446591" y1="5.98387" x2="9.77267" y2="5.98387" gradientUnits="userSpaceOnUse">
<stop stop-color="#2580D3"/>
<stop offset="0.0762773" stop-color="#2377CD"/>
<stop offset="0.4933" stop-color="#1649AC"/>
<stop offset="0.8149" stop-color="#0F2D98"/>
<stop offset="1" stop-color="#0C2291"/>
</linearGradient>
</defs>
</svg>
