<svg width="34" height="31" viewBox="0 0 34 31" fill="none" xmlns="http://www.w3.org/2000/svg">
<path d="M31.2001 0.899902H2.3001C1.1001 0.899902 0.100098 1.8999 0.100098 3.0999V22.0999C0.100098 23.2999 1.1001 24.2999 2.3001 24.2999H11.4001V28.3999H6.6001C5.9001 28.3999 5.3001 28.9999 5.3001 29.6999C5.3001 30.3999 5.9001 30.9999 6.6001 30.9999H27.0001C27.7001 30.9999 28.3001 30.3999 28.3001 29.6999C28.3001 28.9999 27.7001 28.3999 27.0001 28.3999H22.1001V24.2999H31.2001C32.4001 24.2999 33.4001 23.2999 33.4001 22.0999V3.0999C33.5001 1.8999 32.5001 0.899902 31.2001 0.899902ZM30.9001 19.9999C30.9001 21.0999 30.9001 21.5999 30.9001 21.8999H2.6001V3.4999H30.9001V19.9999ZM14.0001 28.4999V24.3999H19.7001V28.4999H14.0001Z" fill="#2D4F9E"/>
</svg>
