<svg width="34" height="24" viewBox="0 0 34 24" fill="none" xmlns="http://www.w3.org/2000/svg">
<path d="M33.7999 2.10002C33.4999 2.00002 33.2999 1.90002 32.9999 2.00002L27.1999 4.10002C26.4999 4.40002 25.8999 4.90002 25.4999 5.60002C25.4999 5.70002 25.3999 5.80001 25.3999 5.90001C24.3999 5.60001 22.5999 5.00002 20.7999 4.10002C18.3999 2.90002 16.1999 3.10002 13.9999 4.80002C13.0999 4.80002 11.8999 4.90002 10.5999 5.00002C9.8999 5.10002 9.0999 5.10002 8.4999 5.20002C8.4999 4.90001 8.3999 4.50002 8.1999 4.20002C8.0999 3.50002 7.4999 3.00002 6.7999 2.70002L0.999902 0.600015C0.699902 0.500015 0.499902 0.600015 0.199902 0.700015C-9.76473e-05 0.900015 -0.100098 1.10002 -0.100098 1.40002V15.6C-0.100098 16 0.299902 16.4 0.699902 16.4H2.7999C3.6999 16.4 4.4999 16 4.9999 15.4C5.2999 15.6 5.5999 15.8 5.8999 16.1H5.9999C6.7999 16.7 7.5999 17.3 7.9999 17.6C10.5999 19.8 13.7999 22.2 14.3999 22.6C14.9999 23 16.0999 23.4 16.8999 23.4C17.1999 23.4 17.9999 23.4 18.5999 22.9C19.1999 23.1 19.7999 23.1 20.3999 22.8C20.9999 22.5 21.3999 22.1 21.6999 21.5C22.2999 21.6 22.8999 21.5 23.4999 21.2C23.9999 20.9 24.3999 20.5 24.6999 20.1C25.1999 20.1 25.7999 19.9 26.1999 19.6C26.8999 19.1 27.1999 18.3 27.1999 17.5L28.8999 16.6C29.4999 17.3 30.2999 17.7 31.1999 17.7H33.2999C33.6999 17.7 34.0999 17.3 34.0999 16.9V2.80002C34.0999 2.50002 33.9999 2.30002 33.7999 2.10002ZM32.4999 3.90001V16.1H31.1999C30.6999 16.1 30.1999 15.8 29.9999 15.2L26.9999 7.30002C26.8999 7.00002 26.8999 6.60002 26.9999 6.30002C27.0999 6.00002 27.3999 5.70002 27.6999 5.60002L32.4999 3.90001ZM25.2999 18.4C25.0999 18.6 24.7999 18.6 24.6999 18.6C24.1999 18.2 21.8999 15.9 20.4999 14.4C20.3999 14.2 20.0999 14.2 19.8999 14.2C19.6999 14.2 19.4999 14.3 19.2999 14.4C19.0999 14.5 19.0999 14.7 19.0999 15C19.0999 15.3 19.1999 15.4 19.2999 15.6C19.3999 15.7 22.0999 18.6 23.2999 19.6C23.1999 19.9 22.8999 20 22.8999 20.1C22.4999 20.3 21.9999 20.3 21.8999 20.1C20.9999 19.4 18.7999 17.1 18.3999 16.6C18.0999 16.3 17.5999 16.3 17.2999 16.6C17.0999 16.7 16.9999 16.9 16.9999 17.2C16.9999 17.5 17.0999 17.6 17.1999 17.8C17.6999 18.3 19.3999 20.1 20.3999 21.1C20.2999 21.4 20.0999 21.6 19.7999 21.7C19.5999 21.8 19.2999 21.8 18.8999 21.6C17.8999 20.7 15.7999 18.6 15.3999 18.1C15.2999 17.9 15.0999 17.9 14.7999 17.8C14.5999 17.8 14.3999 17.9 14.1999 18C13.9999 18.1 13.9999 18.3 13.8999 18.6C13.8999 18.8 13.9999 19 14.0999 19.2C14.5999 19.7 15.8999 21.1 16.8999 22.1H16.7999C16.2999 22.1 15.5999 21.8 15.1999 21.5C14.6999 21.2 11.5999 18.8 8.8999 16.6C8.4999 16.3 7.5999 15.6 6.6999 14.9C6.2999 14.6 5.8999 14.3 5.5999 14.1L8.1999 7.20002C8.8999 7.20002 9.6999 7.10002 10.6999 7.00002C11.1999 7.00002 11.5999 6.90001 12.0999 6.90001C11.1999 7.90001 10.2999 9.20002 10.3999 10.5C10.4999 11.2 10.7999 11.7 11.3999 12.1C12.5999 12.8 14.6999 12.3 15.7999 11C16.3999 10.9 16.8999 10.7 17.2999 10.5C18.0999 11.3 19.1999 12.2 20.3999 13.1C22.3999 14.8 24.6999 16.7 25.2999 17.7C25.8999 17.9 25.4999 18.3 25.2999 18.4ZM17.6999 8.40001C17.5999 8.40001 17.3999 8.40002 17.2999 8.50002C16.5999 8.90001 16.2999 9.00002 15.4999 9.10002C15.2999 9.10002 14.9999 9.30002 14.8999 9.50002C14.3999 10.3 12.8999 10.7 12.3999 10.5C12.1999 10.3 12.0999 10.2 12.0999 10.1C11.9999 9.50002 12.5999 8.50002 13.5999 7.50002C16.0999 5.00002 17.7999 4.50002 20.0999 5.70002C22.2999 6.80001 24.4999 7.50002 25.2999 7.70002C25.2999 7.80001 25.2999 7.90001 25.3999 7.90001L28.0999 15.2L26.4999 16.1C25.4999 14.8 23.4999 13.2 21.5999 11.6C20.2999 10.5 19.0999 9.50002 18.2999 8.70002C18.0999 8.40001 17.8999 8.40001 17.6999 8.40001ZM6.9999 5.90001L3.9999 13.8C3.7999 14.3 3.2999 14.7 2.7999 14.7H1.4999V2.50002L6.1999 4.20002C6.4999 4.40002 6.7999 4.60001 6.9999 4.90001C7.0999 5.20002 7.0999 5.60001 6.9999 5.90001Z" fill="#2D4F9E"/>
</svg>
