<svg width="30" height="34" viewBox="0 0 30 34" fill="none" xmlns="http://www.w3.org/2000/svg">
<path d="M19.767 20.7331L25.1016 17.6534C25.5781 17.3783 25.7413 16.7692 25.4662 16.2927C25.1912 15.8163 24.582 15.6529 24.1056 15.9281L18.771 19.0079C18.2945 19.2829 18.1313 19.8921 18.4063 20.3685C18.6378 20.7695 19.2191 21.0495 19.767 20.7331Z" fill="#2D4F9E"/>
<path d="M29.3578 8.13543L15.4978 0.133477C15.1896 -0.0444922 14.8099 -0.0444922 14.5018 0.133477L0.641846 8.13543C0.333654 8.3134 0.143799 8.64218 0.143799 8.99805V25.002C0.143799 25.3578 0.333654 25.6867 0.641846 25.8646L14.5018 33.8665C14.6558 33.9555 14.8278 34 14.9998 34C15.1718 34 15.3438 33.9555 15.4978 33.8665L29.3578 25.8646C29.6659 25.6866 29.8558 25.3578 29.8558 25.002V8.99805C29.8558 8.64218 29.6659 8.31333 29.3578 8.13543ZM22.2526 6.33343L10.3848 13.1852L7.75714 11.668L19.6249 4.81625L22.2526 6.33343ZM9.38868 14.9105V17.9361L6.75733 16.4167L6.75978 13.3926L9.38868 14.9105ZM14.9998 2.14625L17.6325 3.66622L5.76475 10.518L3.13208 8.99805L14.9998 2.14625ZM14.0037 31.2787L2.13599 24.4269V10.7233L4.76853 12.2431L4.76474 16.9906C4.76448 17.3467 4.95433 17.6759 5.26279 17.854L9.88679 20.524C10.4055 20.8235 10.8733 20.5296 10.8829 20.524C11.1911 20.3461 11.3809 20.0173 11.3809 19.6614V16.0608L14.0037 17.5751V31.2787ZM14.9998 15.8498L12.3768 14.3355L24.2445 7.48372L26.8675 8.99805L14.9998 15.8498ZM27.8636 24.4269L15.9959 31.2787V17.5751L27.8636 10.7233V24.4269Z" fill="#2D4F9E"/>
<path d="M24.1056 21.2629L18.7709 24.3426C18.2945 24.6177 18.1312 25.2268 18.4063 25.7032C18.6403 26.1086 19.2228 26.3822 19.767 26.0679L25.1016 22.9883C25.578 22.7132 25.7413 22.104 25.4662 21.6276C25.1912 21.1512 24.5821 20.988 24.1056 21.2629Z" fill="#2D4F9E"/>
</svg>
