<svg width="34" height="34" viewBox="0 0 34 34" fill="none" xmlns="http://www.w3.org/2000/svg">
<path d="M33.9975 31.6291C33.9114 28.1984 31.4866 25.2208 28.1008 24.3882L22.3511 22.9742C24.0037 21.5021 25.0461 19.3611 25.0461 16.9813V16.5895H26.0135C27.664 16.5895 29.0068 15.249 29.0068 13.6013C29.0068 11.9535 27.664 10.613 26.0135 10.613H25.0461V8.03243C25.0461 3.60334 21.4367 0 17.0002 0C12.5637 0 8.95429 3.60334 8.95429 8.03237V10.6129H7.98688C6.33635 10.6129 4.99355 11.9534 4.99355 13.6012C4.99355 15.2489 6.33635 16.5895 7.98688 16.5895H8.95429V16.9812C8.95429 19.3609 9.99666 21.5019 11.6491 22.974L5.89913 24.3881C2.51341 25.2207 0.0885859 28.1983 0.00239062 31.6294C0.000796875 31.6942 0 31.7591 0 31.8241V33.0039C0 33.554 0.446715 34 0.997754 34H33.0022C33.5533 34 34 33.554 34 33.0039C34 33.0039 33.9992 31.6942 33.9975 31.6291ZM14.0209 24.4425C14.9428 24.8107 15.9482 25.0136 17.0002 25.0136C18.0521 25.0136 19.0574 24.8108 19.9793 24.4426L20.9125 24.6721C20.3258 26.2801 18.7739 27.4095 16.9999 27.4095C15.226 27.4095 13.6741 26.2801 13.0873 24.672L14.0209 24.4425ZM27.0113 13.6012C27.0113 14.1504 26.5638 14.5973 26.0136 14.5973H25.0462V12.6051H26.0136C26.5637 12.6051 27.0113 13.0519 27.0113 13.6012ZM17.0002 1.99219C20.0615 1.99219 22.5986 4.27371 22.9961 7.22287C22.2129 6.6723 21.2594 6.34757 20.2309 6.34757H13.7695C12.741 6.34757 11.7875 6.67223 11.0043 7.22287C11.4018 4.27371 13.939 1.99219 17.0002 1.99219ZM7.98688 14.5973C7.4367 14.5973 6.98913 14.1504 6.98913 13.6012C6.98913 13.0519 7.4367 12.6051 7.98688 12.6051H8.95429V14.5973H7.98688ZM10.9499 16.9813V11.6091V11.1548C10.9499 9.60261 12.2148 8.33976 13.7696 8.33976H20.2309C21.7857 8.33976 23.0506 9.60261 23.0506 11.1548V16.9813C23.0506 20.3118 20.3364 23.0215 17.0002 23.0215C13.6639 23.0215 10.9499 20.3118 10.9499 16.9813ZM32.0044 32.0078H1.99557V31.8241C1.99557 31.7755 1.99617 31.727 1.99737 31.679C2.06105 29.1435 3.86179 26.9408 6.37653 26.3224L11.142 25.1505C11.9517 27.6364 14.3028 29.4017 17.0001 29.4017C19.6972 29.4017 22.0484 27.6364 22.8581 25.1506L27.6236 26.3225C30.1383 26.9409 31.9391 29.1436 32.0027 31.6786C32.0039 31.727 32.0045 31.7755 32.0045 31.8241V32.0078H32.0044Z" fill="#2D4F9E"/>
<path d="M27.0815 28.0327H23.7517C23.2006 28.0327 22.7539 28.4787 22.7539 29.0288C22.7539 29.5789 23.2006 30.0249 23.7517 30.0249H27.0815C27.6326 30.0249 28.0793 29.5789 28.0793 29.0288C28.0793 28.4786 27.6326 28.0327 27.0815 28.0327Z" fill="#2D4F9E"/>
<path d="M16.9842 20.5568C18.6083 20.5568 19.9296 19.2378 19.9296 17.6165C19.9296 17.0663 19.4828 16.6204 18.9318 16.6204C18.3808 16.6204 17.9341 17.0663 17.9341 17.6165C17.9341 18.1393 17.508 18.5646 16.9843 18.5646C16.4606 18.5646 16.0346 18.1393 16.0346 17.6165C16.0346 17.0663 15.5879 16.6204 15.0368 16.6204C14.4858 16.6204 14.0391 17.0663 14.0391 17.6165C14.039 19.2378 15.3602 20.5568 16.9842 20.5568Z" fill="#2D4F9E"/>
</svg>
