<svg width="34" height="34" viewBox="0 0 34 34" fill="none" xmlns="http://www.w3.org/2000/svg">
<path d="M33.9892 15.093V15.0927C33.9337 14.563 33.6593 14.0748 33.2364 13.7513L31.3013 12.2448L32.0287 9.84478C32.1838 9.33272 32.1195 8.77319 31.852 8.30938C31.5843 7.84584 31.1319 7.51043 30.6108 7.38851L28.1763 6.82017L27.8656 4.33978C27.7989 3.80853 27.5125 3.32345 27.0798 3.00957C26.6466 2.6944 26.0965 2.57171 25.5712 2.67287L23.1159 3.14368L21.8228 1.00389C21.3082 0.152277 20.2275 -0.16938 19.3098 0.255C19.2452 0.284831 19.1829 0.320628 19.1287 0.359019L16.9977 1.84331L14.9461 0.414271C14.507 0.108698 13.9552 -0.00258509 13.4318 0.108438C12.9083 0.219462 12.4492 0.546306 12.1724 1.00441L10.8798 3.14394L8.42431 2.67287C7.89851 2.57222 7.34884 2.69492 6.91642 3.00931C6.48322 3.32397 6.19684 3.80905 6.13043 4.33978L5.81967 6.82043L3.24487 7.42146L3.12399 7.46089L3.07937 7.48034C2.14398 7.88942 1.67602 8.88396 1.96706 9.84478L2.69416 12.2448L0.67603 13.8146L0.559041 13.9163L0.526097 13.9524C-0.151197 14.6922 -0.177655 15.8112 0.463063 16.5594L2.04307 18.4488L0.76241 20.7728L0.711309 20.889L0.696523 20.9323C0.377201 21.8867 0.812215 22.9237 1.70818 23.3442L3.97119 24.4062L3.75926 26.897C3.71386 27.4306 3.89337 27.9647 4.25134 28.3621C4.60931 28.7597 5.12163 28.994 5.65703 29.0049L8.15635 29.0547L8.97605 31.416C9.15141 31.9218 9.53247 32.3369 10.0212 32.5543C10.5099 32.7719 11.073 32.7776 11.5669 32.5698L13.8707 31.5989L15.679 33.5286L15.7736 33.6129L15.8102 33.6401C16.1674 33.9039 16.5848 34.0331 16.9983 34.0331C17.5215 34.0331 18.0382 33.8261 18.4161 33.4227L20.1256 31.5989L22.4296 32.5701C22.9224 32.7776 23.4853 32.7719 23.974 32.5545C24.4633 32.3369 24.8443 31.9218 25.0197 31.4163L25.8397 29.0547L28.4835 29.002L28.609 28.9883L28.6541 28.9792C29.6399 28.7782 30.3203 27.883 30.2365 26.8972L30.0248 24.4062L32.2881 23.3442C32.7724 23.117 33.1451 22.6947 33.3106 22.1855C33.4759 21.6766 33.4227 21.1157 33.1643 20.647L31.9529 18.4488L33.5332 16.5594C33.8785 16.156 34.0447 15.6221 33.9892 15.093ZM30.0684 17.5944C29.7553 17.964 29.7019 18.4955 29.9361 18.9202L31.3921 21.5624L28.6609 22.8441C28.2181 23.0522 27.9486 23.5193 27.9898 24.0067L28.2453 27.0127L25.229 27.0729C24.7401 27.0827 24.3035 27.3997 24.1432 27.862L23.1538 30.712L20.3741 29.5403C19.9233 29.3504 19.3956 29.4622 19.0607 29.8194L16.9977 32.0207L14.9347 29.8191C14.7088 29.5779 14.3947 29.4487 14.0756 29.4487C13.9223 29.4487 13.768 29.4785 13.6219 29.5403L10.8417 30.712L9.85257 27.8627C9.69252 27.4002 9.25595 27.0827 8.76646 27.0729L5.7499 27.0127L6.0054 24.0067C6.04691 23.5193 5.77713 23.0522 5.33434 22.8441L2.60337 21.5624L4.05939 18.9204C4.29388 18.4953 4.24019 17.964 3.92683 17.5941L2.01038 15.3023L4.35847 13.4756C4.7429 13.1791 4.90633 12.6696 4.76521 12.2053L3.89052 9.31819L6.82874 8.63182C7.30474 8.52054 7.66556 8.12002 7.72678 7.63442L8.10188 4.64094L11.0653 5.20929C11.5457 5.30112 12.038 5.08166 12.2912 4.66325L13.8512 2.08118L16.3267 3.80515C16.7282 4.08479 17.2678 4.08505 17.6691 3.80515L20.1445 2.08092L21.7048 4.66247C21.9575 5.08141 22.4508 5.30112 22.9313 5.20903L25.8941 4.64068L26.2692 7.63391C26.3299 8.11924 26.6907 8.52028 27.1675 8.63182L30.1055 9.31793L29.2305 12.2051C29.0897 12.6704 29.2534 13.1796 29.6378 13.4759L31.9848 15.3033L30.0684 17.5944Z" fill="#2D4F9E"/>
<path d="M17.1033 8.58496C12.4349 8.58496 8.63672 12.3828 8.63672 17.0515C8.63672 21.72 12.4349 25.5181 17.1033 25.5181C21.772 25.5181 25.5701 21.72 25.5701 17.0515C25.5701 12.3828 21.7717 8.58496 17.1033 8.58496ZM17.1033 23.5244C13.5342 23.5244 10.6302 20.6206 10.6302 17.0515C10.6302 13.4822 13.5342 10.5785 17.1033 10.5785C20.6726 10.5785 23.5764 13.4822 23.5764 17.0515C23.5764 20.6206 20.6726 23.5244 17.1033 23.5244Z" fill="#2D4F9E"/>
<path d="M19.5377 14.4229L15.605 18.3554L14.5378 17.288C14.1484 16.8989 13.5173 16.8989 13.1282 17.288C12.7388 17.6773 12.7388 18.3084 13.1282 18.6978L14.9002 20.4698C15.0947 20.6646 15.35 20.7619 15.605 20.7619C15.8599 20.7619 16.1152 20.6646 16.3097 20.4698L20.9473 15.8325C21.3364 15.4431 21.3364 14.812 20.9473 14.4229C20.5579 14.0335 19.9268 14.0335 19.5377 14.4229Z" fill="#2D4F9E"/>
</svg>
