<svg width="210" height="210" viewBox="0 0 210 210" fill="none" xmlns="http://www.w3.org/2000/svg">
<circle cx="105" cy="105" r="105" fill="#3895E2" fill-opacity="0.2"/>
<circle cx="105" cy="105" r="87" fill="#3895E2"/>
<path d="M105 137C122.673 137 137 122.673 137 105C137 87.3268 122.673 73 105 73C87.3268 73 73 87.3268 73 105C73 122.673 87.3268 137 105 137Z" fill="#CFE8F8"/>
<path d="M129.292 76.1087V125.83C123.424 132.668 114.717 137 105 137C95.282 137 86.5754 132.668 80.707 125.83V76.1087C80.707 74.3925 82.098 73.0001 83.8157 73.0001H126.184C127.9 73.0001 129.292 74.3925 129.292 76.1087Z" fill="#2377CD"/>
<path d="M126.843 83.6827V128.383C121.125 133.728 113.444 137 105 137C96.5555 137 88.8741 133.728 83.156 128.383V83.6827C83.156 82.6587 83.9854 81.8293 85.0094 81.8293H124.99C125.102 81.8293 125.212 81.8398 125.318 81.8593C126.185 82.0134 126.843 82.771 126.843 83.6827Z" fill="white"/>
<path d="M113.226 78.6942H96.7697C96.0123 78.6942 95.3984 78.0802 95.3984 77.3229C95.3984 76.5655 96.0124 75.9517 96.7697 75.9517H113.226C113.983 75.9517 114.597 76.5657 114.597 77.3229C114.597 78.0802 113.983 78.6942 113.226 78.6942Z" fill="#2D4F9E"/>
<path d="M121.318 96.3704L119.442 98.246L108.147 109.541C107.65 110.036 106.847 110.036 106.352 109.541L96.4192 99.6084C95.9228 99.1134 95.9228 98.3101 96.4192 97.8137L109.59 84.6427C110.085 84.1477 110.89 84.1477 111.385 84.6427L121.318 94.5757C121.813 95.0707 121.813 95.8741 121.318 96.3704Z" fill="#2D4F9E"/>
<path d="M95.5104 100.304L94.5295 96.3846C94.4278 95.9781 94.0625 95.6931 93.6438 95.6931H89.6044C89.1002 95.6931 88.6912 96.102 88.6912 96.6064V96.6219C88.6912 97.1261 89.1 97.5351 89.6044 97.5351H92.1963C92.6168 97.5351 92.9828 97.8222 93.0832 98.2305L93.762 100.995L97.2092 115.035C97.3094 115.443 97.6755 115.73 98.096 115.73H100.837H111.211H113.953C114.373 115.73 114.739 115.443 114.84 115.035L118.009 102.126C118.151 101.551 117.715 100.995 117.122 100.995H96.3963C95.9773 100.996 95.612 100.71 95.5104 100.304ZM97.3058 102.837H98.3064C98.7638 102.837 99.1505 103.176 99.2114 103.629L99.2945 104.247C99.368 104.795 98.9422 105.282 98.3895 105.282H97.4559C97.0345 105.282 96.6679 104.994 96.5685 104.584L96.4184 103.966C96.2788 103.391 96.7143 102.837 97.3058 102.837ZM98.3467 107.124H98.8823C99.3397 107.124 99.7264 107.462 99.7873 107.916L99.8884 108.668C99.9619 109.215 99.536 109.703 98.9834 109.703H98.5293C98.1079 109.703 97.7413 109.414 97.6419 109.005L97.4593 108.253C97.3197 107.678 97.7552 107.124 98.3467 107.124ZM98.6583 113.191L98.5325 112.673C98.3929 112.098 98.8284 111.544 99.4199 111.544H99.476C99.9334 111.544 100.32 111.883 100.381 112.336L100.451 112.854C100.524 113.401 100.098 113.888 99.5457 113.888C99.1243 113.888 98.7577 113.6 98.6583 113.191ZM104.19 113.888H103.247C102.79 113.888 102.403 113.55 102.342 113.097L102.272 112.579C102.199 112.031 102.625 111.544 103.177 111.544H104.19C104.694 111.544 105.103 111.953 105.103 112.458V112.975C105.103 113.48 104.694 113.888 104.19 113.888ZM104.19 109.702H102.685C102.227 109.702 101.841 109.364 101.78 108.911L101.679 108.159C101.605 107.611 102.031 107.124 102.584 107.124H104.19C104.694 107.124 105.103 107.533 105.103 108.037V108.789C105.103 109.293 104.694 109.702 104.19 109.702ZM104.19 105.282H102.091C101.633 105.282 101.247 104.944 101.186 104.49L101.103 103.872C101.029 103.324 101.455 102.837 102.008 102.837H104.19C104.694 102.837 105.103 103.246 105.103 103.75V104.369C105.103 104.873 104.694 105.282 104.19 105.282ZM108.801 113.888H107.858C107.354 113.888 106.945 113.48 106.945 112.975V112.457C106.945 111.953 107.354 111.544 107.858 111.544H108.871C109.424 111.544 109.85 112.031 109.776 112.579L109.706 113.097C109.646 113.55 109.259 113.888 108.801 113.888ZM109.364 109.702H107.858C107.354 109.702 106.945 109.293 106.945 108.789V108.037C106.945 107.533 107.354 107.124 107.858 107.124H109.465C110.017 107.124 110.443 107.611 110.37 108.158L110.269 108.91C110.208 109.364 109.821 109.702 109.364 109.702ZM109.957 105.282H107.858C107.354 105.282 106.945 104.873 106.945 104.369V103.75C106.945 103.246 107.354 102.837 107.858 102.837H110.04C110.593 102.837 111.019 103.324 110.945 103.872L110.862 104.49C110.802 104.944 110.415 105.282 109.957 105.282ZM112.503 113.888C111.95 113.888 111.524 113.401 111.598 112.854L111.667 112.336C111.728 111.883 112.115 111.544 112.572 111.544H112.628C113.22 111.544 113.655 112.098 113.516 112.673L113.39 113.191C113.291 113.6 112.924 113.888 112.503 113.888ZM113.519 109.702H113.065C112.512 109.702 112.086 109.215 112.16 108.668L112.261 107.915C112.322 107.462 112.709 107.124 113.166 107.124H113.702C114.293 107.124 114.729 107.678 114.589 108.252L114.406 109.005C114.307 109.414 113.94 109.702 113.519 109.702ZM112.754 104.247L112.837 103.629C112.898 103.176 113.284 102.837 113.742 102.837H114.742C115.334 102.837 115.769 103.391 115.63 103.966L115.48 104.584C115.38 104.994 115.014 105.282 114.592 105.282H113.659C113.106 105.282 112.68 104.795 112.754 104.247Z" fill="#A1DAFF"/>
<path d="M110.323 122.798C111.645 122.798 112.717 121.726 112.717 120.404C112.717 119.082 111.645 118.01 110.323 118.01C109.001 118.01 107.929 119.082 107.929 120.404C107.929 121.726 109.001 122.798 110.323 122.798Z" fill="#A1DAFF"/>
<path d="M100.522 122.798C101.844 122.798 102.916 121.726 102.916 120.404C102.916 119.082 101.844 118.01 100.522 118.01C99.2004 118.01 98.1287 119.082 98.1287 120.404C98.1287 121.726 99.2004 122.798 100.522 122.798Z" fill="#A1DAFF"/>
</svg>
