<svg width="210" height="210" viewBox="0 0 210 210" fill="none" xmlns="http://www.w3.org/2000/svg">
<circle cx="105" cy="105" r="105" fill="#3895E2" fill-opacity="0.2"/>
<circle cx="105" cy="105" r="87" fill="#3895E2"/>
<g clip-path="url(#clip0)">
<path d="M104.999 137C122.672 137 136.999 122.673 136.999 105C136.999 87.3274 122.672 73.0009 104.999 73.0009C87.3266 73.0009 73 87.3274 73 105C73 122.673 87.3266 137 104.999 137Z" fill="#E9F6FF"/>
<path d="M79.1047 123.804C79.908 124.908 80.7792 125.958 81.713 126.948C83.0804 128.398 84.5812 129.72 86.1955 130.895L90.8322 126.258C91.8118 125.28 92.3016 123.996 92.3016 122.712C92.3016 121.43 91.8118 120.147 90.8322 119.168C88.8744 117.21 85.6993 117.21 83.7414 119.168L79.1047 123.804Z" fill="#A1C6ED"/>
<path d="M86.1946 130.895C85.091 130.092 84.0409 129.221 83.0508 128.287L87.9552 123.383C89.4011 121.937 89.7786 119.827 89.0876 118.034C89.7237 118.278 90.3192 118.655 90.8312 119.168C91.8108 120.146 92.2993 121.43 92.2993 122.714C92.2993 123.997 91.8108 125.279 90.8312 126.259L86.1946 130.895Z" fill="#2377CD"/>
<path d="M112.145 122.714C125.873 122.714 137.002 111.585 137.002 97.8573C137.002 84.1295 125.873 73.001 112.145 73.001C98.4176 73.001 87.2891 84.1295 87.2891 97.8573C87.2891 111.585 98.4176 122.714 112.145 122.714Z" fill="#CFE8F8"/>
<path d="M98.0102 111.99C98.6032 112.583 99.2236 113.131 99.8688 113.633C107.068 119.248 117.226 119.248 124.422 113.632C125.066 113.129 125.686 112.582 126.278 111.99C134.085 104.185 134.085 91.5291 126.278 83.7226C118.473 75.9173 105.817 75.9173 98.0102 83.7226C90.2049 91.529 90.2049 104.185 98.0102 111.99Z" fill="#A1DAFF"/>
<path d="M114.414 86.816C114.414 87.8959 113.409 88.864 112.143 88.864C110.877 88.864 109.871 87.8959 109.871 86.816C109.871 85.6989 110.877 84.7681 112.143 84.7681C113.409 84.7679 114.414 85.6989 114.414 86.816ZM114.116 94.5611V109.642C114.116 110.275 113.26 110.945 112.143 110.945C111.025 110.945 110.206 110.275 110.206 109.642V94.5611C110.206 93.8163 111.025 93.2951 112.143 93.2951C113.26 93.2951 114.116 93.8163 114.116 94.5611Z" fill="white"/>
<path d="M106.33 111.99C98.5238 104.184 98.5238 91.5286 106.33 83.7229C109.168 80.884 112.649 79.0789 116.304 78.305C109.908 76.9507 102.978 78.7559 98.0106 83.7229C90.2048 91.5286 90.2048 104.184 98.0106 111.99C102.978 116.957 109.908 118.763 116.304 117.408C112.649 116.634 109.168 114.829 106.33 111.99Z" fill="#2274CB"/>
<path d="M89.9312 110.797L99.2006 120.067C100.431 121.297 100.431 123.291 99.2006 124.521C97.9706 125.751 95.9765 125.751 94.7465 124.521L85.4772 115.251C84.2472 114.021 84.2472 112.027 85.4772 110.797C86.7072 109.568 88.7013 109.568 89.9312 110.797Z" fill="#A1C6ED"/>
<path d="M95.4038 120.723C96.6337 119.493 96.6337 117.499 95.4038 116.269L99.2023 120.067C100.432 121.297 100.432 123.291 99.2023 124.521C97.9724 125.751 95.9783 125.751 94.7483 124.521L90.9497 120.723C92.1796 121.953 94.1739 121.953 95.4038 120.723Z" fill="#2377CD"/>
<path opacity="0.6" d="M124.351 98.5415C126.393 98.5415 128.048 96.8861 128.048 94.8439C128.048 92.8018 126.393 91.1464 124.351 91.1464C122.309 91.1464 120.653 92.8018 120.653 94.8439C120.653 96.8861 122.309 98.5415 124.351 98.5415Z" fill="#E9F6FF"/>
</g>
<defs>
<clipPath id="clip0">
<rect width="64" height="64" fill="white" transform="translate(73 73)"/>
</clipPath>
</defs>
</svg>
