<svg width="210" height="210" viewBox="0 0 210 210" fill="none" xmlns="http://www.w3.org/2000/svg">
<circle cx="105" cy="105" r="105" fill="#3895E2" fill-opacity="0.2"/>
<circle cx="105" cy="105" r="87" fill="#3895E2"/>
<path d="M105 137C122.673 137 137 122.673 137 105C137 87.3269 122.673 73 105 73C87.3269 73 73 87.3269 73 105C73 122.673 87.3269 137 105 137Z" fill="#E9F6FF"/>
<path d="M90.0874 73.0167C80.8563 73.2143 73.3007 80.6882 73.009 89.9168C72.864 94.5016 74.4865 98.7055 77.2461 101.899C78.489 103.337 78.8437 105.342 78.2044 107.132L77.0551 110.35C76.6814 111.396 77.8935 112.291 78.7835 111.625L82.8596 108.577C84.0725 107.67 85.6127 107.332 87.0987 107.625C88.6461 107.93 90.2663 108.031 91.9327 107.893C100.7 107.167 107.614 99.9167 107.929 91.125C108.29 81.0556 100.125 72.8018 90.0874 73.0167Z" fill="#A1DAFF"/>
<path d="M130.407 117.125C128.855 119.019 128.363 121.58 129.18 123.896L129.76 125.54C129.028 126.398 128.253 127.219 127.44 128L123.836 125.277C122.315 124.13 120.392 123.676 118.527 124.026C117.324 124.254 115.978 124.455 115 124.455C103.954 124.455 95 115.399 95 104.227C94.9987 93.0666 103.963 84 115 84C126.045 84 135 93.0555 135 104.227C135 109.129 133.275 113.624 130.407 117.125Z" fill="#2377CD"/>
<path d="M117.379 114.202C117.379 115.643 116.148 116.909 114.707 116.909C113.16 116.909 112 115.643 112 114.202C112 112.725 113.16 111.495 114.707 111.495C116.148 111.495 117.379 112.725 117.379 114.202ZM116.711 107.522C116.711 108.612 115.515 109.069 114.672 109.069C113.547 109.069 112.598 108.612 112.598 107.522C112.598 103.339 112.106 97.3279 112.106 93.1444C112.106 91.7734 113.231 91 114.672 91C116.043 91 117.203 91.7733 117.203 93.1444C117.203 97.3278 116.711 103.339 116.711 107.522Z" fill="white"/>
<path d="M93.4673 89.8022C91.6942 91.1885 91.6617 92.1559 91.6617 93.8324C91.6617 94.4451 91.3393 95.1541 89.7594 95.1541C88.4377 95.1541 87.9863 94.6706 87.9863 92.994C87.9863 90.2212 89.2115 88.8993 90.1464 88.0933C91.2104 87.1906 93.0159 86.1911 93.0159 84.4501C93.0159 82.9671 91.7263 82.2576 90.1142 82.2576C86.8256 82.2576 87.5348 84.7402 85.7939 84.7402C84.9234 84.7402 83.8594 84.1599 83.8594 82.9023C83.8594 81.1614 85.8584 78.582 90.211 78.582C94.3379 78.582 97.0783 80.8712 97.0783 83.9018C97.0783 86.9325 94.3379 89.1251 93.4673 89.8022ZM92.2744 99.8615C92.2744 101.183 91.178 102.344 89.7918 102.344C88.4055 102.344 87.3414 101.183 87.3414 99.8615C87.3414 98.5074 88.4378 97.3789 89.7918 97.3789C91.1458 97.3789 92.2744 98.5074 92.2744 99.8615Z" fill="white"/>
</svg>
