<svg width="210" height="210" viewBox="0 0 210 210" fill="none" xmlns="http://www.w3.org/2000/svg">
<circle cx="105" cy="105" r="105" fill="#3895E2" fill-opacity="0.2"/>
<circle cx="105" cy="105" r="87" fill="#3895E2"/>
<path d="M137 105C137 113.764 133.477 121.707 127.768 127.485C124.541 130.754 120.615 133.331 116.231 134.973C114.911 135.469 113.547 135.879 112.15 136.198C109.851 136.723 107.458 137 105 137C102.177 137 99.4411 136.634 96.8354 135.949C91.8029 134.625 87.255 132.106 83.5129 128.713C77.0555 122.859 73 114.403 73 105C73 87.3269 87.3269 73 105 73C122.673 73 137 87.3269 137 105Z" fill="#E9F6FF"/>
<path d="M129.965 97.9646C129.965 104.802 127.217 110.998 122.763 115.506C120.245 118.057 117.182 120.067 113.762 121.348C112.732 121.735 111.668 122.055 110.578 122.304C108.785 122.713 106.918 122.929 105 122.929C102.798 122.929 100.663 122.644 98.6305 122.109C94.7044 121.077 91.1565 119.111 88.237 116.464C83.1993 111.897 80.0354 105.3 80.0354 97.9649C80.0354 84.177 91.2125 73 105 73C118.788 73 129.965 84.177 129.965 97.9646Z" fill="#A1DAFF"/>
<path d="M96.8342 102.62V135.948C91.8017 134.625 87.2538 132.106 83.5117 128.713V102.62H96.8342Z" fill="#2274CB"/>
<path d="M96.2464 75.2217V84.7922C96.2464 88.1463 93.5273 90.8654 90.1732 90.8654C86.8191 90.8654 84.0999 88.1463 84.0999 84.7922V75.2217C78.3498 77.6059 74.3047 83.2729 74.3047 89.8856C74.3047 98.6495 81.4093 105.754 90.1733 105.754C98.9373 105.754 106.042 98.6495 106.042 89.8856C106.042 83.2729 101.997 77.6059 96.2464 75.2217Z" fill="#2274CB"/>
<path d="M85.493 130.374V104.318L83.512 104.268V128.713" fill="#0C2291"/>
<path d="M85.5188 104.303C80.0688 101.791 76.2857 96.2806 76.2857 89.8857C76.2857 84.0622 79.4238 78.9733 84.1002 76.2129V75.2217C78.3498 77.6061 74.3047 83.2731 74.3047 89.8857C74.3047 97.0206 79.0134 103.056 85.4928 105.053L85.5188 104.303Z" fill="#0C2291"/>
<path d="M123.611 95.2026H118.321V123.61H123.611V95.2026Z" fill="white"/>
<path d="M120.26 95.2026H118.321V123.61H120.26V95.2026Z" fill="#CFE8F8"/>
<path d="M127.767 127.485C123.567 131.739 118.183 134.821 112.148 136.198V132.102C112.148 128.623 114.97 125.803 118.448 125.803H123.482C125.136 125.803 126.642 126.441 127.767 127.485Z" fill="#A1C6ED"/>
<path d="M126.746 88.999L122.893 76.0691H119.04L115.187 88.999L118.322 95.5942H123.611L126.746 88.999Z" fill="white"/>
<path d="M122.529 125.803C119.05 125.803 116.23 128.623 116.23 132.102V134.973C114.91 135.469 113.546 135.879 112.148 136.198V132.102C112.148 128.623 114.97 125.803 118.448 125.803H122.529Z" fill="#2377CD"/>
<path d="M120.261 95.5942L116.407 88.8396L119.498 77.2151H123.234L122.893 76.0691H119.04L115.187 88.999L118.322 95.5942L119.513 96.3426L120.261 95.5942Z" fill="#CFE8F8"/>
<path d="M127.822 126.456H114.108C113.026 126.456 112.148 125.579 112.148 124.497C112.148 123.415 113.026 122.538 114.108 122.538H127.822C128.904 122.538 129.781 123.415 129.781 124.497C129.781 125.579 128.904 126.456 127.822 126.456Z" fill="#A1C6ED"/>
<path d="M116.328 124.497C116.328 123.415 117.206 122.538 118.288 122.538H114.108C113.026 122.538 112.148 123.415 112.148 124.497C112.148 125.579 113.026 126.456 114.108 126.456H118.288C117.206 126.456 116.328 125.579 116.328 124.497Z" fill="#2377CD"/>
</svg>
