<svg width="210" height="210" viewBox="0 0 210 210" fill="none" xmlns="http://www.w3.org/2000/svg">
<circle cx="105" cy="105" r="105" fill="#3895E2" fill-opacity="0.2"/>
<circle cx="105" cy="105" r="87" fill="#3895E2"/>
<path d="M105 137C122.673 137 137 122.673 137 105C137 87.327 122.673 73.0002 105 73.0002C87.3268 73.0002 73 87.327 73 105C73 122.673 87.3268 137 105 137Z" fill="#E9F6FF"/>
<path d="M137 105C137 105.879 136.965 106.749 136.894 107.61C136.381 113.979 134.002 119.821 130.305 124.589C130.075 124.886 129.84 125.18 129.6 125.467C128.037 127.343 126.265 129.037 124.319 130.511L76.1926 114.154C75.2144 113.822 74.4164 113.199 73.8639 112.414C73.0685 111.287 72.7772 109.825 73.1807 108.412C73.2016 108.336 73.2251 108.259 73.2512 108.183L80.0169 88.2782L81.8362 82.9232L81.8375 82.922L82.5389 80.8596L84.0919 76.2882C84.9291 73.8275 87.6014 72.511 90.0621 73.3469L94.3657 74.8097L131.821 87.5402C134.087 91.0145 135.698 94.9576 136.474 99.1907C136.598 99.8621 136.7 100.541 136.779 101.227C136.886 102.135 136.956 103.055 136.983 103.985C136.995 104.322 137 104.661 137 105Z" fill="#A1DAFF"/>
<path d="M136.999 105C136.999 105.879 136.963 106.749 136.893 107.61L80.0156 88.2781L81.8364 82.9218L82.5378 80.8594L83.5905 81.2172L136.472 99.1906C136.597 99.862 136.698 100.541 136.778 101.227C136.885 102.135 136.954 103.055 136.982 103.985C136.993 104.322 136.999 104.661 136.999 105Z" fill="#0C2291"/>
<path d="M82.1846 111.592C84.6731 111.592 86.6905 109.574 86.6905 107.086C86.6905 104.597 84.6731 102.58 82.1846 102.58C79.6961 102.58 77.6787 104.597 77.6787 107.086C77.6787 109.574 79.6961 111.592 82.1846 111.592Z" fill="#2377CD"/>
<path d="M87.0918 113.261C89.5803 113.261 91.5977 111.243 91.5977 108.755C91.5977 106.266 89.5803 104.249 87.0918 104.249C84.6033 104.249 82.5859 106.266 82.5859 108.755C82.5859 111.243 84.6033 113.261 87.0918 113.261Z" fill="#A1C6ED"/>
<path d="M89.7632 97.1773L82.2755 94.6323C81.6958 94.4353 81.3857 93.8058 81.5827 93.2261C81.7797 92.6465 82.4092 92.3364 82.9888 92.5334L90.4766 95.0784C91.0562 95.2754 91.3663 95.9049 91.1693 96.4845C90.9723 97.0641 90.3428 97.3743 89.7632 97.1773Z" fill="#2274CB"/>
<path d="M113.24 105.156L105.752 102.611C105.172 102.414 104.862 101.785 105.059 101.205C105.256 100.626 105.886 100.315 106.465 100.512L113.953 103.057C114.533 103.254 114.843 103.884 114.646 104.464C114.449 105.043 113.819 105.353 113.24 105.156Z" fill="#2274CB"/>
<path d="M101.501 101.167L94.013 98.6218C93.4334 98.4248 93.1233 97.7953 93.3203 97.2156C93.5173 96.636 94.1468 96.3259 94.7264 96.5229L102.214 99.0679C102.794 99.2649 103.104 99.8944 102.907 100.474C102.71 101.054 102.08 101.364 101.501 101.167Z" fill="#2274CB"/>
<path d="M124.978 109.146L117.49 106.601C116.911 106.404 116.601 105.774 116.798 105.194C116.995 104.615 117.624 104.305 118.204 104.502L125.691 107.047C126.271 107.244 126.581 107.873 126.384 108.453C126.187 109.032 125.558 109.343 124.978 109.146Z" fill="#2274CB"/>
<path d="M115.263 115.846L106.009 112.701C105.491 112.524 104.928 112.802 104.752 113.32L103.876 115.896C103.7 116.414 103.978 116.976 104.496 117.152L113.75 120.298C114.268 120.474 114.83 120.197 115.006 119.679L115.882 117.102C116.058 116.584 115.781 116.022 115.263 115.846Z" fill="white"/>
<path d="M131.093 122.272L130.305 124.589C130.075 124.886 129.84 125.179 129.6 125.467C129.4 125.535 129.177 125.54 128.961 125.467L119.706 122.322C119.189 122.145 118.912 121.584 119.087 121.065L119.963 118.49C120.139 117.971 120.701 117.694 121.22 117.87L130.473 121.016C130.992 121.192 131.269 121.754 131.093 122.272Z" fill="white"/>
</svg>
