<svg width="110" height="110" viewBox="0 0 110 110" fill="none" xmlns="http://www.w3.org/2000/svg">
<circle cx="55" cy="55" r="55" fill="#3895E2" fill-opacity="0.2"/>
<circle cx="55" cy="55" r="40" fill="#3895E2"/>
<g clip-path="url(#clip0)">
<path d="M54.9999 71C63.8364 71 70.9997 63.8367 70.9997 55.0002C70.9997 46.1637 63.8364 39.0003 54.9999 39.0003C46.1634 39.0003 39 46.1637 39 55.0002C39 63.8367 46.1634 71 54.9999 71Z" fill="#E9F6FF"/>
<path d="M71 55.0001C71 55.4396 70.9824 55.8745 70.9471 56.3049C70.6905 59.4892 69.5012 62.4103 67.6524 64.7946C67.5375 64.9429 67.4199 65.0898 67.2998 65.2335C66.5187 66.1713 65.6326 67.0183 64.6595 67.7556L40.5963 59.5767C40.1072 59.4108 39.7082 59.0993 39.4319 58.7068C39.0342 58.1433 38.8886 57.4125 39.0904 56.7059C39.1008 56.668 39.1126 56.6295 39.1256 56.5916L42.5084 46.639L43.4181 43.9615L43.4187 43.9609L43.7694 42.9297L44.5459 40.644C44.9646 39.4136 46.3007 38.7554 47.5311 39.1733L49.6829 39.9048L68.4106 46.27C69.5437 48.0071 70.3489 49.9787 70.7368 52.0953C70.7989 52.431 70.8498 52.7705 70.8896 53.1134C70.9432 53.5673 70.9778 54.0276 70.9915 54.4926C70.9974 54.6611 71 54.8303 71 55.0001Z" fill="#A1DAFF"/>
<path d="M70.9993 55.0001C70.9993 55.4396 70.9817 55.8746 70.9464 56.3049L42.5078 46.6391L43.4182 43.9609L43.7689 42.9297L44.2953 43.1086L70.7362 52.0953C70.7983 52.431 70.8492 52.7706 70.889 53.1134C70.9426 53.5673 70.9772 54.0277 70.9909 54.4927C70.9967 54.6612 70.9993 54.8303 70.9993 55.0001Z" fill="#0C2291"/>
<path d="M43.5919 58.2957C44.8362 58.2957 45.8449 57.2871 45.8449 56.0428C45.8449 54.7985 44.8362 53.7898 43.5919 53.7898C42.3477 53.7898 41.339 54.7985 41.339 56.0428C41.339 57.2871 42.3477 58.2957 43.5919 58.2957Z" fill="#2377CD"/>
<path d="M46.0458 59.1304C47.2901 59.1304 48.2987 58.1217 48.2987 56.8774C48.2987 55.6332 47.2901 54.6245 46.0458 54.6245C44.8015 54.6245 43.7928 55.6332 43.7928 56.8774C43.7928 58.1217 44.8015 59.1304 46.0458 59.1304Z" fill="#A1C6ED"/>
<path d="M47.3816 51.0886L43.6377 49.8161C43.3479 49.7176 43.1929 49.4029 43.2914 49.1131C43.3899 48.8233 43.7046 48.6682 43.9944 48.7667L47.7383 50.0392C48.0281 50.1377 48.1832 50.4524 48.0847 50.7423C47.9862 51.0321 47.6714 51.1871 47.3816 51.0886Z" fill="#2274CB"/>
<path d="M59.1199 55.0781L55.376 53.8056C55.0862 53.7071 54.9311 53.3924 55.0296 53.1026C55.1281 52.8128 55.4429 52.6577 55.7327 52.7562L59.4766 54.0287C59.7664 54.1272 59.9215 54.4419 59.823 54.7318C59.7245 55.0216 59.4096 55.1767 59.1199 55.0781Z" fill="#2274CB"/>
<path d="M53.2488 53.0833L49.5049 51.8108C49.2151 51.7123 49.06 51.3975 49.1585 51.1077C49.257 50.8179 49.5718 50.6628 49.8616 50.7613L53.6055 52.0338C53.8953 52.1323 54.0504 52.4471 53.9519 52.7369C53.8534 53.0266 53.5386 53.1817 53.2488 53.0833Z" fill="#2274CB"/>
<path d="M64.991 57.073L61.2471 55.8005C60.9573 55.702 60.8022 55.3873 60.9007 55.0974C60.9992 54.8076 61.314 54.6526 61.6038 54.7511L65.3477 56.0236C65.6375 56.1221 65.7925 56.4368 65.694 56.7266C65.5956 57.0164 65.2808 57.1715 64.991 57.073Z" fill="#2274CB"/>
<path d="M60.1298 60.4229L55.5028 58.8502C55.2438 58.7622 54.9625 58.9008 54.8745 59.1598L54.4367 60.4479C54.3486 60.7069 54.4872 60.9881 54.7462 61.0762L59.3732 62.6488C59.6322 62.7369 59.9135 62.5982 60.0015 62.3392L60.4393 61.0512C60.5275 60.7922 60.3888 60.5108 60.1298 60.4229Z" fill="white"/>
<path d="M68.0444 63.6359L67.6506 64.7944C67.5357 64.9426 67.4181 65.0895 67.298 65.2332C67.1981 65.2672 67.0864 65.2698 66.9786 65.2332L62.3511 63.6607C62.0924 63.5725 61.954 63.2917 62.0415 63.0324L62.4797 61.7446C62.5679 61.4854 62.8487 61.3469 63.1079 61.435L67.7348 63.0076C67.9941 63.0958 68.1326 63.3766 68.0444 63.6359Z" fill="white"/>
</g>
<defs>
<clipPath id="clip0">
<rect width="32" height="32" fill="white" transform="translate(39 39)"/>
</clipPath>
</defs>
</svg>
