<svg width="110" height="110" viewBox="0 0 110 110" fill="none" xmlns="http://www.w3.org/2000/svg">
<circle cx="55" cy="55" r="55" fill="#3895E2" fill-opacity="0.2"/>
<circle cx="55" cy="55" r="40" fill="#3895E2"/>
<path d="M55 70.9999C63.8365 70.9999 70.9999 63.8365 70.9999 55C70.9999 46.1634 63.8365 39 55 39C46.1634 39 39 46.1634 39 55C39 63.8365 46.1634 70.9999 55 70.9999Z" fill="#E9F6FF"/>
<path d="M47.5437 39.0083C42.9281 39.1071 39.1504 42.8441 39.0045 47.4583C38.932 49.7507 39.7432 51.8527 41.1231 53.4496C41.7445 54.1687 41.9219 55.1708 41.6022 56.0658L41.0276 57.6747C40.8407 58.198 41.4467 58.6453 41.8917 58.3125L43.9298 56.7883C44.5363 56.3347 45.3063 56.166 46.0493 56.3124C46.823 56.4648 47.6332 56.5152 48.4664 56.4463C52.8499 56.0836 56.307 52.4583 56.4645 48.0625C56.6451 43.0278 52.5627 38.9009 47.5437 39.0083Z" fill="#A1DAFF"/>
<path d="M67.7037 61.0624C66.9276 62.0097 66.6814 63.2899 67.09 64.448L67.3801 65.2698C67.0139 65.6991 66.6265 66.1096 66.2199 66.5L64.4179 65.1387C63.6575 64.5652 62.6962 64.3378 61.7636 64.5132C61.1622 64.6269 60.4889 64.7275 60 64.7275C54.4768 64.7275 50 60.1997 50 54.6137C49.9993 49.0333 54.4816 44.5 60 44.5C65.5225 44.5 70 49.0277 70 54.6137C70.0001 57.0645 69.1375 59.3121 67.7037 61.0624Z" fill="#2377CD"/>
<path d="M61.1893 59.6009C61.1893 60.3215 60.5741 60.9543 59.8534 60.9543C59.08 60.9543 58.5 60.3215 58.5 59.6009C58.5 58.8626 59.0801 58.2474 59.8534 58.2474C60.5741 58.2474 61.1893 58.8626 61.1893 59.6009ZM60.8553 56.2612C60.8553 56.8062 60.2576 57.0347 59.8358 57.0347C59.2733 57.0347 58.7988 56.8062 58.7988 56.2612C58.7988 54.1696 58.5528 51.164 58.5528 49.0722C58.5528 48.3867 59.1153 48 59.8359 48C60.5215 48 61.1015 48.3866 61.1015 49.0722C61.1013 51.1639 60.8553 54.1695 60.8553 56.2612Z" fill="white"/>
<path d="M49.2337 47.4011C48.3471 48.0942 48.3308 48.5779 48.3308 49.4162C48.3308 49.7226 48.1696 50.0771 47.3797 50.0771C46.7188 50.0771 46.4931 49.8353 46.4931 48.997C46.4931 47.6106 47.1058 46.9497 47.5732 46.5467C48.1052 46.0953 49.008 45.5955 49.008 44.725C49.008 43.9835 48.3631 43.6288 47.5571 43.6288C45.9128 43.6288 46.2674 44.8701 45.3969 44.8701C44.9617 44.8701 44.4297 44.58 44.4297 43.9512C44.4297 43.0807 45.4292 41.791 47.6055 41.791C49.669 41.791 51.0392 42.9356 51.0392 44.4509C51.0392 45.9662 49.669 47.0625 49.2337 47.4011ZM48.6372 52.4308C48.6372 53.0916 48.089 53.672 47.3959 53.672C46.7028 53.672 46.1707 53.0916 46.1707 52.4308C46.1707 51.7537 46.7189 51.1894 47.3959 51.1894C48.0729 51.1894 48.6372 51.7537 48.6372 52.4308Z" fill="white"/>
</svg>
