<svg width="110" height="110" viewBox="0 0 110 110" fill="none" xmlns="http://www.w3.org/2000/svg">
<circle cx="55" cy="55" r="55" fill="#3895E2" fill-opacity="0.2"/>
<circle cx="55" cy="55" r="40" fill="#3895E2"/>
<path d="M71 55C71 59.3821 69.2387 63.3533 66.3842 66.2424C64.7705 67.8771 62.8074 69.1656 60.6157 69.9864C59.9554 70.2346 59.2736 70.4397 58.5749 70.599C57.4254 70.8616 56.2291 71 55 71C53.5887 71 52.2206 70.8171 50.9177 70.4743C48.4014 69.8127 46.1275 68.553 44.2564 66.8564C41.0277 63.9293 39 59.7014 39 55C39 46.1634 46.1634 39 55 39C63.8366 39 71 46.1634 71 55Z" fill="#E9F6FF"/>
<path d="M67.4842 51.4823C67.4842 54.9009 66.1101 57.9991 63.8832 60.2531C62.6243 61.5283 61.0928 62.5335 59.3829 63.1739C58.8678 63.3676 58.3359 63.5275 57.7908 63.6519C56.8942 63.8567 55.9607 63.9647 55.0019 63.9647C53.9009 63.9647 52.8335 63.8221 51.8171 63.5546C49.854 63.0384 48.0801 62.0556 46.6203 60.7321C44.1015 58.4486 42.5195 55.1501 42.5195 51.4824C42.5195 44.5885 48.1081 39 55.0018 39C61.8956 39 67.4842 44.5885 67.4842 51.4823Z" fill="#A1DAFF"/>
<path d="M50.9191 53.8101V70.4742C48.4028 69.8127 46.1289 68.5529 44.2578 66.8563V53.8101H50.9191Z" fill="#2274CB"/>
<path d="M50.6232 40.1108V44.8961C50.6232 46.5732 49.2637 47.9327 47.5866 47.9327C45.9095 47.9327 44.55 46.5732 44.55 44.8961V40.1108C41.6749 41.303 39.6523 44.1365 39.6523 47.4428C39.6523 51.8248 43.2047 55.3771 47.5867 55.3771C51.9687 55.3771 55.521 51.8248 55.521 47.4428C55.521 44.1365 53.4984 41.303 50.6232 40.1108Z" fill="#2274CB"/>
<path d="M45.2483 67.6869V54.659L44.2578 54.6338V66.8562" fill="#0C2291"/>
<path d="M45.2594 54.6517C42.5344 53.3956 40.6428 50.6403 40.6428 47.4428C40.6428 44.5311 42.2119 41.9867 44.5501 40.6065V40.1108C41.6749 41.303 39.6523 44.1365 39.6523 47.4428C39.6523 51.0103 42.0067 54.0278 45.2464 55.0264L45.2594 54.6517Z" fill="#0C2291"/>
<path d="M64.3058 50.1013H61.661V64.3048H64.3058V50.1013Z" fill="white"/>
<path d="M62.6307 50.1013H61.661V64.3048H62.6307V50.1013Z" fill="#CFE8F8"/>
<path d="M66.3835 66.2425C64.2833 68.3695 61.5913 69.9107 58.5742 70.5991V68.5511C58.5742 66.8113 59.9848 65.4014 61.7239 65.4014H64.2408C65.0682 65.4014 65.8212 65.7207 66.3835 66.2425Z" fill="#A1C6ED"/>
<path d="M65.8727 46.9994L63.9463 40.5344H62.0198L60.0934 46.9994L61.6606 50.297H64.3054L65.8727 46.9994Z" fill="white"/>
<path d="M63.7647 65.4014C62.025 65.4014 60.615 66.8113 60.615 68.5511V69.9865C59.9548 70.2347 59.273 70.4397 58.5742 70.5991V68.5511C58.5742 66.8113 59.9848 65.4014 61.7239 65.4014H63.7647Z" fill="#2377CD"/>
<path d="M62.6303 50.297L60.7032 46.9197L62.2488 41.1074H64.117L63.9463 40.5344H62.0198L60.0934 46.9994L61.6606 50.297L62.2561 50.6712L62.6303 50.297Z" fill="#CFE8F8"/>
<path d="M66.411 65.7279H59.5538C59.0128 65.7279 58.5742 65.2893 58.5742 64.7484C58.5742 64.2074 59.0128 63.7688 59.5538 63.7688H66.4109C66.9519 63.7688 67.3905 64.2074 67.3905 64.7484C67.3905 65.2894 66.952 65.7279 66.411 65.7279Z" fill="#A1C6ED"/>
<path d="M60.6642 64.7484C60.6642 64.2074 61.1028 63.7688 61.6438 63.7688H59.5538C59.0128 63.7688 58.5742 64.2074 58.5742 64.7484C58.5742 65.2894 59.0128 65.7279 59.5538 65.7279H61.6438C61.1028 65.7279 60.6642 65.2894 60.6642 64.7484Z" fill="#2377CD"/>
</svg>
