<svg width="110" height="110" viewBox="0 0 110 110" fill="none" xmlns="http://www.w3.org/2000/svg">
<circle cx="55" cy="55" r="55" fill="#3895E2" fill-opacity="0.2"/>
<circle cx="55" cy="55" r="40" fill="#3895E2"/>
<g clip-path="url(#clip0)">
<path d="M54.9997 71.0002C63.836 71.0002 70.9993 63.8369 70.9993 55.0005C70.9993 46.1642 63.836 39.0009 54.9997 39.0009C46.1633 39.0009 39 46.1642 39 55.0005C39 63.8369 46.1633 71.0002 54.9997 71.0002Z" fill="#E9F6FF"/>
<path d="M42.0508 64.4021C42.4524 64.9539 42.888 65.4789 43.3549 65.974C44.0386 66.6989 44.789 67.3598 45.5962 67.9475L47.9145 65.6292C48.4043 65.1401 48.6492 64.4981 48.6492 63.8562C48.6492 63.2149 48.4043 62.5735 47.9145 62.0838C46.9356 61.1049 45.348 61.1049 44.3691 62.0838L42.0508 64.4021Z" fill="#A1C6ED"/>
<path d="M45.5954 67.9476C45.0435 67.546 44.5185 67.1104 44.0234 66.6435L46.4757 64.1913C47.1986 63.4684 47.3873 62.4137 47.0418 61.5171C47.3599 61.6392 47.6576 61.8273 47.9136 62.084C48.4034 62.5731 48.6477 63.2151 48.6477 63.857C48.6477 64.4983 48.4034 65.1396 47.9136 65.6293L45.5954 67.9476Z" fill="#2377CD"/>
<path d="M58.5727 63.8568C65.4365 63.8568 71.0008 58.2925 71.0008 51.4286C71.0008 44.5648 65.4365 39.0005 58.5727 39.0005C51.7088 39.0005 46.1445 44.5648 46.1445 51.4286C46.1445 58.2925 51.7088 63.8568 58.5727 63.8568Z" fill="#CFE8F8"/>
<path d="M51.505 58.4952C51.8015 58.7917 52.1117 59.0653 52.4343 59.3168C56.0339 62.1242 61.1127 62.1242 64.7109 59.3161C65.0329 59.0647 65.3431 58.7911 65.6389 58.4953C69.5422 54.5926 69.5422 48.2646 65.6389 44.3613C61.7363 40.4587 55.4082 40.4587 51.505 44.3613C47.6023 48.2645 47.6023 54.5926 51.505 58.4952Z" fill="#A1DAFF"/>
<path d="M59.709 45.9078C59.709 46.4477 59.2062 46.9318 58.5732 46.9318C57.9402 46.9318 57.4375 46.4477 57.4375 45.9078C57.4375 45.3492 57.9402 44.8838 58.5732 44.8838C59.2062 44.8837 59.709 45.3492 59.709 45.9078ZM59.56 49.7803V57.3206C59.56 57.6371 59.1318 57.9722 58.5732 57.9722C58.0147 57.9722 57.6051 57.6371 57.6051 57.3206V49.7803C57.6051 49.4079 58.0147 49.1473 58.5732 49.1473C59.1318 49.1473 59.56 49.4079 59.56 49.7803Z" fill="white"/>
<path d="M55.6647 58.4952C51.7618 54.5923 51.7618 48.2644 55.6647 44.3615C57.0841 42.9421 58.8243 42.0395 60.6518 41.6525C57.4541 40.9754 53.9888 41.878 51.5052 44.3615C47.6023 48.2644 47.6023 54.5923 51.5052 58.4952C53.9887 60.9787 57.454 61.8814 60.6518 61.2041C58.8243 60.8172 57.0841 59.9146 55.6647 58.4952Z" fill="#2274CB"/>
<path d="M47.4659 57.8987L52.1005 62.5334C52.7155 63.1484 52.7155 64.1454 52.1005 64.7604C51.4856 65.3754 50.4885 65.3754 49.8735 64.7604L45.2388 60.1257C44.6238 59.5107 44.6238 58.5137 45.2388 57.8987C45.8538 57.2838 46.8509 57.2838 47.4659 57.8987Z" fill="#A1C6ED"/>
<path d="M50.2036 62.8613C50.8186 62.2463 50.8186 61.2493 50.2036 60.6343L52.1029 62.5336C52.7179 63.1486 52.7179 64.1456 52.1029 64.7606C51.4879 65.3756 50.4908 65.3756 49.8758 64.7606L47.9766 62.8613C48.5915 63.4762 49.5887 63.4762 50.2036 62.8613Z" fill="#2377CD"/>
<path opacity="0.6" d="M64.6769 51.7708C65.698 51.7708 66.5257 50.9431 66.5257 49.922C66.5257 48.901 65.698 48.0732 64.6769 48.0732C63.6559 48.0732 62.8281 48.901 62.8281 49.922C62.8281 50.9431 63.6559 51.7708 64.6769 51.7708Z" fill="#E9F6FF"/>
</g>
<defs>
<clipPath id="clip0">
<rect width="32" height="32" fill="white" transform="translate(39 39)"/>
</clipPath>
</defs>
</svg>
