<svg width="110" height="110" viewBox="0 0 110 110" fill="none" xmlns="http://www.w3.org/2000/svg">
<circle cx="55" cy="55" r="55" fill="#3895E2" fill-opacity="0.2"/>
<circle cx="55" cy="55" r="40" fill="#3895E2"/>
<path d="M54.9999 70.9999C63.8365 70.9999 70.9999 63.8365 70.9999 54.9999C70.9999 46.1634 63.8365 39 54.9999 39C46.1634 39 39 46.1634 39 54.9999C39 63.8365 46.1634 70.9999 54.9999 70.9999Z" fill="#CFE8F8"/>
<path d="M67.148 40.5543V65.4149C64.2138 68.8338 59.8605 70.9999 55.0017 70.9999C50.143 70.9999 45.7897 68.8337 42.8555 65.415V40.5543C42.8555 39.6962 43.551 39 44.4098 39H65.5937C66.4518 39 67.148 39.6962 67.148 40.5543Z" fill="#2377CD"/>
<path d="M65.9216 44.3413V66.6916C63.0626 69.364 59.2219 70.9999 54.9999 70.9999C50.7779 70.9999 46.9372 69.364 44.0781 66.6916V44.3413C44.0781 43.8293 44.4928 43.4146 45.0048 43.4146H64.995C65.0512 43.4146 65.106 43.4199 65.1589 43.4296C65.5925 43.5067 65.9216 43.8855 65.9216 44.3413Z" fill="white"/>
<path d="M59.1127 41.8471H50.8846C50.5059 41.8471 50.199 41.5401 50.199 41.1615C50.199 40.7828 50.506 40.4758 50.8846 40.4758H59.1128C59.4915 40.4758 59.7984 40.7828 59.7984 41.1615C59.7985 41.5401 59.4915 41.8471 59.1127 41.8471Z" fill="#2D4F9E"/>
<path d="M63.1591 50.6852L62.2213 51.623L56.5736 57.2707C56.3255 57.5182 55.9238 57.5182 55.6763 57.2707L50.7098 52.3042C50.4616 52.0567 50.4616 51.6551 50.7098 51.4069L57.2953 44.8214C57.5428 44.5739 57.9451 44.5739 58.1926 44.8214L63.1591 49.7879C63.4067 50.0354 63.4067 50.4371 63.1591 50.6852Z" fill="#2D4F9E"/>
<path d="M50.2534 52.6521L49.7629 50.6924C49.7121 50.4892 49.5294 50.3467 49.3201 50.3467H47.3004C47.0482 50.3467 46.8438 50.5511 46.8438 50.8033V50.8111C46.8438 51.0632 47.0482 51.2677 47.3004 51.2677H48.5963C48.8066 51.2677 48.9896 51.4112 49.0397 51.6154L49.3792 52.9979L51.1027 60.0175C51.1529 60.2216 51.3359 60.3652 51.5462 60.3652H52.9169H58.1039H59.4746C59.6848 60.3652 59.8678 60.2216 59.918 60.0175L61.5028 53.5633C61.5735 53.2756 61.3556 52.9978 61.0594 52.9978H50.6963C50.4868 52.9979 50.3042 52.8554 50.2534 52.6521ZM51.1511 53.9188H51.6514C51.8801 53.9188 52.0734 54.0879 52.1039 54.3146L52.1454 54.6238C52.1822 54.8977 51.9692 55.1412 51.6929 55.1412H51.2261C51.0154 55.1412 50.8321 54.9971 50.7824 54.7924L50.7074 54.4832C50.6376 54.1957 50.8553 53.9188 51.1511 53.9188ZM51.6715 56.0621H51.9393C52.168 56.0621 52.3614 56.2312 52.3918 56.4579L52.4424 56.834C52.4791 57.1079 52.2662 57.3514 51.9899 57.3514H51.7628C51.5521 57.3514 51.3688 57.2073 51.3191 57.0026L51.2278 56.6265C51.158 56.339 51.3757 56.0621 51.6715 56.0621ZM51.8273 59.0955L51.7644 58.8366C51.6946 58.5492 51.9124 58.2723 52.2081 58.2723H52.2362C52.4649 58.2723 52.6582 58.4414 52.6887 58.6681L52.7235 58.927C52.7602 59.2009 52.5473 59.4444 52.271 59.4444C52.0603 59.4444 51.877 59.3002 51.8273 59.0955ZM54.5932 59.4444H54.1216C53.8929 59.4444 53.6996 59.2752 53.6691 59.0486L53.6343 58.7897C53.5976 58.5158 53.8105 58.2723 54.0868 58.2723H54.5931C54.8452 58.2723 55.0497 58.4767 55.0497 58.7289V58.9878C55.0497 59.2399 54.8453 59.4444 54.5932 59.4444ZM54.5932 57.3513H53.8405C53.6118 57.3513 53.4184 57.1822 53.388 56.9555L53.3374 56.5794C53.3007 56.3056 53.5136 56.0621 53.7899 56.0621H54.5931C54.8452 56.0621 55.0497 56.2665 55.0497 56.5187V56.8947C55.0497 57.1469 54.8453 57.3513 54.5932 57.3513ZM54.5932 55.1411H53.5436C53.3149 55.1411 53.1215 54.972 53.0911 54.7453L53.0495 54.4361C53.0127 54.1623 53.2257 53.9187 53.502 53.9187H54.5931C54.8452 53.9187 55.0497 54.1232 55.0497 54.3754V54.6846C55.0497 54.9367 54.8453 55.1411 54.5932 55.1411ZM56.8989 59.4444H56.4273C56.1752 59.4444 55.9707 59.2399 55.9707 58.9877V58.7289C55.9707 58.4767 56.1751 58.2722 56.4273 58.2722H56.9337C57.21 58.2722 57.423 58.5157 57.3862 58.7896L57.3514 59.0485C57.3209 59.2752 57.1276 59.4444 56.8989 59.4444ZM57.18 57.3513H56.4273C56.1752 57.3513 55.9707 57.1469 55.9707 56.8947V56.5186C55.9707 56.2665 56.1751 56.062 56.4273 56.062H57.2305C57.5068 56.062 57.7198 56.3055 57.683 56.5794L57.6325 56.9554C57.6021 57.1821 57.4087 57.3513 57.18 57.3513ZM57.4769 55.1411H56.4272C56.1751 55.1411 55.9706 54.9367 55.9706 54.6845V54.3753C55.9706 54.1232 56.1751 53.9187 56.4272 53.9187H57.5184C57.7947 53.9187 58.0077 54.1622 57.9709 54.4361L57.9293 54.7452C57.899 54.972 57.7056 55.1411 57.4769 55.1411ZM58.7494 59.4444C58.4731 59.4444 58.2601 59.2009 58.2969 58.927L58.3317 58.6681C58.3622 58.4415 58.5556 58.2723 58.7842 58.2723H58.8123C59.1081 58.2723 59.3258 58.5492 59.256 58.8366L59.1931 59.0955C59.1434 59.3002 58.9601 59.4444 58.7494 59.4444ZM59.2576 57.3513H59.0306C58.7542 57.3513 58.5412 57.1078 58.5781 56.8339L58.6286 56.4579C58.6591 56.2312 58.8525 56.0621 59.0811 56.0621H59.3489C59.6447 56.0621 59.8624 56.3389 59.7926 56.6264L59.7013 57.0024C59.6516 57.2072 59.4683 57.3513 59.2576 57.3513ZM58.8749 54.6237L58.9165 54.3146C58.9469 54.0879 59.1404 53.9187 59.369 53.9187H59.8694C60.1651 53.9187 60.3829 54.1956 60.3131 54.4831L60.238 54.7922C60.1883 54.997 60.005 55.1411 59.7943 55.1411H59.3275C59.0511 55.1411 58.8382 54.8976 58.8749 54.6237Z" fill="#A1DAFF"/>
<path d="M57.6617 63.8991C58.3227 63.8991 58.8586 63.3633 58.8586 62.7022C58.8586 62.0412 58.3227 61.5054 57.6617 61.5054C57.0007 61.5054 56.4648 62.0412 56.4648 62.7022C56.4648 63.3633 57.0007 63.8991 57.6617 63.8991Z" fill="#A1DAFF"/>
<path d="M52.759 63.8991C53.42 63.8991 53.9559 63.3633 53.9559 62.7022C53.9559 62.0412 53.42 61.5054 52.759 61.5054C52.098 61.5054 51.5621 62.0412 51.5621 62.7022C51.5621 63.3633 52.098 63.8991 52.759 63.8991Z" fill="#A1DAFF"/>
</svg>
