<svg width="155" height="77" viewBox="0 0 155 77" fill="none" xmlns="http://www.w3.org/2000/svg">
<path d="M154.407 73.9108L151.458 72.7092C151.513 71.8353 151.349 71.1253 150.857 70.7976L145.56 68.6675C145.505 67.6298 145.177 66.7559 144.522 66.319L77.8894 39.3384C79.2002 40.1576 79.3095 42.7792 78.1079 45.1823C77.0156 47.4216 75.2678 48.6778 73.957 48.1317L140.589 75.1123C141.409 75.44 142.501 75.0031 143.429 74.0746L148.454 76.0954C149.055 76.3139 149.765 75.9862 150.42 75.2215L153.315 76.3685C153.697 76.5324 154.189 76.15 154.517 75.4946C154.79 74.9484 154.79 74.1838 154.407 73.9108Z" fill="#F2FAFE"/>
<path d="M87.5566 30.7633C87.2836 30.5994 86.9559 30.4356 86.6828 30.3264L20.0504 3.3457C20.3781 3.45494 20.6512 3.61878 20.9243 3.78263C25.1297 6.51347 25.4574 15.0337 21.7435 22.8439C18.248 30.1079 12.404 34.2042 8.25317 32.511L74.8856 59.4917C79.0364 61.1848 84.8804 57.0885 88.3759 49.8245C92.0898 42.0143 91.7621 33.4941 87.5566 30.7633Z" fill="url(#paint0_linear)"/>
<path d="M22.4082 21.2638C25.6702 13.2125 24.6206 5.18894 20.0638 3.34271C15.507 1.49648 9.16854 6.5267 5.90648 14.578C2.64443 22.6293 3.69403 30.6529 8.25085 32.4991C12.8077 34.3454 19.1461 29.3151 22.4082 21.2638Z" fill="#F2FAFE"/>
<path d="M75.5957 55.7232C75.3226 55.7232 75.0495 55.6685 74.7218 55.5593L22.6721 34.4226C21.5251 33.9311 20.9243 32.6203 21.4159 31.4733C21.9074 30.3264 23.2182 29.7256 24.3652 30.2171L76.4695 51.3538C77.6165 51.8454 78.2172 53.1562 77.7257 54.3031C77.3434 55.177 76.5242 55.7232 75.5957 55.7232Z" fill="url(#paint1_linear)"/>
<path d="M81.4931 47.4761C81.22 47.4761 80.9469 47.4215 80.6192 47.3123L28.5695 26.2303C27.4226 25.7387 26.8218 24.4279 27.3133 23.2809C27.8049 22.134 29.1157 21.5332 30.2627 22.0248L82.3124 43.1068C83.4593 43.5984 84.0601 44.9092 83.5686 46.0561C83.2409 46.93 82.367 47.4761 81.4931 47.4761Z" fill="url(#paint2_linear)"/>
<path d="M82.8607 37.4812C82.5876 37.4812 82.3145 37.4266 81.9868 37.3173L30.2101 16.3445C29.0632 15.853 28.4624 14.5422 28.954 13.3952C29.4455 12.2483 30.7563 11.6475 31.9033 12.139L83.6799 33.1118C84.8269 33.6034 85.4277 34.9142 84.9361 36.0612C84.6084 36.9896 83.7345 37.4812 82.8607 37.4812Z" fill="url(#paint3_linear)"/>
<defs>
<linearGradient id="paint0_linear" x1="57.9005" y1="19.674" x2="43.2612" y2="47.16" gradientUnits="userSpaceOnUse">
<stop stop-color="#2580D3"/>
<stop offset="0.0762773" stop-color="#2377CD"/>
<stop offset="0.4933" stop-color="#1649AC"/>
<stop offset="0.8149" stop-color="#0F2D98"/>
<stop offset="1" stop-color="#0C2291"/>
</linearGradient>
<linearGradient id="paint1_linear" x1="51.3398" y1="40.0043" x2="62.0952" y2="22.6762" gradientUnits="userSpaceOnUse">
<stop stop-color="#207FD6"/>
<stop offset="0.4423" stop-color="#4CA6EC"/>
<stop offset="0.7962" stop-color="#68BFFA"/>
<stop offset="1" stop-color="#73C8FF"/>
</linearGradient>
<linearGradient id="paint2_linear" x1="51.9103" y1="40.3592" x2="62.6656" y2="23.0312" gradientUnits="userSpaceOnUse">
<stop stop-color="#207FD6"/>
<stop offset="0.4423" stop-color="#4CA6EC"/>
<stop offset="0.7962" stop-color="#68BFFA"/>
<stop offset="1" stop-color="#73C8FF"/>
</linearGradient>
<linearGradient id="paint3_linear" x1="48.556" y1="38.2758" x2="59.3113" y2="20.9477" gradientUnits="userSpaceOnUse">
<stop stop-color="#207FD6"/>
<stop offset="0.4423" stop-color="#4CA6EC"/>
<stop offset="0.7962" stop-color="#68BFFA"/>
<stop offset="1" stop-color="#73C8FF"/>
</linearGradient>
</defs>
</svg>
