<svg width="520" height="525" viewBox="0 0 520 525" fill="none" xmlns="http://www.w3.org/2000/svg">
<path opacity="0.0178571" d="M334.292 241.231C341.224 237.162 350.341 234.977 359.835 234.977C366.691 234.977 373.322 236.107 379.124 238.292C381.309 239.121 383.494 240.101 385.453 241.231L503.897 309.57C512.261 314.392 517.083 321.626 517.083 329.386C517.083 337.147 512.336 344.305 504.048 349.127L214.115 517.602C207.183 521.67 198.066 523.855 188.572 523.855C181.716 523.855 175.085 522.725 169.284 520.54C167.099 519.711 164.914 518.732 162.955 517.602L44.5099 449.187C36.1464 444.365 31.3242 437.132 31.3242 429.371C31.3242 421.61 36.071 414.452 44.3591 409.63L334.292 241.231Z" fill="#FDFEFE"/>
<path opacity="0.0357143" d="M334.063 241.834C340.995 237.84 349.961 235.655 359.455 235.655C366.236 235.655 372.867 236.861 378.593 238.971C380.778 239.799 382.963 240.854 384.847 241.909L502.613 309.872C510.901 314.694 515.648 321.776 515.648 329.462C515.648 337.147 510.977 344.23 502.764 348.976L214.413 516.622C207.481 520.616 198.515 522.801 189.021 522.801C182.24 522.801 175.61 521.595 169.883 519.485C167.698 518.657 165.513 517.602 163.63 516.547L45.8631 448.584C37.5749 443.838 32.8281 436.68 32.8281 428.994C32.8281 421.309 37.4996 414.226 45.7124 409.48L334.063 241.834Z" fill="#FCFDFE"/>
<path opacity="0.0535714" d="M333.838 242.436C340.694 238.443 349.66 236.258 359.079 236.258C365.86 236.258 372.415 237.463 378.141 239.573C380.251 240.402 382.511 241.457 384.395 242.512L501.484 310.097C509.696 314.844 514.368 321.927 514.443 329.537C514.443 337.071 509.847 344.154 501.71 348.901L214.64 515.718C207.783 519.711 198.817 521.896 189.398 521.896C182.617 521.896 176.062 520.691 170.336 518.581C168.226 517.752 165.966 516.697 164.082 515.642L46.9936 448.057C38.7808 443.31 34.1094 436.227 34.1094 428.617C34.1094 421.083 38.7055 414 46.8429 409.253L333.838 242.436Z" fill="#FAFCFD"/>
<path opacity="0.0714286" d="M333.611 243.114C340.467 239.121 349.358 237.011 358.701 237.011C365.407 237.011 371.962 238.217 377.613 240.326C379.723 241.08 381.983 242.21 383.792 243.265L500.277 310.474C508.415 315.146 513.086 322.153 513.086 329.687C513.086 337.147 508.49 344.154 500.428 348.825L214.94 514.814C208.084 518.807 199.193 520.917 189.85 520.917C183.144 520.917 176.589 519.711 170.938 517.602C168.828 516.848 166.568 515.718 164.759 514.663L48.2737 447.379C40.1363 442.707 35.4648 435.7 35.4648 428.165C35.4648 420.706 40.061 413.699 48.123 409.027L333.611 243.114Z" fill="#F8FBFD"/>
<path opacity="0.0892857" d="M333.387 243.717C340.168 239.799 349.059 237.614 358.326 237.689C365.032 237.689 371.512 238.895 377.088 241.005C379.122 241.758 381.458 242.888 383.266 243.943L499.074 310.775C507.136 315.447 511.732 322.379 511.732 329.838C511.732 337.222 507.211 344.154 499.224 348.825L215.168 513.91C208.387 517.828 199.496 520.013 190.153 519.937C183.447 519.937 176.967 518.732 171.317 516.622C169.282 515.869 166.946 514.738 165.138 513.683L49.3306 446.851C41.2685 442.18 36.6724 435.248 36.6724 427.864C36.6724 420.48 41.1932 413.548 49.1799 408.877L333.387 243.717Z" fill="#F7FAFC"/>
<path opacity="0.1071" d="M333.238 244.395C340.019 240.477 348.834 238.368 358.102 238.368C364.732 238.368 371.212 239.573 376.788 241.683C378.822 242.436 381.158 243.567 382.891 244.546L498.02 311.002C506.007 315.598 510.603 322.454 510.603 329.838C510.603 337.147 506.082 344.003 498.171 348.6L215.471 512.93C208.69 516.848 199.874 518.958 190.607 518.958C183.976 518.958 177.496 517.752 171.921 515.643C169.886 514.889 167.551 513.759 165.818 512.78L50.6883 446.324C42.7016 441.728 38.1808 434.871 38.1055 427.487C38.1055 420.179 42.6263 413.322 50.5376 408.726L333.238 244.395Z" fill="#F5F9FC"/>
<path opacity="0.125" d="M333.01 244.998C339.716 241.08 348.531 238.971 357.724 239.046C364.354 239.121 370.759 240.251 376.259 242.436C378.218 243.19 380.629 244.32 382.362 245.3L496.813 311.379C504.725 315.975 509.245 322.756 509.245 329.989C509.245 337.222 504.8 344.004 496.964 348.524L215.696 512.026C208.99 515.944 200.174 518.054 190.982 517.979C184.351 517.903 177.947 516.773 172.371 514.588C170.412 513.834 168.001 512.704 166.268 511.725L51.817 445.646C43.981 441.05 39.4602 434.269 39.4602 427.035C39.4602 419.802 43.9056 413.021 51.7417 408.5L333.01 244.998Z" fill="#F3F8FB"/>
<path opacity="0.1429" d="M332.784 245.601C339.49 241.758 348.23 239.648 357.347 239.724C363.902 239.799 370.307 240.929 375.807 243.114C377.766 243.868 380.177 244.998 381.835 245.977L495.683 311.68C503.519 316.2 507.965 322.906 507.965 330.139C507.965 337.297 503.594 344.003 495.834 348.524L215.997 511.122C209.291 514.964 200.551 517.074 191.434 516.999C184.879 516.923 178.474 515.793 172.974 513.608C171.015 512.855 168.604 511.724 166.946 510.745L53.0979 445.043C45.2618 440.522 40.8164 433.816 40.8164 426.583C40.8164 419.425 45.1865 412.719 52.9472 408.198L332.784 245.601Z" fill="#F2F7FB"/>
<path opacity="0.1607" d="M332.559 246.279C339.19 242.436 347.93 240.327 356.972 240.402C363.527 240.477 369.856 241.607 375.281 243.792C377.164 244.471 379.651 245.676 381.309 246.656L494.479 311.981C502.24 316.502 506.685 323.132 506.685 330.215C506.685 337.297 502.315 343.928 494.63 348.373L216.224 510.142C209.594 513.985 200.854 516.095 191.812 516.019C185.257 515.944 178.928 514.814 173.428 512.629C171.544 511.951 169.058 510.745 167.4 509.765L54.2295 444.44C46.4688 439.995 42.0234 433.289 42.0234 426.206C42.0234 419.124 46.3935 412.493 54.0789 408.048L332.559 246.279Z" fill="#F0F6FA"/>
<path opacity="0.1786" d="M332.33 246.882C338.961 243.039 347.626 241.005 356.592 241.08C363.072 241.155 369.401 242.286 374.826 244.471C376.709 245.149 379.196 246.43 380.778 247.334L493.27 312.283C500.956 316.728 505.326 323.283 505.326 330.29C505.326 337.298 501.031 343.853 493.421 348.223L216.523 509.238C209.892 513.081 201.227 515.115 192.261 515.04C185.781 514.965 179.452 513.834 174.027 511.649C172.144 510.971 169.657 509.69 168.075 508.786L55.5828 443.837C47.8974 439.392 43.5273 432.837 43.5273 425.83C43.5273 418.822 47.8221 412.267 55.4321 407.822L332.33 246.882Z" fill="#EFF6FA"/>
<path opacity="0.1964" d="M332.107 247.56C338.663 243.717 347.327 241.683 356.218 241.758C362.698 241.833 368.952 242.963 374.301 245.148C376.11 245.827 378.671 247.108 380.178 248.012L491.993 312.584C499.603 316.954 503.897 323.509 503.973 330.441C503.973 337.373 499.753 343.852 492.219 348.222L216.752 508.334C210.197 512.176 201.532 514.211 192.641 514.135C186.161 514.06 179.908 512.93 174.483 510.745C172.674 510.067 170.113 508.786 168.606 507.882L56.7914 443.234C49.1815 438.864 44.8867 432.309 44.8867 425.377C44.8867 418.445 49.1061 411.966 56.7161 407.595L332.107 247.56Z" fill="#EDF5F9"/>
<path opacity="0.2143" d="M331.953 248.162C338.508 244.395 347.022 242.361 355.913 242.436C362.318 242.511 368.572 243.642 373.921 245.827C375.73 246.505 378.291 247.786 379.798 248.69L491.01 312.885C498.544 317.255 502.839 323.66 502.839 330.516C502.839 337.373 498.62 343.777 491.16 348.072L217.05 507.354C210.495 511.122 201.981 513.156 193.09 513.081C186.685 513.005 180.431 511.875 175.082 509.69C173.274 509.012 170.712 507.731 169.205 506.827L57.9934 442.632C50.4588 438.262 46.1641 431.857 46.1641 425.001C46.1641 418.144 50.3835 411.74 57.8428 407.445L331.953 248.162Z" fill="#EBF4F9"/>
<path opacity="0.2321" d="M331.73 248.765C338.21 244.998 346.724 242.964 355.615 243.114C362.02 243.19 368.198 244.32 373.472 246.505C375.205 247.183 377.767 248.464 379.274 249.368L489.807 313.186C497.266 317.481 501.486 323.886 501.486 330.667C501.486 337.448 497.342 343.777 489.958 348.072L217.279 506.45C210.799 510.217 202.285 512.252 193.394 512.101C186.99 512.026 180.811 510.896 175.462 508.711C173.729 508.032 171.167 506.752 169.66 505.847L59.2021 442.104C51.7428 437.81 47.5234 431.405 47.5234 424.624C47.5234 417.843 51.6675 411.514 59.0514 407.219L331.73 248.765Z" fill="#EAF3F8"/>
<path opacity="0.25" d="M331.505 249.443C337.984 245.676 346.423 243.717 355.239 243.792C361.568 243.867 367.746 245.073 373.02 247.183C374.678 247.785 377.315 249.142 378.822 249.971L488.677 313.412C496.061 317.707 500.205 323.961 500.281 330.667C500.281 337.297 496.212 343.626 488.828 347.846L217.581 505.47C211.101 509.238 202.662 511.197 193.847 511.121C187.518 511.046 181.339 509.84 176.065 507.731C174.407 507.128 171.77 505.772 170.263 504.943L60.408 441.501C53.0241 437.207 48.88 430.953 48.8047 424.247C48.8047 417.541 52.9487 411.287 60.2573 407.068L331.505 249.443Z" fill="#E8F2F8"/>
<path opacity="0.2679" d="M331.277 250.046C337.682 246.354 346.12 244.395 354.86 244.471C361.19 244.546 367.293 245.752 372.492 247.861C374.149 248.464 376.786 249.82 378.218 250.649L487.47 313.714C494.779 317.934 498.923 324.187 498.923 330.743C498.923 337.298 494.854 343.476 487.621 347.696L217.805 504.567C211.401 508.259 202.962 510.218 194.222 510.142C187.893 510.067 181.79 508.862 176.591 506.752C174.933 506.149 172.296 504.793 170.864 503.964L61.6121 440.899C54.3035 436.68 50.1594 430.501 50.1594 423.871C50.1594 417.316 54.2281 411.062 61.4614 406.918L331.277 250.046Z" fill="#E6F1F7"/>
<path opacity="0.2857" d="M331.051 250.724C337.455 247.032 345.819 245.073 354.484 245.224C360.738 245.299 366.841 246.505 372.04 248.615C373.622 249.217 376.334 250.574 377.766 251.402L486.34 314.091C493.573 318.31 497.642 324.413 497.642 330.968C497.642 337.448 493.649 343.551 486.491 347.77L218.107 503.738C211.702 507.43 203.339 509.389 194.674 509.238C188.42 509.163 182.317 507.957 177.118 505.847C175.536 505.245 172.823 503.888 171.392 503.06L62.8176 440.296C55.5843 436.076 51.5156 429.973 51.5156 423.418C51.5156 416.939 55.509 410.835 62.6669 406.616L331.051 250.724Z" fill="#E5F0F7"/>
<path opacity="0.3036" d="M330.9 251.327C337.229 247.635 345.593 245.752 354.182 245.827C360.436 245.902 366.464 247.108 371.587 249.217C373.17 249.82 375.882 251.252 377.238 252.005L485.135 314.317C492.292 318.461 496.361 324.489 496.361 330.968C496.361 337.373 492.368 343.401 485.285 347.545L218.333 502.683C212.004 506.375 203.64 508.259 195.051 508.183C188.797 508.108 182.769 506.902 177.646 504.793C176.063 504.19 173.351 502.758 171.995 502.005L64.0985 439.693C56.9406 435.549 52.8718 429.522 52.8718 423.042C52.8718 416.637 56.8652 410.61 63.9478 406.466L330.9 251.327Z" fill="#E3EFF6"/>
<path opacity="0.3214" d="M330.673 251.93C337.002 248.238 345.29 246.354 353.804 246.505C359.983 246.58 366.01 247.786 371.134 249.896C372.641 250.498 375.429 251.93 376.785 252.683L484.003 314.618C491.085 318.687 495.079 324.715 495.079 331.119C495.079 337.448 491.161 343.401 484.154 347.469L218.633 501.779C212.303 505.471 204.015 507.354 195.501 507.204C189.323 507.128 183.295 505.923 178.172 503.813C176.665 503.21 173.877 501.779 172.521 501.025L65.3025 439.09C58.2199 435.022 54.2266 428.994 54.2266 422.665C54.2266 416.336 58.1446 410.384 65.1518 406.239L330.673 251.93Z" fill="#E1EEF6"/>
<path opacity="0.3393" d="M330.45 252.608C336.704 248.991 344.992 247.108 353.43 247.258C359.609 247.334 365.561 248.539 370.61 250.649C372.116 251.176 374.904 252.683 376.185 253.437L482.8 314.995C489.808 319.064 493.726 324.941 493.726 331.27C493.726 337.523 489.883 343.4 482.876 347.469L218.862 500.875C212.608 504.491 204.32 506.375 195.881 506.224C189.703 506.149 183.75 504.943 178.702 502.834C177.195 502.306 174.407 500.799 173.126 500.046L66.5112 438.488C59.504 434.419 55.5859 428.542 55.5859 422.213C55.5859 415.959 59.4286 410.082 66.4358 406.013L330.45 252.608Z" fill="#E0EDF5"/>
<path opacity="0.3571" d="M330.22 253.211C336.474 249.594 344.687 247.711 353.126 247.861C359.229 247.937 365.181 249.142 370.229 251.252C371.661 251.779 374.524 253.286 375.805 254.04L481.742 315.221C488.674 319.214 492.592 325.092 492.592 331.27C492.592 337.448 488.749 343.25 481.893 347.243L219.235 499.895C212.981 503.512 204.768 505.396 196.33 505.245C190.227 505.17 184.274 503.964 179.226 501.854C177.794 501.327 174.931 499.82 173.65 499.067L67.7132 437.885C60.7813 433.892 56.8633 428.015 56.8633 421.836C56.8633 415.658 60.706 409.856 67.5625 405.863L330.22 253.211Z" fill="#DEECF5"/>
<path opacity="0.375" d="M329.997 253.889C336.176 250.272 344.389 248.464 352.752 248.615C358.855 248.765 364.732 249.896 369.705 252.081C371.137 252.608 374 254.115 375.205 254.868L480.464 315.673C487.321 319.666 491.163 325.393 491.163 331.571C491.163 337.674 487.396 343.401 480.615 347.394L219.389 499.217C213.21 502.834 204.998 504.642 196.634 504.491C190.531 504.341 184.654 503.21 179.681 501.025C178.25 500.498 175.386 498.991 174.181 498.237L68.9218 437.433C62.0653 433.44 58.2227 427.713 58.2227 421.535C58.2227 415.432 61.99 409.705 68.7712 405.712L329.997 253.889Z" fill="#DCEBF4"/>
<path opacity="0.3929" d="M329.772 254.492C335.95 250.95 344.012 249.067 352.376 249.217C358.403 249.368 364.28 250.498 369.253 252.683C370.609 253.211 373.548 254.718 374.754 255.396L479.334 315.824C486.116 319.742 489.883 325.468 489.958 331.496C489.958 337.523 486.266 343.174 479.485 347.092L219.691 498.087C213.512 501.628 205.375 503.512 197.087 503.361C191.059 503.21 185.182 502.08 180.209 499.895C178.853 499.368 175.914 497.861 174.709 497.183L70.1278 436.755C63.3466 432.837 59.5793 427.11 59.5039 421.083C59.5039 415.055 63.1959 409.404 69.9771 405.486L329.772 254.492Z" fill="#DBEAF4"/>
<path opacity="0.4107" d="M329.619 255.094C335.722 251.553 343.784 249.745 352.073 249.895C358.1 250.046 363.902 251.176 368.799 253.361C370.156 253.889 373.094 255.396 374.224 256.074L478.203 316.125C484.908 320.043 488.676 325.619 488.676 331.571C488.676 337.523 484.984 343.099 478.353 346.942L219.99 497.107C213.887 500.648 205.825 502.457 197.537 502.306C191.509 502.155 185.708 501.025 180.81 498.84C179.454 498.313 176.515 496.806 175.385 496.128L71.407 436.077C64.7012 432.159 60.9338 426.583 60.9338 420.631C60.9338 414.678 64.6258 409.102 71.2563 405.26L329.619 255.094Z" fill="#D9E9F3"/>
<path opacity="0.4286" d="M329.393 255.772C335.497 252.231 343.483 250.423 351.696 250.649C357.648 250.799 363.45 251.93 368.348 254.115C369.628 254.567 372.642 256.224 373.772 256.827L477.073 316.426C483.703 320.269 487.395 325.845 487.395 331.722C487.395 337.599 483.778 343.099 477.148 346.942L220.216 496.278C214.113 499.82 206.127 501.628 197.914 501.402C191.961 501.251 186.16 500.121 181.262 497.936C179.981 497.484 176.968 495.826 175.837 495.223L72.5373 435.624C65.9068 431.782 62.2148 426.206 62.2148 420.329C62.2148 414.452 65.8315 408.952 72.4619 405.109L329.393 255.772Z" fill="#D8E8F3"/>
<path opacity="0.4464" d="M329.167 256.375C335.195 252.834 343.182 251.101 351.319 251.252C357.272 251.402 362.998 252.533 367.82 254.718C369.101 255.17 372.115 256.827 373.17 257.43L475.792 316.652C482.347 320.42 486.039 325.92 486.039 331.722C486.039 337.523 482.422 342.948 475.942 346.716L220.442 495.224C214.415 498.765 206.428 500.498 198.291 500.347C192.338 500.196 186.612 499.066 181.79 496.881C180.509 496.429 177.495 494.771 176.44 494.169L73.8181 434.946C67.263 431.179 63.571 425.679 63.571 419.877C63.571 414.075 67.1877 408.65 73.6675 404.883L329.167 256.375Z" fill="#D6E7F2"/>
<path opacity="0.4643" d="M328.94 257.053C334.968 253.588 342.879 251.779 350.941 252.005C356.818 252.156 362.544 253.361 367.367 255.471C368.572 255.923 371.661 257.581 372.716 258.184L474.66 317.029C481.14 320.797 484.756 326.221 484.756 331.948C484.756 337.599 481.215 343.024 474.811 346.791L220.742 494.47C214.715 497.936 206.803 499.744 198.741 499.518C192.864 499.368 187.138 498.162 182.316 496.052C181.11 495.6 178.021 493.943 176.966 493.34L75.0222 434.494C68.5424 430.727 64.9258 425.302 64.9258 419.651C64.9258 414 68.4671 408.575 74.8715 404.808L328.94 257.053Z" fill="#D4E6F2"/>
<path opacity="0.4821" d="M328.717 257.656C334.669 254.19 342.581 252.457 350.643 252.683C356.52 252.834 362.171 254.039 366.918 256.149C368.123 256.601 371.212 258.259 372.192 258.862L473.533 317.33C479.937 321.022 483.479 326.372 483.479 332.023C483.479 337.599 480.013 342.948 473.608 346.64L220.971 493.491C215.019 496.956 207.108 498.689 199.046 498.463C193.169 498.313 187.518 497.107 182.771 494.997C181.565 494.545 178.476 492.888 177.497 492.285L76.2309 433.816C69.8264 430.124 66.2852 424.775 66.2852 419.124C66.2852 413.548 69.7511 408.198 76.1556 404.506L328.717 257.656Z" fill="#D3E5F1"/>
<path opacity="0.5" d="M328.487 258.259C334.44 254.793 342.276 253.136 350.262 253.286C356.064 253.437 361.715 254.642 366.462 256.752C367.592 257.204 370.757 258.862 371.736 259.465L472.399 317.557C478.728 321.249 482.269 326.523 482.269 332.023C482.269 337.524 478.804 342.798 472.55 346.414L221.345 492.436C215.392 495.902 207.556 497.56 199.57 497.409C193.768 497.258 188.117 496.053 183.37 493.943C182.24 493.491 179.075 491.833 178.096 491.23L77.4329 433.138C71.1038 429.446 67.5625 424.172 67.5625 418.672C67.5625 413.171 71.0285 407.897 77.2822 404.281L328.487 258.259Z" fill="#D1E5F1"/>
<path opacity="0.5179" d="M328.34 258.937C334.217 255.547 342.053 253.814 349.964 254.04C355.766 254.19 361.342 255.396 366.013 257.506C367.068 257.882 370.308 259.615 371.212 260.143L471.197 317.858C477.45 321.475 480.916 326.674 480.916 332.174C480.916 337.599 477.526 342.798 471.347 346.414L221.574 491.607C215.697 494.998 207.861 496.731 199.949 496.505C194.148 496.354 188.572 495.148 183.901 493.039C182.846 492.662 179.606 490.929 178.702 490.401L78.6416 432.611C72.3878 428.994 68.9219 423.795 68.9219 418.295C68.9219 412.87 72.3125 407.671 78.5663 404.054L328.34 258.937Z" fill="#CFE4F1"/>
<path opacity="0.5357" d="M328.114 259.54C333.991 256.149 341.752 254.492 349.588 254.718C355.314 254.868 360.89 256.074 365.561 258.184C366.616 258.56 369.856 260.293 370.76 260.821L470.067 318.159C476.245 321.776 479.636 326.9 479.711 332.249C479.711 337.599 476.396 342.722 470.218 346.264L221.8 490.627C215.923 494.018 208.163 495.676 200.326 495.45C194.6 495.299 189.025 494.093 184.353 491.984C183.298 491.607 180.058 489.874 179.154 489.347L79.8475 432.008C73.6691 428.391 70.2785 423.268 70.2031 417.918C70.2031 412.569 73.5184 407.445 79.6968 403.904L328.114 259.54Z" fill="#CEE3F0"/>
<path opacity="0.5536" d="M327.886 260.218C333.688 256.827 341.449 255.17 349.209 255.396C354.936 255.547 360.436 256.752 365.032 258.862C366.012 259.239 369.327 260.971 370.156 261.499L468.86 318.461C474.963 322.002 478.353 327.05 478.353 332.325C478.353 337.599 475.038 342.647 469.01 346.113L222.025 489.648C216.223 493.039 208.462 494.696 200.701 494.47C194.975 494.32 189.475 493.114 184.879 491.004C183.899 490.628 180.584 488.895 179.755 488.367L81.0513 431.405C74.9482 427.864 71.5576 422.816 71.5576 417.541C71.5576 412.267 74.8729 407.219 80.9006 403.678L327.886 260.218Z" fill="#CCE2F0"/>
<path opacity="0.5714" d="M327.66 260.821C333.462 257.506 341.072 255.848 348.833 256.074C354.484 256.225 359.984 257.43 364.58 259.54C365.56 259.917 368.8 261.725 369.704 262.177L467.73 318.762C473.757 322.228 477.073 327.277 477.073 332.475C477.073 337.674 473.833 342.647 467.805 346.113L222.326 488.819C216.524 492.135 208.839 493.792 201.154 493.566C195.503 493.415 190.002 492.21 185.406 490.1C184.427 489.724 181.187 487.915 180.283 487.463L82.257 430.803C76.2293 427.337 72.9141 422.288 72.9141 417.09C72.9141 411.891 76.154 406.918 82.1817 403.452L327.66 260.821Z" fill="#CAE1EF"/>
<path opacity="0.5893" d="M327.434 261.423C333.161 258.108 340.771 256.451 348.456 256.677C354.107 256.827 359.532 258.033 364.053 260.143C364.957 260.519 368.272 262.328 369.101 262.78L466.448 318.988C472.401 322.454 475.716 327.352 475.716 332.475C475.716 337.599 472.552 342.496 466.599 345.887L222.477 487.764C216.75 491.079 209.14 492.737 201.455 492.511C195.804 492.36 190.379 491.155 185.858 489.045C184.954 488.668 181.639 486.86 180.81 486.408L83.4625 430.2C77.5101 426.734 74.1948 421.836 74.1948 416.713C74.1948 411.589 77.3594 406.691 83.3118 403.301L327.434 261.423Z" fill="#C9E0EF"/>
<path opacity="0.6071" d="M327.284 262.102C333.01 258.787 340.545 257.204 348.23 257.43C353.806 257.581 359.231 258.787 363.752 260.896C364.656 261.198 367.971 263.081 368.8 263.533L465.469 319.365C471.346 322.756 474.586 327.653 474.586 332.701C474.586 337.75 471.422 342.572 465.62 345.962L222.929 487.011C217.278 490.326 209.668 491.909 201.983 491.683C196.407 491.532 190.982 490.326 186.461 488.217C185.557 487.915 182.242 486.032 181.413 485.579L84.6682 429.672C78.7911 426.282 75.5513 421.46 75.5513 416.336C75.5513 411.288 78.7158 406.466 84.5175 403.075L327.284 262.102Z" fill="#C7DFEE"/>
<path opacity="0.625" d="M327.056 262.705C332.707 259.389 340.242 257.807 347.852 258.109C353.428 258.335 358.777 259.465 363.223 261.574C364.052 261.876 367.442 263.76 368.196 264.212L464.262 319.667C470.064 323.057 473.229 327.804 473.229 332.777C473.229 337.75 470.139 342.497 464.338 345.812L223.078 486.032C217.427 489.347 209.893 490.929 202.283 490.628C196.707 490.402 191.358 489.271 186.912 487.162C186.083 486.86 182.693 484.977 181.939 484.525L85.8725 429.07C80.0708 425.679 76.9062 420.932 76.9062 415.959C76.9062 410.986 79.9954 406.24 85.7971 402.924L327.056 262.705Z" fill="#C6DEEE"/>
<path opacity="0.6429" d="M326.83 263.382C332.405 260.143 339.94 258.56 347.475 258.786C352.975 259.012 358.325 260.143 362.77 262.328C363.599 262.629 366.989 264.513 367.743 264.965L463.132 320.043C468.858 323.358 472.022 328.03 472.022 332.927C472.022 337.825 468.933 342.421 463.282 345.736L223.454 485.127C217.879 488.367 210.344 489.949 202.809 489.723C197.309 489.497 191.96 488.367 187.514 486.182C186.685 485.881 183.295 483.997 182.541 483.545L87.1526 428.467C81.4263 425.151 78.2617 420.48 78.2617 415.582C78.2617 410.685 81.3509 406.013 87.0019 402.773L326.83 263.382Z" fill="#C4DDED"/>
<path opacity="0.6607" d="M326.604 263.985C332.18 260.745 339.639 259.163 347.098 259.465C352.599 259.691 357.873 260.821 362.243 263.006C362.996 263.307 366.462 265.191 367.14 265.568L461.851 320.269C467.577 323.584 470.591 328.181 470.591 333.003C470.591 337.75 467.577 342.346 461.926 345.661L223.53 484.223C217.954 487.463 210.495 489.045 203.036 488.744C197.536 488.518 192.261 487.388 187.891 485.203C187.138 484.901 183.672 483.018 182.994 482.641L88.2831 427.939C82.6322 424.624 79.543 420.028 79.543 415.206C79.543 410.459 82.5568 405.863 88.2078 402.547L326.604 263.985Z" fill="#C2DCED"/>
<path opacity="0.6786" d="M326.381 264.588C331.881 261.348 339.341 259.841 346.725 260.143C352.15 260.369 357.424 261.574 361.794 263.684C362.547 263.985 366.013 265.869 366.692 266.246L460.799 320.571C466.45 323.81 469.389 328.331 469.464 333.078C469.464 337.75 466.526 342.27 460.95 345.51L223.985 483.244C218.485 486.483 211.026 487.99 203.642 487.689C198.217 487.463 192.943 486.257 188.572 484.148C187.819 483.846 184.353 481.963 183.675 481.586L89.5672 427.261C83.9162 424.021 80.9777 419.5 80.9023 414.754C80.9023 410.082 83.8408 405.561 89.4165 402.321L326.381 264.588Z" fill="#C1DBEC"/>
<path opacity="0.6964" d="M326.153 265.266C331.654 262.101 339.038 260.519 346.346 260.821C351.771 261.047 356.97 262.252 361.265 264.362C361.943 264.588 365.484 266.622 366.087 266.924L459.517 320.872C465.092 324.036 468.031 328.557 468.031 333.153C468.031 337.749 465.092 342.195 459.667 345.435L224.134 482.339C218.634 485.504 211.25 487.086 203.941 486.785C198.516 486.559 193.318 485.353 189.023 483.243C188.345 483.017 184.803 480.983 184.201 480.681L90.771 426.733C85.1953 423.569 82.2568 419.048 82.2568 414.452C82.2568 409.856 85.1954 405.41 90.6203 402.17L326.153 265.266Z" fill="#BFDAEC"/>
<path opacity="0.7143" d="M326.003 265.869C331.428 262.704 338.812 261.197 346.045 261.499C351.395 261.725 356.594 262.93 360.888 265.04C361.566 265.266 365.108 267.3 365.71 267.602L458.462 321.173C463.962 324.338 466.825 328.708 466.825 333.304C466.825 337.825 463.962 342.195 458.537 345.359L224.436 481.435C219.011 484.6 211.627 486.107 204.394 485.805C199.044 485.579 193.845 484.374 189.55 482.264C188.872 482.038 185.331 480.003 184.728 479.702L91.9768 426.131C86.4765 422.966 83.6133 418.596 83.6133 414C83.6133 409.479 86.4764 405.109 91.9014 401.945L326.003 265.869Z" fill="#BDD9EB"/>
<path opacity="0.7321" d="M325.777 266.472C331.202 263.307 338.51 261.876 345.744 262.177C351.093 262.403 356.217 263.609 360.436 265.718C361.039 265.944 364.656 267.979 365.183 268.28L457.256 321.475C462.681 324.564 465.544 328.934 465.544 333.379C465.544 337.825 462.757 342.12 457.407 345.209L224.737 480.456C219.312 483.62 212.004 485.052 204.77 484.75C199.421 484.524 194.297 483.319 190.078 481.209C189.475 480.983 185.858 478.949 185.331 478.647L93.1822 425.528C87.7572 422.439 84.894 418.069 84.894 413.623C84.894 409.178 87.6819 404.883 93.0315 401.794L325.777 266.472Z" fill="#BCD8EB"/>
<path opacity="0.75" d="M325.549 267.15C330.899 263.985 338.207 262.554 345.365 262.855C350.64 263.081 355.763 264.287 359.983 266.397C360.51 266.623 364.202 268.657 364.654 268.958L456.125 321.776C461.474 324.865 464.262 329.085 464.262 333.53C464.262 337.9 461.474 342.12 456.275 345.209L225.037 479.627C219.687 482.792 212.379 484.223 205.221 483.922C199.947 483.696 194.823 482.49 190.604 480.381C190.076 480.154 186.384 478.12 185.932 477.819L94.4616 425.001C89.112 421.912 86.3242 417.692 86.3242 413.247C86.3242 408.877 89.112 404.657 94.3863 401.568L325.549 267.15Z" fill="#BAD7EA"/>
<path opacity="0.7679" d="M325.324 267.753C330.673 264.664 337.831 263.232 344.989 263.534C350.263 263.76 355.311 264.965 359.455 267.075C359.983 267.301 363.675 269.335 364.127 269.637L454.92 322.078C460.194 325.092 462.906 329.311 462.906 333.606C462.906 337.9 460.194 342.045 454.995 345.058L225.188 478.648C219.839 481.737 212.681 483.168 205.523 482.867C200.248 482.641 195.2 481.436 191.056 479.326C190.529 479.1 186.837 477.065 186.385 476.764L95.5922 424.323C90.3179 421.309 87.6055 417.09 87.6055 412.795C87.6055 408.5 90.3179 404.356 95.5168 401.342L325.324 267.753Z" fill="#B8D6EA"/>
<path opacity="0.7857" d="M325.097 268.431C330.371 265.341 337.529 263.91 344.612 264.211C349.81 264.437 354.859 265.643 359.003 267.752C359.455 267.903 363.222 270.013 363.599 270.239L453.713 322.303C458.912 325.317 461.625 329.386 461.625 333.605C461.625 337.825 458.987 341.893 453.864 344.832L225.489 477.517C220.215 480.606 213.057 482.038 205.974 481.736C200.775 481.51 195.727 480.305 191.583 478.195C191.131 478.045 187.363 475.935 186.987 475.709L96.8723 423.644C91.6734 420.63 88.9609 416.562 88.9609 412.342C88.9609 408.123 91.6734 404.054 96.7216 401.04L325.097 268.431Z" fill="#B7D5E9"/>
<path opacity="0.8036" d="M324.949 269.034C330.223 265.945 337.306 264.588 344.313 264.89C349.512 265.116 354.485 266.321 358.554 268.431C359.006 268.582 362.773 270.691 363.15 270.917L452.586 322.605C457.71 325.544 460.347 329.612 460.347 333.756C460.347 337.9 457.71 341.894 452.661 344.832L225.718 476.689C220.444 479.778 213.361 481.134 206.354 480.833C201.155 480.607 196.182 479.401 192.113 477.291C191.661 477.141 187.894 475.031 187.517 474.805L98.081 423.117C92.9574 420.179 90.3203 416.11 90.3203 411.966C90.3203 407.822 92.9574 403.829 98.0057 400.89L324.949 269.034Z" fill="#B5D4E9"/>
<path opacity="0.8214" d="M324.722 269.636C329.921 266.622 337.003 265.191 343.935 265.567C349.059 265.793 354.032 266.999 358.1 269.109C358.477 269.259 362.32 271.444 362.621 271.595L451.455 322.831C456.503 325.694 459.065 329.687 459.14 333.756C459.14 337.825 456.578 341.743 451.605 344.606L226.093 475.633C220.894 478.647 213.812 480.079 206.88 479.702C201.756 479.476 196.784 478.271 192.715 476.161C192.338 476.01 188.496 473.825 188.194 473.674L99.3606 422.439C94.3124 419.576 91.7506 415.582 91.6753 411.514C91.6753 407.445 94.2371 403.527 99.2099 400.664L324.722 269.636Z" fill="#B3D3E8"/>
<path opacity="0.8393" d="M324.496 270.314C329.695 267.301 336.702 265.944 343.558 266.246C348.682 266.472 353.58 267.677 357.573 269.787C357.95 269.938 361.792 272.123 362.094 272.273L450.249 323.132C455.222 325.995 457.784 329.913 457.784 333.907C457.784 337.9 455.222 341.743 450.4 344.606L226.319 474.805C221.12 477.819 214.113 479.175 207.257 478.873C202.133 478.647 197.236 477.442 193.242 475.332C192.866 475.181 189.023 472.996 188.721 472.846L100.566 421.987C95.5933 419.124 93.0315 415.206 93.0315 411.288C93.0315 407.294 95.5933 403.452 100.415 400.588L324.496 270.314Z" fill="#B2D3E8"/>
<path opacity="0.8571" d="M324.271 270.917C329.395 267.903 336.402 266.547 343.183 266.924C348.231 267.15 353.129 268.355 357.122 270.465C357.423 270.616 361.341 272.801 361.568 272.952L449.045 323.434C453.942 326.221 456.429 330.064 456.429 333.982C456.429 337.825 453.942 341.668 449.12 344.455L226.471 473.825C221.348 476.839 214.341 478.195 207.484 477.819C202.436 477.593 197.538 476.387 193.545 474.277C193.244 474.127 189.325 471.942 189.099 471.791L101.622 421.309C96.7247 418.521 94.2383 414.678 94.2383 410.76C94.2383 406.842 96.7247 403.075 101.547 400.287L324.271 270.917Z" fill="#B0D2E7"/>
<path opacity="0.875" d="M324.044 271.595C329.167 268.657 336.099 267.301 342.88 267.677C347.929 267.979 352.751 269.109 356.669 271.219C356.97 271.294 360.888 273.554 361.114 273.705L447.913 323.81C452.735 326.598 455.222 330.366 455.222 334.133C455.222 337.9 452.811 341.668 448.064 344.38L226.771 472.996C221.648 475.935 214.716 477.291 207.935 476.915C202.887 476.613 198.064 475.483 194.146 473.373C193.845 473.298 189.927 471.037 189.701 470.887L102.902 420.781C98.0797 417.994 95.5933 414.226 95.5933 410.459C95.5933 406.692 98.0043 402.924 102.751 400.212L324.044 271.595Z" fill="#AFD1E7"/>
<path opacity="0.8929" d="M323.818 272.198C328.866 269.259 335.798 267.903 342.504 268.28C347.476 268.581 352.299 269.787 356.217 271.897C356.443 271.972 360.436 274.232 360.587 274.383L446.783 324.112C451.53 326.824 453.941 330.516 453.941 334.283C453.941 337.975 451.53 341.667 446.858 344.38L227.073 472.092C222.025 475.031 215.093 476.387 208.387 476.01C203.414 475.709 198.592 474.503 194.674 472.394C194.448 472.318 190.454 470.058 190.304 469.907L104.107 420.178C99.3605 417.466 96.9495 413.774 96.9495 410.007C96.9495 406.315 99.3606 402.623 104.032 399.91L323.818 272.198Z" fill="#ADD0E6"/>
<path opacity="0.9107" d="M323.669 272.801C328.717 269.862 335.574 268.582 342.204 268.958C347.177 269.26 351.924 270.465 355.766 272.575C355.992 272.65 359.986 274.911 360.136 275.061L445.655 324.413C450.326 327.126 452.662 330.742 452.662 334.359C452.662 337.976 450.326 341.592 445.73 344.229L227.376 471.113C222.328 474.051 215.471 475.332 208.841 474.955C203.868 474.654 199.121 473.449 195.278 471.339C195.052 471.264 191.059 469.003 190.908 468.852L105.39 419.5C100.719 416.788 98.3828 413.247 98.3828 409.555C98.3828 405.938 100.719 402.322 105.315 399.684L323.669 272.801Z" fill="#ABCFE6"/>
<path opacity="0.9286" d="M323.441 273.479C328.414 270.541 335.27 269.26 341.826 269.636C346.723 269.938 351.47 271.143 355.312 273.253C355.463 273.328 359.457 275.589 359.607 275.664L444.447 324.639C449.044 327.277 451.379 330.818 451.379 334.359C451.379 337.9 449.119 341.442 444.598 344.079L227.676 470.133C222.703 473.072 215.846 474.353 209.291 473.976C204.394 473.675 199.647 472.469 195.804 470.36C195.653 470.284 191.66 468.024 191.509 467.948L106.669 418.973C102.073 416.336 99.7373 412.795 99.7373 409.254C99.7373 405.712 101.998 402.171 106.518 399.534L323.441 273.479Z" fill="#AACEE5"/>
<path opacity="0.9464" d="M323.216 274.082C328.189 271.218 334.895 269.938 341.45 270.314C346.348 270.616 351.019 271.821 354.786 273.931C354.937 274.006 358.93 276.267 359.081 276.342L443.243 324.941C447.764 327.502 450.024 330.968 450.024 334.51C450.024 337.975 447.764 341.441 443.319 344.003L227.828 469.304C222.855 472.167 216.149 473.448 209.594 473.072C204.696 472.77 200.025 471.565 196.257 469.455C196.107 469.38 192.113 467.119 191.963 467.044L107.801 418.445C103.28 415.884 101.02 412.418 101.02 408.876C101.02 405.411 103.28 401.945 107.725 399.383L323.216 274.082Z" fill="#A8CDE5"/>
<path opacity="0.9643" d="M322.991 274.76C327.888 271.897 334.594 270.691 341.074 271.068C345.896 271.37 350.567 272.575 354.335 274.685C354.41 274.685 358.479 277.096 358.554 277.096L442.113 325.318C446.559 327.879 448.744 331.27 448.819 334.661C448.819 338.051 446.634 341.442 442.264 343.928L228.129 468.325C223.232 471.188 216.526 472.394 210.046 472.017C205.224 471.716 200.553 470.51 196.785 468.401C196.71 468.401 192.641 465.989 192.566 465.989L109.007 417.768C104.561 415.206 102.376 411.815 102.301 408.425C102.301 405.034 104.486 401.644 108.856 399.157L322.991 274.76Z" fill="#A6CCE4"/>
<path opacity="0.9821" d="M322.763 275.363C327.66 272.499 334.291 271.294 340.695 271.671C345.518 271.972 350.114 273.178 353.806 275.287C353.881 275.287 357.95 277.698 358.025 277.698L440.906 325.543C445.276 328.03 447.461 331.345 447.461 334.736C447.461 338.051 445.276 341.366 440.982 343.853L228.278 467.421C223.381 470.284 216.75 471.489 210.271 471.113C205.448 470.811 200.852 469.606 197.16 467.496C197.085 467.496 193.016 465.085 192.941 465.085L110.06 417.24C105.69 414.754 103.505 411.438 103.505 408.048C103.505 404.733 105.69 401.417 109.984 398.931L322.763 275.363Z" fill="#A5CBE4"/>
<path d="M439.776 325.845C448.29 330.743 448.366 338.805 439.851 343.702L228.58 466.441C220.141 471.339 206.277 471.339 197.763 466.441L111.416 416.562C102.902 411.665 102.827 403.603 111.341 398.705L322.612 275.966C331.051 271.068 344.915 271.068 353.429 275.966L439.776 325.845Z" fill="#A3CAE3"/>
<path d="M511.205 305.502L210.724 480.079C199.497 486.635 181.263 486.635 169.961 480.079L40.1392 405.11C34.4882 401.794 31.625 397.5 31.625 393.205V395.691C31.625 399.986 34.4882 404.281 40.1392 407.596L169.961 482.566C181.263 489.121 199.497 489.121 210.724 482.566L511.205 307.988C516.781 304.748 519.569 300.529 519.569 296.234V293.748C519.569 297.967 516.781 302.262 511.205 305.502Z" fill="url(#paint0_linear)"/>
<path d="M511.056 281.843C522.358 288.398 522.434 298.946 511.207 305.501L210.725 480.079C199.499 486.634 181.265 486.634 169.963 480.079L40.141 405.109C28.839 398.554 28.7636 388.006 39.9903 381.451L340.472 206.873C351.699 200.318 369.932 200.318 381.234 206.873L511.056 281.843Z" fill="url(#paint1_linear)"/>
<path d="M428.552 257.506C429.984 258.335 429.984 259.691 428.552 260.52C427.422 261.198 425.689 261.273 424.257 260.896L378.823 287.343H256.235V286.062H377.844L422.675 259.992C421.922 259.163 422.148 258.184 423.278 257.506C424.86 256.677 427.12 256.677 428.552 257.506Z" fill="url(#paint2_linear)"/>
<path d="M405.044 261.273C406.475 262.102 406.475 263.458 405.044 264.287C403.763 265.04 401.804 265.116 400.372 264.513L376.789 278.226H305.285V276.945H375.885L399.016 263.533C398.564 262.78 398.79 261.876 399.845 261.273C401.277 260.444 403.612 260.444 405.044 261.273Z" fill="url(#paint3_linear)"/>
<path d="M366.919 326.975C368.35 327.804 368.35 329.16 366.919 329.989C365.788 330.667 364.056 330.742 362.624 330.366L317.19 356.812H194.601V355.531H316.211L361.042 329.462C360.288 328.633 360.514 327.653 361.644 326.975C363.151 326.146 365.487 326.146 366.919 326.975Z" fill="url(#paint4_linear)"/>
<path d="M343.411 330.743C344.842 331.572 344.842 332.928 343.411 333.757C342.13 334.51 340.171 334.585 338.739 333.983L315.156 347.696H243.652V346.415H314.251L337.383 333.003C336.931 332.25 337.157 331.345 338.212 330.743C339.643 329.914 341.979 329.914 343.411 330.743Z" fill="url(#paint5_linear)"/>
<path d="M49.1071 388.986C47.4495 388.006 44.737 388.006 43.0794 388.986C41.4218 389.965 41.4218 391.472 43.0794 392.452C44.737 393.431 47.4495 393.431 49.0318 392.452C50.7648 391.472 50.7647 389.965 49.1071 388.986Z" fill="url(#paint6_linear)"/>
<path d="M194.904 469.304C193.246 468.325 190.534 468.325 188.876 469.304C187.218 470.284 187.218 471.791 188.876 472.77C190.534 473.75 193.246 473.75 194.828 472.77C196.561 471.866 196.561 470.284 194.904 469.304Z" fill="url(#paint7_linear)"/>
<path d="M508.044 291.713C506.387 290.734 503.674 290.734 502.017 291.713C500.359 292.693 500.359 294.2 502.017 295.179C503.674 296.159 506.387 296.159 507.969 295.179C509.777 294.2 509.777 292.693 508.044 291.713Z" fill="url(#paint8_linear)"/>
<path d="M203.189 413.548L165.214 435.624C163.933 436.378 161.824 436.378 160.543 435.624L64.7022 380.32C64.024 379.943 63.7227 379.416 63.7227 378.964V383.259C63.7227 383.786 64.024 384.238 64.7022 384.615L160.543 439.919C161.824 440.673 163.933 440.673 165.214 439.919L203.189 417.843C203.792 417.466 204.168 417.014 204.168 416.486V412.192C204.093 412.644 203.792 413.171 203.189 413.548Z" fill="url(#paint9_linear)"/>
<path d="M203.115 410.835C204.396 411.589 204.396 412.794 203.115 413.548L165.141 435.624C163.86 436.378 161.75 436.378 160.469 435.624L64.6286 380.32C63.3477 379.566 63.3477 378.361 64.6286 377.607L102.603 355.531C103.884 354.777 105.994 354.777 107.275 355.531L203.115 410.835Z" fill="url(#paint10_linear)"/>
<path d="M75.5553 376.402C76.9116 377.155 76.9116 378.436 75.5553 379.265C74.1991 380.094 72.014 380.019 70.6578 379.265C69.3016 378.512 69.3016 377.231 70.6578 376.402C72.014 375.573 74.1991 375.573 75.5553 376.402Z" fill="url(#paint11_linear)"/>
<path d="M166.348 428.768C167.705 429.521 167.705 430.802 166.348 431.631C164.992 432.384 162.807 432.384 161.451 431.631C160.095 430.877 160.095 429.596 161.451 428.768C162.807 427.939 164.992 427.939 166.348 428.768Z" fill="url(#paint12_linear)"/>
<path d="M491.92 258.033V262.327L375.961 329.763V325.392L491.92 258.033Z" fill="url(#paint13_linear)"/>
<path d="M375.96 325.393V329.763L348.911 314.091V309.796L375.96 325.393Z" fill="url(#paint14_linear)"/>
<path d="M491.918 258.033L375.96 325.392L348.911 309.796L464.869 242.436L491.918 258.033Z" fill="url(#paint15_linear)"/>
<path d="M360.665 308.364C362.021 309.117 362.021 310.398 360.665 311.227C359.308 312.056 357.123 311.981 355.767 311.227C354.411 310.474 354.411 309.193 355.767 308.364C357.048 307.61 359.308 307.61 360.665 308.364Z" fill="url(#paint16_linear)"/>
<path d="M378.372 318.385C379.728 319.139 379.728 320.42 378.372 321.248C377.016 322.002 374.831 322.002 373.475 321.248C372.118 320.495 372.118 319.214 373.475 318.385C374.831 317.556 377.016 317.556 378.372 318.385Z" fill="url(#paint17_linear)"/>
<path d="M466.15 247.108C467.506 247.861 467.506 249.142 466.15 249.971C464.794 250.724 462.609 250.724 461.253 249.971C459.896 249.217 459.896 247.936 461.253 247.108C462.609 246.354 464.794 246.354 466.15 247.108Z" fill="url(#paint18_linear)"/>
<path d="M483.932 257.053C485.288 257.807 485.288 259.088 483.932 259.917C482.576 260.745 480.391 260.67 479.034 259.917C477.678 259.163 477.678 257.882 479.034 257.053C480.391 256.3 482.576 256.3 483.932 257.053Z" fill="url(#paint19_linear)"/>
<path d="M95.8987 385.519C94.8439 384.916 94.3164 384.087 94.3164 383.334V387.629C94.3164 388.458 94.8439 389.211 95.8987 389.814L104.79 394.937V390.643L95.8987 385.519Z" fill="url(#paint20_linear)"/>
<path d="M171.473 402.698L152.41 413.774C150.3 414.979 146.985 414.979 144.875 413.774L135.984 408.65V412.945L144.875 418.068C146.985 419.274 150.3 419.274 152.41 418.068L171.473 406.993C172.527 406.39 173.055 405.636 173.055 404.807V400.513C173.055 401.342 172.527 402.095 171.473 402.698Z" fill="url(#paint21_linear)"/>
<path d="M122.647 416.411L91.4531 398.403V402.698L122.647 420.706L135.983 413.021V408.65L122.647 416.411Z" fill="url(#paint22_linear)"/>
<path d="M171.471 398.403C173.581 399.609 173.581 401.568 171.471 402.773L152.408 413.849C150.299 415.055 146.983 415.055 144.874 413.849L135.983 408.726L122.647 416.487L91.4531 398.403L104.789 390.643L95.8986 385.519C93.7889 384.314 93.7889 382.355 95.8986 381.149L114.961 370.073C117.071 368.868 120.386 368.868 122.496 370.073L171.471 398.403Z" fill="#A1DAFF"/>
<path d="M122.118 372.484C123.474 373.238 123.474 374.518 122.118 375.347C120.762 376.176 118.577 376.101 117.22 375.347C115.864 374.594 115.864 373.313 117.22 372.484C118.501 371.731 120.762 371.731 122.118 372.484Z" fill="url(#paint23_linear)"/>
<path d="M165.52 397.423C166.876 398.177 166.876 399.458 165.52 400.287C164.164 401.04 161.979 401.04 160.623 400.287C159.266 399.533 159.266 398.252 160.623 397.423C161.904 396.67 164.164 396.67 165.52 397.423Z" fill="url(#paint24_linear)"/>
<path d="M391.709 265.567L196.26 379.114C192.192 381.45 185.712 381.45 181.643 379.114L103.132 333.831C101.098 332.626 100.043 331.119 100.043 329.536V337.9C100.043 339.407 101.022 340.989 103.132 342.195L181.643 387.478C185.712 389.814 192.267 389.814 196.26 387.478L391.709 273.855C393.743 272.725 394.723 271.143 394.723 269.636V261.272C394.723 262.855 393.743 264.362 391.709 265.567Z" fill="url(#paint25_linear)"/>
<path d="M391.708 257.053C395.777 259.389 395.777 263.156 391.784 265.567L196.26 379.115C192.191 381.45 185.711 381.45 181.642 379.115L103.131 333.831C99.0626 331.496 99.0626 327.728 103.056 325.317L298.505 211.695C302.573 209.359 309.129 209.359 313.122 211.695L391.708 257.053Z" fill="url(#paint26_linear)"/>
<path d="M302.425 257.354C301.822 257.053 301.144 256.902 300.391 256.902C299.637 256.902 298.959 257.128 298.432 257.505L288.712 264.136C288.034 264.588 288.034 265.04 288.712 265.416C289.315 265.793 290.068 265.793 290.822 265.416L302.124 259.766C302.802 259.464 303.103 259.087 303.178 258.635C303.254 258.108 303.028 257.656 302.425 257.354Z" fill="url(#paint27_linear)"/>
<path d="M286.525 266.849L286.149 266.622C285.621 266.321 285.018 266.17 284.416 266.17C283.813 266.17 283.21 266.321 282.683 266.622L282.231 266.924C281.703 267.225 281.402 267.602 281.402 267.903C281.402 268.28 281.703 268.581 282.231 268.883L282.607 269.109C283.135 269.41 283.738 269.561 284.34 269.561C284.943 269.561 285.471 269.41 286.073 269.109L286.525 268.808C287.053 268.506 287.354 268.129 287.354 267.828C287.354 267.451 287.128 267.15 286.525 266.849Z" fill="url(#paint28_linear)"/>
<path d="M312.972 251.252C311.314 250.272 308.903 249.895 306.643 250.272L262.867 257.053C260.606 257.43 258.873 258.41 258.27 259.766C257.668 261.122 258.27 262.478 260.003 263.458L292.176 282.068C293.834 283.048 296.245 283.425 298.505 283.048C300.766 282.671 302.499 281.692 303.102 280.335L314.705 254.944C315.308 253.587 314.63 252.231 312.972 251.252ZM311.842 254.492L300.238 279.883C299.937 280.637 298.957 281.164 297.677 281.39C296.396 281.616 295.115 281.39 294.135 280.863L261.962 262.252C261.058 261.725 260.682 260.971 260.983 260.218C261.284 259.464 262.264 258.937 263.545 258.711L307.321 251.93C308.602 251.704 309.883 251.93 310.862 252.457C311.842 252.985 312.219 253.738 311.842 254.492Z" fill="url(#paint29_linear)"/>
<path d="M264.298 298.87L256.462 294.35L260.908 291.788C261.511 291.411 261.511 290.808 260.908 290.507L249.681 284.027C249.078 283.65 248.024 283.65 247.421 284.027L242.975 286.589L235.139 282.068C234.537 281.691 233.482 281.691 232.879 282.068L171.999 317.481C171.396 317.858 171.396 318.461 171.999 318.762L201.233 335.64C201.836 336.016 202.891 336.016 203.494 335.64L264.374 300.227C264.901 299.85 264.901 299.247 264.298 298.87ZM202.288 333.605L175.314 318.084L233.934 284.027L241.77 288.548C242.373 288.925 243.427 288.925 244.03 288.548L248.476 285.986L257.442 291.185L252.996 293.747C252.394 294.124 252.394 294.726 252.996 295.028L260.832 299.549L202.288 333.605Z" fill="url(#paint30_linear)"/>
<path d="M209.446 304.371L219.316 310.097L204.473 313.789L228.81 311.981L218.186 305.803L231.447 301.508L209.446 304.371Z" fill="url(#paint31_linear)"/>
<path d="M371.513 302.035V306.33L299.406 348.223V343.928L371.513 302.035Z" fill="url(#paint32_linear)"/>
<path d="M248.623 402.095V406.465L215.621 387.402V383.032L248.623 402.095Z" fill="url(#paint33_linear)"/>
<path d="M299.631 372.484L299.555 376.854L248.621 406.465V402.095L299.631 372.484Z" fill="url(#paint34_linear)"/>
<path d="M371.513 302.035L299.406 343.928L299.632 372.484L248.623 402.095L223.834 387.855L215.621 383.032L299.406 334.359L363.225 297.288L371.513 302.035Z" fill="#A1DAFF"/>
<path d="M228.805 381.601C230.162 382.354 230.162 383.635 228.805 384.464C227.449 385.217 225.264 385.217 223.908 384.464C222.552 383.71 222.552 382.43 223.908 381.601C225.264 380.847 227.449 380.847 228.805 381.601Z" fill="url(#paint35_linear)"/>
<path d="M251.036 394.937C252.392 395.691 252.392 396.972 251.036 397.8C249.68 398.554 247.495 398.554 246.138 397.8C244.782 397.047 244.782 395.766 246.138 394.937C247.495 394.184 249.68 394.184 251.036 394.937Z" fill="url(#paint36_linear)"/>
<path d="M365.787 300.604C367.143 301.357 367.143 302.638 365.787 303.467C364.431 304.22 362.245 304.22 360.889 303.467C359.533 302.713 359.533 301.432 360.889 300.604C362.245 299.775 364.431 299.775 365.787 300.604Z" fill="url(#paint37_linear)"/>
<path d="M447.085 233.621V237.991L412.2 258.259V253.889L447.085 233.621Z" fill="url(#paint38_linear)"/>
<path d="M412.2 253.889V258.259L320.805 205.441V201.146L412.2 253.889Z" fill="url(#paint39_linear)"/>
<path d="M447.085 233.62L412.2 253.889L320.805 201.146L355.615 180.878L447.085 233.62Z" fill="url(#paint40_linear)"/>
<path d="M358.024 185.549C359.38 186.303 359.38 187.584 358.024 188.413C356.668 189.166 354.483 189.166 353.127 188.413C351.77 187.659 351.77 186.378 353.127 185.549C354.483 184.796 356.668 184.796 358.024 185.549Z" fill="url(#paint41_linear)"/>
<path d="M333.762 199.714C335.119 200.468 335.119 201.749 333.762 202.578C332.406 203.331 330.221 203.331 328.865 202.578C327.509 201.824 327.509 200.543 328.865 199.714C330.221 198.886 332.406 198.886 333.762 199.714Z" fill="url(#paint42_linear)"/>
<path d="M414.688 246.354C416.044 247.108 416.044 248.389 414.688 249.217C413.332 249.971 411.147 249.971 409.791 249.217C408.434 248.464 408.434 247.183 409.791 246.354C411.072 245.601 413.332 245.601 414.688 246.354Z" fill="url(#paint43_linear)"/>
<path d="M438.946 232.264C440.302 233.018 440.302 234.299 438.946 235.127C437.59 235.881 435.405 235.881 434.048 235.127C432.692 234.374 432.692 233.093 434.048 232.264C435.405 231.435 437.59 231.435 438.946 232.264Z" fill="url(#paint44_linear)"/>
<path d="M403.31 217.421L384.021 228.572L364.582 217.421L383.871 206.194L403.31 217.421Z" fill="#A1DAFF"/>
<path d="M508.869 240.929L379.047 165.96C367.971 159.555 350.039 159.555 338.963 165.96L38.5567 340.537C33.0564 343.702 30.344 347.846 30.344 352.065V364.573C30.344 360.429 33.0564 356.209 38.5567 353.045L339.038 178.467C350.039 172.063 368.047 172.063 379.123 178.467L508.945 253.437C514.52 256.677 517.308 260.896 517.308 265.116V252.608C517.233 248.313 514.445 244.094 508.869 240.929Z" fill="url(#paint45_linear)"/>
<path d="M509.623 240.477L379.801 165.508C368.348 158.877 349.662 158.877 338.285 165.508L37.8033 340.085C26.426 346.716 26.426 357.49 37.954 364.121L167.776 439.091C179.229 445.721 197.839 445.721 209.292 439.091L509.774 264.513C521.151 257.882 521.076 247.108 509.623 240.477ZM509.02 264.061L208.538 438.714C197.538 445.118 179.53 445.118 168.454 438.714L38.6321 363.744C27.5562 357.34 27.4809 346.942 38.4814 340.537L338.963 165.96C349.964 159.555 367.971 159.555 379.047 165.96L508.869 240.929C519.945 247.258 520.021 257.732 509.02 264.061Z" fill="#EEF8FF"/>
<path d="M509.698 264.513L209.292 439.09C197.914 445.721 179.304 445.721 167.776 439.09L37.9539 364.121C32.1522 360.805 29.2891 356.36 29.2891 351.99V364.497C29.2891 368.868 32.1522 373.238 37.9539 376.628L167.776 451.598C179.229 458.228 197.839 458.228 209.292 451.598L509.773 277.02C515.424 273.705 518.288 269.41 518.288 265.115V252.608C518.212 256.903 515.424 261.197 509.698 264.513ZM112.095 417.24L93.1075 406.315C91.1485 405.185 89.5662 402.472 89.5662 400.212C89.5662 397.951 91.1485 397.047 93.1075 398.177L112.095 409.103C114.054 410.233 115.636 412.945 115.636 415.206C115.636 417.466 114.054 418.37 112.095 417.24ZM129.274 427.487C127.239 426.282 125.582 423.418 125.582 421.083C125.582 418.747 127.239 417.767 129.274 418.973C131.308 420.178 132.966 423.042 132.966 425.377C132.966 427.713 131.308 428.693 129.274 427.487ZM410.316 332.098C408.432 333.153 406.926 332.324 406.926 330.215C406.926 328.105 408.432 325.468 410.241 324.413C412.124 323.358 413.631 324.187 413.631 326.297C413.631 328.482 412.124 331.044 410.316 332.098ZM449.496 309.419L424.481 323.886C422.899 324.79 421.693 324.036 421.693 322.303C421.693 320.495 422.974 318.31 424.481 317.406L449.496 302.939C451.079 302.035 452.284 302.789 452.284 304.522C452.284 306.33 451.003 308.515 449.496 309.419Z" fill="#EEF8FF"/>
<path d="M467.657 313.413C467.129 313.111 466.376 313.111 465.547 313.639L439.251 328.783C437.593 329.687 436.312 332.023 436.312 333.907C436.312 334.811 436.614 335.489 437.141 335.791L439.326 337.071C438.799 336.77 438.498 336.092 438.498 335.188C438.498 333.304 439.778 331.044 441.436 330.064L467.732 314.92C468.561 314.467 469.314 314.392 469.842 314.694L467.657 313.413Z" fill="#A1DAFF"/>
<path d="M467.657 314.92C469.314 314.016 470.595 314.769 470.595 316.577C470.595 318.461 469.314 320.721 467.657 321.701L441.361 336.846C439.703 337.75 438.422 336.996 438.422 335.188C438.422 333.304 439.703 331.044 441.361 330.064L467.657 314.92Z" fill="#EEF8FF"/>
<path d="M426.29 335.791C425.611 335.414 424.707 335.489 423.652 336.017C421.618 337.222 419.96 340.085 419.96 342.421C419.96 343.551 420.413 344.38 421.015 344.832L423.2 346.113C422.522 345.736 422.146 344.908 422.146 343.702C422.146 341.366 423.803 338.503 425.838 337.298C426.892 336.695 427.797 336.619 428.475 337.071L426.29 335.791Z" fill="#A1DAFF"/>
<path d="M425.836 337.373C427.87 336.167 429.528 337.147 429.528 339.482C429.528 341.818 427.87 344.681 425.836 345.887C423.802 347.092 422.144 346.113 422.144 343.777C422.144 341.366 423.802 338.503 425.836 337.373Z" fill="#EEF8FF"/>
<path d="M189.556 377.156L189.48 390.643C189.48 391.02 189.707 391.321 190.159 391.622C191.063 392.15 192.57 392.15 193.474 391.622C193.926 391.396 194.152 391.02 194.152 390.643L194.227 377.156H189.556Z" fill="url(#paint46_linear)"/>
<path d="M195.204 380.772C193.396 381.827 190.458 381.827 188.649 380.772C187.745 380.245 187.293 379.567 187.293 378.813V381.074C187.293 381.752 187.745 382.43 188.649 383.033C190.458 384.088 193.396 384.088 195.204 383.033C196.109 382.505 196.561 381.827 196.561 381.149V378.889C196.561 379.567 196.109 380.245 195.204 380.772Z" fill="url(#paint47_linear)"/>
<path d="M195.205 376.93C193.397 375.875 190.459 375.875 188.575 376.93C186.767 377.985 186.767 379.718 188.575 380.772C190.383 381.827 193.322 381.827 195.13 380.772C197.014 379.718 197.014 377.985 195.205 376.93Z" fill="#EEF8FF"/>
<path d="M91.7531 419.5C93.034 420.254 93.034 421.384 91.7531 422.137L90.3969 422.966L72.5398 412.644L73.896 411.815C75.1769 411.061 77.2112 411.061 78.4921 411.815L91.7531 419.5Z" fill="#E8F4FC"/>
<path d="M81.5059 431.104C75.1768 434.796 64.9297 434.796 58.5253 431.104C55.3607 429.22 53.7031 426.809 53.7031 424.398V430.651C53.7031 433.063 55.2854 435.474 58.5253 437.357C64.8544 441.049 75.1768 441.049 81.5059 437.357L92.9586 430.727V424.473L81.5059 431.104Z" fill="#A1DAFF"/>
<path d="M92.9602 424.473L81.5075 431.104C75.1784 434.796 64.9313 434.796 58.5268 431.104C52.1977 427.412 52.1224 421.459 58.4515 417.767L69.9042 411.137L72.5413 412.644L90.3984 422.966L92.9602 424.473Z" fill="#E8F4FC"/>
<path d="M83.3131 414.603L79.6211 416.788L81.7308 417.918L85.3475 415.808L83.3131 414.603Z" fill="url(#paint48_linear)"/>
<path d="M86.7818 416.637L83.0898 418.746L85.1995 419.952L88.8162 417.842L86.7818 416.637Z" fill="url(#paint49_linear)"/>
<path d="M79.8482 412.644L76.1562 414.753L78.2659 415.959L81.8826 413.774L79.8482 412.644Z" fill="url(#paint50_linear)"/>
<path d="M44.9643 510.745C43.608 510.745 42.3272 510.067 41.649 508.786C40.5942 506.902 41.2723 504.566 43.0806 503.587L64.7804 491.306C65.2324 491.079 65.3078 490.627 65.3078 490.401C65.3078 490.1 65.2324 489.723 64.7804 489.422L24.3194 466.064C21.6069 464.482 19.9492 461.694 19.9492 458.53C19.9492 455.365 21.5315 452.577 24.244 450.92L55.8895 432.234C57.6978 431.179 60.1089 431.782 61.1637 433.59C62.2186 435.398 61.6158 437.81 59.8075 438.864L28.162 457.55C27.7099 457.776 27.6346 458.228 27.6346 458.454C27.6346 458.756 27.7099 459.133 28.162 459.359L68.6231 482.716C71.4109 484.298 72.9932 487.161 72.9932 490.326C72.9932 493.491 71.3355 496.354 68.5477 497.936L46.8479 510.217C46.2451 510.594 45.567 510.745 44.9643 510.745Z" fill="#A1DAFF"/>
<path d="M114.884 436.001C114.884 435.248 114.357 434.344 113.754 433.967C113.452 433.816 113.151 433.741 112.925 433.891L111.041 435.022C110.815 434.871 110.589 434.645 110.439 434.57C109.761 434.193 109.158 434.118 108.706 434.419L105.39 436.303C105.014 436.001 104.637 435.7 104.26 435.474C102.979 434.72 101.774 434.645 100.945 435.172L77.5122 448.81C76.6834 449.262 76.156 450.317 76.156 451.824C76.156 452.803 76.382 453.934 76.8341 454.988L1.63829 498.689C0.884829 499.141 0.658781 500.046 1.11086 500.799C1.41225 501.327 1.93971 501.553 2.46713 501.553C2.69317 501.553 2.99456 501.477 3.2206 501.327L78.4164 457.626C79.0945 458.53 79.9986 459.359 80.9028 459.886C82.1837 460.639 83.3892 460.715 84.2181 460.187L107.651 446.55C108.48 446.098 109.007 445.043 109.007 443.536C109.007 443.084 108.932 442.707 108.856 442.255L112.172 440.296C112.624 440.07 112.85 439.467 112.85 438.714C112.85 438.412 112.774 438.111 112.699 437.809L114.583 436.755C114.733 436.604 114.884 436.378 114.884 436.001Z" fill="#E8F4FC"/>
<g opacity="0.72">
<path opacity="0.72" d="M508.114 147.725C519.416 154.28 519.492 164.828 508.265 171.308L207.859 345.886C196.632 352.441 178.398 352.441 167.096 345.886L37.1991 270.992C25.8971 264.437 25.8218 253.888 37.0484 247.408L337.53 72.8304C348.757 66.2753 366.991 66.2753 378.292 72.8304L508.114 147.725Z" fill="url(#paint51_linear)"/>
</g>
<path d="M37.0484 247.333C25.8218 253.888 25.8971 264.437 37.1991 270.917L167.021 345.887C178.323 352.442 196.557 352.442 207.783 345.887L222.325 337.448L51.6656 238.895L37.0484 247.333Z" fill="#DBF1FF"/>
<path d="M508.115 147.725L378.293 72.7557C367.895 66.728 351.695 66.276 340.393 71.3242L510.752 169.651C519.416 163.096 518.512 153.678 508.115 147.725ZM363.449 76.8245C361.566 77.9547 358.401 77.9547 356.517 76.8245C354.558 75.6943 354.558 73.8859 356.517 72.8311C358.401 71.7009 361.566 71.7009 363.449 72.8311C365.333 73.8859 365.333 75.6943 363.449 76.8245Z" fill="#DBF1FF"/>
<g opacity="0.39">
<path opacity="0.39" d="M508.115 133.409C519.417 139.964 519.492 150.513 508.266 156.992L207.859 331.645C196.633 338.201 178.399 338.201 167.097 331.645L37.1996 256.676C25.8976 250.121 25.8222 239.572 37.0489 233.092L337.531 58.5145C348.757 51.9594 366.991 51.9594 378.293 58.5145L508.115 133.409Z" fill="#EEF8FF"/>
</g>
<path d="M156.02 164V325.317L167.095 331.721C178.397 338.276 196.631 338.276 207.858 331.721L264.443 298.87V100.935L156.02 164Z" fill="url(#paint52_linear)"/>
<path d="M378.293 58.4399C371.889 54.7479 363.299 53.1656 355.011 53.6177V246.053L395.246 222.695V68.2349L378.293 58.4399Z" fill="url(#paint53_linear)"/>
<path d="M281.397 91.0646V288.924L328.564 261.498V63.7139L281.397 91.0646Z" fill="url(#paint54_linear)"/>
<path d="M363.448 62.5841C365.407 63.7143 365.407 65.5226 363.448 66.5775C361.564 67.7077 358.4 67.7077 356.516 66.5775C354.557 65.4473 354.557 63.639 356.516 62.5841C358.4 61.5293 361.489 61.5293 363.448 62.5841ZM359.153 63.4129C359.756 63.7897 360.735 63.7897 361.263 63.4129C361.866 63.0362 361.866 62.5088 361.263 62.2074C360.66 61.8306 359.681 61.8306 359.153 62.2074C358.55 62.5088 358.55 63.1115 359.153 63.4129Z" fill="url(#paint55_linear)"/>
<path d="M361.34 62.2074C361.943 62.5841 361.943 63.1115 361.34 63.4129C360.737 63.7896 359.758 63.7896 359.23 63.4129C358.627 63.0362 358.627 62.5087 359.23 62.2074C359.758 61.8306 360.737 61.8306 361.34 62.2074Z" fill="#EEF8FF"/>
<path d="M364.73 61.8304C367.368 63.3373 367.368 65.8238 364.73 67.406C362.093 68.913 357.799 68.913 355.161 67.406C352.524 65.8991 352.524 63.4127 355.161 61.8304C357.799 60.3235 362.093 60.3235 364.73 61.8304ZM356.518 66.6526C358.477 67.7828 361.566 67.7828 363.45 66.6526C365.333 65.5224 365.333 63.7141 363.45 62.6592C361.491 61.529 358.401 61.529 356.518 62.6592C354.559 63.7141 354.559 65.5224 356.518 66.6526Z" fill="#EEF8FF"/>
<path d="M187.442 338.051C179.756 338.051 172.071 336.393 166.269 333.003L36.4473 258.033C30.4949 254.567 27.1797 249.895 27.1797 244.847C27.1797 239.799 30.4196 235.203 36.2966 231.737L336.778 57.1591C348.382 50.3779 367.369 50.3779 379.123 57.1591L508.945 132.129C514.897 135.595 518.213 140.266 518.213 145.314C518.213 150.363 514.973 154.959 509.096 158.425L208.614 333.003C202.812 336.393 195.127 338.051 187.442 338.051ZM357.875 55.1248C350.793 55.1248 343.71 56.707 338.285 59.7963L37.8789 234.374C32.9814 237.237 30.2689 240.929 30.2689 244.772C30.2689 248.69 33.0567 252.382 38.0296 255.32L167.852 330.29C178.701 336.544 196.333 336.544 207.107 330.29L507.589 155.712C512.486 152.849 515.199 149.157 515.199 145.314C515.199 141.396 512.411 137.704 507.438 134.766L377.616 59.7963C372.116 56.707 364.958 55.1248 357.875 55.1248Z" fill="#EEF8FF"/>
<path d="M64.704 272.801L62.8203 271.218L101.096 225.709L87.76 203.632L89.8697 202.352L104.11 225.935L64.704 272.801Z" fill="#EEF8FF"/>
<path d="M135.082 175.409L96.7468 216.72L98.5694 218.411L136.905 177.1L135.082 175.409Z" fill="#EEF8FF"/>
<path d="M137.488 316.652L171.846 209.886L172.148 209.058H173.052L229.863 208.153L228.658 209.284L232.123 177.939L231.069 209.51V210.64H229.863L173.052 211.469L174.257 210.64L139.824 317.406L137.488 316.652Z" fill="#EEF8FF"/>
<path d="M155.65 267.315L153.344 268.245L180.297 335.123L182.603 334.194L155.65 267.315Z" fill="#EEF8FF"/>
<path d="M232.726 121.505L232.5 130.999C232.877 115.251 219.089 99.5793 194.149 90.6884C157.531 77.7288 110.439 84.3593 89.2666 105.532C82.4855 112.313 79.1702 119.772 79.0195 127.156L79.2456 117.662C79.3963 110.203 82.7115 102.744 89.4927 96.038C110.665 74.8657 157.681 68.2352 194.375 81.1948C219.239 90.0103 233.028 105.682 232.726 121.505Z" fill="url(#paint56_linear)"/>
<path d="M238.526 121.656L238.3 131.15C238.074 139.136 234.533 147.123 227.224 154.432C204.47 177.186 153.837 184.344 114.355 170.405C87.5322 160.912 72.6889 144.034 73.0656 127.081L73.2917 117.587C72.9149 134.54 87.7582 151.418 114.582 160.912C154.063 174.851 204.621 167.693 227.451 144.938C234.759 137.63 238.376 129.643 238.526 121.656Z" fill="url(#paint57_linear)"/>
<path d="M338.585 141.924C338.661 141.924 338.661 141.924 338.585 141.924L237.621 126.252C237.244 126.177 236.717 126.704 236.19 127.91C234.833 130.924 233.778 136.876 233.703 141.171C233.703 143.733 234.08 145.164 234.607 145.315L335.647 160.987C336.024 161.062 336.551 160.535 337.078 159.329C338.435 156.315 339.49 150.363 339.565 146.068C339.64 143.431 339.188 142 338.585 141.924Z" fill="url(#paint58_linear)"/>
<path d="M197.236 78.2564C157.755 64.3173 107.197 71.4752 84.3674 94.2298C61.6128 116.984 75.1752 146.897 114.581 160.911C154.063 174.851 204.62 167.693 227.45 144.938C250.28 122.183 236.718 92.2708 197.236 78.2564ZM222.402 143.13C201.23 164.302 154.214 170.933 117.52 157.973C80.9015 145.013 68.2433 117.211 89.4157 96.0382C110.588 74.8658 157.604 68.2353 194.298 81.1949C230.992 94.2298 243.575 121.957 222.402 143.13Z" fill="#EEF8FF"/>
<path opacity="0.62" d="M194.373 81.1948C157.755 68.2352 110.664 74.8657 89.4911 96.038C68.3188 117.21 80.9016 145.013 117.595 157.973C154.289 170.932 201.305 164.302 222.478 143.13C243.575 121.957 230.992 94.2297 194.373 81.1948Z" fill="#EEF8FF"/>
<path d="M194.372 81.1948C187.365 78.7084 179.981 76.9754 172.447 75.8452V163.775C180.735 162.795 188.721 161.062 195.955 158.576V81.7976C195.427 81.6469 194.9 81.4209 194.372 81.1948Z" fill="url(#paint59_linear)"/>
<path d="M129.348 76.9753V161.363C138.315 163.473 147.733 164.528 156.925 164.603V74.6395C147.507 74.4135 138.164 75.2423 129.348 76.9753Z" fill="url(#paint60_linear)"/>
<path d="M111.944 132.807C115.184 134.691 115.184 137.705 112.02 139.588C108.78 141.472 103.581 141.472 100.341 139.588C97.1011 137.705 97.1011 134.691 100.266 132.807C103.506 130.924 108.705 130.924 111.944 132.807Z" fill="#EEF8FF"/>
<path d="M120.008 152.246C120.008 152.246 119.933 148.855 119.707 142.526C119.782 136.197 119.707 126.779 121.365 115.025C121.515 113.518 121.817 112.011 122.043 110.504C122.344 108.922 122.57 107.34 122.872 105.757C122.947 105.381 123.022 104.929 123.098 104.552C123.173 104.175 123.248 103.723 123.399 103.346C123.55 102.517 123.776 101.689 124.002 100.86C124.379 99.2022 124.755 97.4692 125.207 95.7362C127.166 88.8044 129.351 81.3451 132.817 73.7351C133.194 72.7556 133.646 71.7761 134.098 70.8719C134.55 69.8924 135.078 68.9883 135.53 68.0087C136.509 66.1251 137.489 64.0907 138.544 62.2071C139.674 60.3234 140.804 58.3644 142.01 56.4054C142.311 55.9533 142.612 55.4259 142.914 54.9738C143.215 54.5217 143.592 53.9943 143.893 53.5422C144.571 52.5627 145.249 51.6586 145.928 50.6791C151.353 42.9937 157.983 35.5344 165.894 28.8286C167.929 27.2463 169.963 25.5887 172.073 23.9311L172.299 23.7804C172.299 23.7804 172.525 23.6297 172.6 23.5543L172.977 23.253L173.806 22.7255L175.463 21.5953C176.518 20.8419 177.648 20.0884 178.703 19.4103L179.532 18.8829L180.436 18.3554L182.245 17.3006C183.45 16.6225 184.656 15.9443 185.861 15.1909C187.067 14.4374 188.348 13.91 189.553 13.3072C190.834 12.7044 192.04 12.1017 193.321 11.4989C203.492 6.82742 214.719 3.51218 226.473 1.70386C238.227 -0.104454 250.584 -0.330491 262.941 0.799706C275.373 1.9299 287.88 4.49168 300.237 8.33435C324.951 15.9443 348.986 28.2258 370.987 43.8979C392.989 59.6453 413.031 78.7079 430.511 99.8803L436.916 107.942L443.094 116.155L443.847 117.21L444.224 117.737L444.45 118.039L444.601 118.265L446.033 120.375L448.896 124.594C449.875 126.026 450.855 127.382 451.759 128.813L454.547 133.183C461.931 144.787 468.486 156.692 474.287 168.898C480.014 181.104 484.987 193.611 488.98 206.27C492.973 218.928 496.063 231.661 498.172 244.395C500.282 257.128 501.412 269.787 501.488 282.219C501.563 294.651 500.433 306.782 498.248 318.46C496.063 330.139 492.747 341.215 488.377 351.537C484.007 361.86 478.507 371.203 472.328 379.491C466.075 387.779 459.067 394.862 451.759 400.814C449.875 402.246 447.992 403.602 446.183 404.958L445.505 405.486L444.752 406.013C444.3 406.314 443.848 406.616 443.32 406.917C442.416 407.52 441.436 408.123 440.532 408.725C438.649 409.856 436.69 410.986 434.806 412.041C432.847 413.02 430.963 414 429.08 414.904C421.47 418.445 414.086 421.082 407.078 422.815C400.071 424.548 393.516 425.528 387.564 426.131C375.659 427.185 366.316 426.583 359.987 425.98C356.822 425.678 354.411 425.302 352.754 425.151C351.096 424.925 350.267 424.85 350.267 424.85C350.267 424.85 351.096 424.925 352.754 425.076C354.411 425.226 356.822 425.452 359.987 425.603C366.316 425.904 375.659 425.98 387.338 424.548C393.139 423.719 399.544 422.514 406.4 420.555C413.182 418.596 420.339 415.883 427.573 412.116C429.381 411.137 431.189 410.157 432.998 409.102C434.731 407.972 436.539 406.917 438.347 405.712C439.251 405.109 440.156 404.431 441.06 403.828C441.512 403.527 441.964 403.225 442.416 402.848L443.094 402.396L443.772 401.869C445.505 400.513 447.238 399.081 449.046 397.65C455.978 391.773 462.533 384.765 468.335 376.628C479.938 360.428 488.227 339.934 491.994 317.406C493.878 306.104 494.706 294.35 494.48 282.369C494.254 270.314 493.049 258.033 490.864 245.751C488.679 233.394 485.514 221.037 481.521 208.831C477.527 196.55 472.705 184.419 467.054 172.514C461.403 160.685 454.848 149.006 447.69 137.855L444.978 133.636C444.074 132.204 443.094 130.848 442.115 129.491L439.251 125.347L437.82 123.238L437.669 123.012C437.669 123.012 437.594 122.861 437.518 122.786L437.142 122.258L436.388 121.279L430.436 113.217L424.182 105.381C407.229 84.7357 387.714 66.0497 366.391 50.6791C345.144 35.233 321.937 23.0269 298.127 15.4169C286.223 11.6496 274.243 9.01246 262.263 7.65623C250.358 6.29999 238.528 6.37534 227.302 7.88227C216 9.3892 205.301 12.4031 195.43 16.5471C194.225 17.0745 193.019 17.6773 191.814 18.2047C190.608 18.8075 189.403 19.2596 188.272 19.9377C187.142 20.5405 186.012 21.2186 184.882 21.8214L183.149 22.7255L182.32 23.1776L181.491 23.705C180.361 24.4585 179.306 25.1366 178.176 25.8147L176.518 26.8696L175.689 27.397L175.313 27.6984L175.011 27.9244C172.977 29.4314 170.943 30.9383 168.984 32.4452C161.223 38.699 154.743 45.7815 149.167 53.0148C148.489 53.919 147.811 54.8231 147.133 55.7273C146.832 56.1794 146.455 56.6314 146.154 57.0835C145.852 57.5356 145.551 57.9877 145.25 58.5151C144.044 60.3988 142.838 62.2071 141.708 64.0907C140.653 65.9744 139.598 67.8581 138.619 69.6664C138.092 70.5705 137.564 71.4747 137.112 72.4542C136.66 73.3583 136.208 74.3379 135.831 75.242C132.215 82.5506 129.803 89.8592 127.618 96.6404C127.166 98.3734 126.714 100.031 126.262 101.689C126.036 102.517 125.81 103.346 125.584 104.1C125.509 104.476 125.358 104.929 125.283 105.305C125.207 105.682 125.132 106.134 125.057 106.511C124.755 108.093 124.379 109.675 124.077 111.182C123.776 112.689 123.399 114.196 123.248 115.628C121.139 127.231 120.762 136.574 120.46 142.903C120.084 148.855 120.008 152.246 120.008 152.246Z" fill="url(#paint61_linear)"/>
<defs>
<linearGradient id="paint0_linear" x1="31.6116" y1="390.613" x2="519.578" y2="390.613" gradientUnits="userSpaceOnUse">
<stop stop-color="#0C2291"/>
<stop offset="0.4103" stop-color="#184FB0"/>
<stop offset="0.7948" stop-color="#2172C9"/>
<stop offset="1" stop-color="#2580D3"/>
</linearGradient>
<linearGradient id="paint1_linear" x1="31.6205" y1="343.489" x2="519.58" y2="343.489" gradientUnits="userSpaceOnUse">
<stop stop-color="#207FD6"/>
<stop offset="0.4423" stop-color="#4CA6EC"/>
<stop offset="0.7962" stop-color="#68BFFA"/>
<stop offset="1" stop-color="#73C8FF"/>
</linearGradient>
<linearGradient id="paint2_linear" x1="256.299" y1="272.103" x2="429.64" y2="272.103" gradientUnits="userSpaceOnUse">
<stop stop-color="#73C8FF"/>
<stop offset="0.2038" stop-color="#68BFFA"/>
<stop offset="0.5577" stop-color="#4CA6EC"/>
<stop offset="1" stop-color="#207FD6"/>
</linearGradient>
<linearGradient id="paint3_linear" x1="305.315" y1="269.408" x2="406.143" y2="269.408" gradientUnits="userSpaceOnUse">
<stop stop-color="#73C8FF"/>
<stop offset="0.2038" stop-color="#68BFFA"/>
<stop offset="0.5577" stop-color="#4CA6EC"/>
<stop offset="1" stop-color="#207FD6"/>
</linearGradient>
<linearGradient id="paint4_linear" x1="194.653" y1="341.591" x2="367.994" y2="341.591" gradientUnits="userSpaceOnUse">
<stop stop-color="#73C8FF"/>
<stop offset="0.2038" stop-color="#68BFFA"/>
<stop offset="0.5577" stop-color="#4CA6EC"/>
<stop offset="1" stop-color="#207FD6"/>
</linearGradient>
<linearGradient id="paint5_linear" x1="243.669" y1="338.896" x2="344.497" y2="338.896" gradientUnits="userSpaceOnUse">
<stop stop-color="#73C8FF"/>
<stop offset="0.2038" stop-color="#68BFFA"/>
<stop offset="0.5577" stop-color="#4CA6EC"/>
<stop offset="1" stop-color="#207FD6"/>
</linearGradient>
<linearGradient id="paint6_linear" x1="41.8774" y1="390.725" x2="50.3498" y2="390.725" gradientUnits="userSpaceOnUse">
<stop stop-color="#0C2291"/>
<stop offset="0.1851" stop-color="#0F2D98"/>
<stop offset="0.5067" stop-color="#1649AC"/>
<stop offset="0.9237" stop-color="#2377CD"/>
<stop offset="1" stop-color="#2580D3"/>
</linearGradient>
<linearGradient id="paint7_linear" x1="187.649" y1="471.055" x2="196.121" y2="471.055" gradientUnits="userSpaceOnUse">
<stop stop-color="#0C2291"/>
<stop offset="0.1851" stop-color="#0F2D98"/>
<stop offset="0.5067" stop-color="#1649AC"/>
<stop offset="0.9237" stop-color="#2377CD"/>
<stop offset="1" stop-color="#2580D3"/>
</linearGradient>
<linearGradient id="paint8_linear" x1="500.857" y1="293.447" x2="509.33" y2="293.447" gradientUnits="userSpaceOnUse">
<stop stop-color="#0C2291"/>
<stop offset="0.1851" stop-color="#0F2D98"/>
<stop offset="0.5067" stop-color="#1649AC"/>
<stop offset="0.9237" stop-color="#2377CD"/>
<stop offset="1" stop-color="#2580D3"/>
</linearGradient>
<linearGradient id="paint9_linear" x1="63.7263" y1="409.69" x2="204.121" y2="409.69" gradientUnits="userSpaceOnUse">
<stop stop-color="#2580D3"/>
<stop offset="0.0762773" stop-color="#2377CD"/>
<stop offset="0.4933" stop-color="#1649AC"/>
<stop offset="0.8149" stop-color="#0F2D98"/>
<stop offset="1" stop-color="#0C2291"/>
</linearGradient>
<linearGradient id="paint10_linear" x1="63.7403" y1="395.549" x2="204.123" y2="395.549" gradientUnits="userSpaceOnUse">
<stop stop-color="#73C8FF"/>
<stop offset="0.2038" stop-color="#68BFFA"/>
<stop offset="0.5577" stop-color="#4CA6EC"/>
<stop offset="1" stop-color="#207FD6"/>
</linearGradient>
<linearGradient id="paint11_linear" x1="69.637" y1="377.795" x2="76.5858" y2="377.795" gradientUnits="userSpaceOnUse">
<stop stop-color="#207FD6"/>
<stop offset="0.4423" stop-color="#4CA6EC"/>
<stop offset="0.7962" stop-color="#68BFFA"/>
<stop offset="1" stop-color="#73C8FF"/>
</linearGradient>
<linearGradient id="paint12_linear" x1="160.438" y1="430.161" x2="167.386" y2="430.161" gradientUnits="userSpaceOnUse">
<stop stop-color="#207FD6"/>
<stop offset="0.4423" stop-color="#4CA6EC"/>
<stop offset="0.7962" stop-color="#68BFFA"/>
<stop offset="1" stop-color="#73C8FF"/>
</linearGradient>
<linearGradient id="paint13_linear" x1="375.935" y1="293.884" x2="491.92" y2="293.884" gradientUnits="userSpaceOnUse">
<stop stop-color="#0C2291"/>
<stop offset="0.1851" stop-color="#0F2D98"/>
<stop offset="0.5067" stop-color="#1649AC"/>
<stop offset="0.9237" stop-color="#2377CD"/>
<stop offset="1" stop-color="#2580D3"/>
</linearGradient>
<linearGradient id="paint14_linear" x1="348.878" y1="319.773" x2="375.946" y2="319.773" gradientUnits="userSpaceOnUse">
<stop stop-color="#2580D3"/>
<stop offset="0.0762773" stop-color="#2377CD"/>
<stop offset="0.4933" stop-color="#1649AC"/>
<stop offset="0.8149" stop-color="#0F2D98"/>
<stop offset="1" stop-color="#0C2291"/>
</linearGradient>
<linearGradient id="paint15_linear" x1="433.856" y1="179.127" x2="411.108" y2="356.351" gradientUnits="userSpaceOnUse">
<stop stop-color="#0C2291"/>
<stop offset="0.1851" stop-color="#0F2D98"/>
<stop offset="0.5067" stop-color="#1649AC"/>
<stop offset="0.9237" stop-color="#2377CD"/>
<stop offset="1" stop-color="#2580D3"/>
</linearGradient>
<linearGradient id="paint16_linear" x1="354.721" y1="309.806" x2="361.67" y2="309.806" gradientUnits="userSpaceOnUse">
<stop stop-color="#207FD6"/>
<stop offset="0.4423" stop-color="#4CA6EC"/>
<stop offset="0.7962" stop-color="#68BFFA"/>
<stop offset="1" stop-color="#73C8FF"/>
</linearGradient>
<linearGradient id="paint17_linear" x1="372.472" y1="319.772" x2="379.421" y2="319.772" gradientUnits="userSpaceOnUse">
<stop stop-color="#207FD6"/>
<stop offset="0.4423" stop-color="#4CA6EC"/>
<stop offset="0.7962" stop-color="#68BFFA"/>
<stop offset="1" stop-color="#73C8FF"/>
</linearGradient>
<linearGradient id="paint18_linear" x1="460.263" y1="248.529" x2="467.211" y2="248.529" gradientUnits="userSpaceOnUse">
<stop stop-color="#207FD6"/>
<stop offset="0.4423" stop-color="#4CA6EC"/>
<stop offset="0.7962" stop-color="#68BFFA"/>
<stop offset="1" stop-color="#73C8FF"/>
</linearGradient>
<linearGradient id="paint19_linear" x1="478.013" y1="258.495" x2="484.961" y2="258.495" gradientUnits="userSpaceOnUse">
<stop stop-color="#207FD6"/>
<stop offset="0.4423" stop-color="#4CA6EC"/>
<stop offset="0.7962" stop-color="#68BFFA"/>
<stop offset="1" stop-color="#73C8FF"/>
</linearGradient>
<linearGradient id="paint20_linear" x1="94.3221" y1="389.162" x2="104.817" y2="389.162" gradientUnits="userSpaceOnUse">
<stop stop-color="#2580D3"/>
<stop offset="0.0762773" stop-color="#2377CD"/>
<stop offset="0.4933" stop-color="#1649AC"/>
<stop offset="0.8149" stop-color="#0F2D98"/>
<stop offset="1" stop-color="#0C2291"/>
</linearGradient>
<linearGradient id="paint21_linear" x1="135.976" y1="409.797" x2="173.055" y2="409.797" gradientUnits="userSpaceOnUse">
<stop stop-color="#2580D3"/>
<stop offset="0.0762773" stop-color="#2377CD"/>
<stop offset="0.4933" stop-color="#1649AC"/>
<stop offset="0.8149" stop-color="#0F2D98"/>
<stop offset="1" stop-color="#0C2291"/>
</linearGradient>
<linearGradient id="paint22_linear" x1="91.4762" y1="409.575" x2="135.986" y2="409.575" gradientUnits="userSpaceOnUse">
<stop stop-color="#2580D3"/>
<stop offset="0.0762773" stop-color="#2377CD"/>
<stop offset="0.4933" stop-color="#1649AC"/>
<stop offset="0.8149" stop-color="#0F2D98"/>
<stop offset="1" stop-color="#0C2291"/>
</linearGradient>
<linearGradient id="paint23_linear" x1="116.163" y1="373.936" x2="123.112" y2="373.936" gradientUnits="userSpaceOnUse">
<stop stop-color="#207FD6"/>
<stop offset="0.4423" stop-color="#4CA6EC"/>
<stop offset="0.7962" stop-color="#68BFFA"/>
<stop offset="1" stop-color="#73C8FF"/>
</linearGradient>
<linearGradient id="paint24_linear" x1="159.569" y1="398.88" x2="166.517" y2="398.88" gradientUnits="userSpaceOnUse">
<stop stop-color="#207FD6"/>
<stop offset="0.4423" stop-color="#4CA6EC"/>
<stop offset="0.7962" stop-color="#68BFFA"/>
<stop offset="1" stop-color="#73C8FF"/>
</linearGradient>
<linearGradient id="paint25_linear" x1="100.032" y1="325.276" x2="394.732" y2="325.276" gradientUnits="userSpaceOnUse">
<stop stop-color="#0C2291"/>
<stop offset="0.1851" stop-color="#0F2D98"/>
<stop offset="0.5067" stop-color="#1649AC"/>
<stop offset="0.9237" stop-color="#2377CD"/>
<stop offset="1" stop-color="#2580D3"/>
</linearGradient>
<linearGradient id="paint26_linear" x1="310.972" y1="208.189" x2="188.129" y2="376.757" gradientUnits="userSpaceOnUse">
<stop stop-color="#0C2291"/>
<stop offset="0.1851" stop-color="#0F2D98"/>
<stop offset="0.5067" stop-color="#1649AC"/>
<stop offset="0.9237" stop-color="#2377CD"/>
<stop offset="1" stop-color="#2580D3"/>
</linearGradient>
<linearGradient id="paint27_linear" x1="262.409" y1="279.51" x2="300.589" y2="258.437" gradientUnits="userSpaceOnUse">
<stop stop-color="#73C8FF"/>
<stop offset="0.2038" stop-color="#68BFFA"/>
<stop offset="0.5577" stop-color="#4CA6EC"/>
<stop offset="1" stop-color="#207FD6"/>
</linearGradient>
<linearGradient id="paint28_linear" x1="273.373" y1="273.942" x2="286.057" y2="266.941" gradientUnits="userSpaceOnUse">
<stop stop-color="#73C8FF"/>
<stop offset="0.2038" stop-color="#68BFFA"/>
<stop offset="0.5577" stop-color="#4CA6EC"/>
<stop offset="1" stop-color="#207FD6"/>
</linearGradient>
<linearGradient id="paint29_linear" x1="181.284" y1="324.878" x2="306.942" y2="255.523" gradientUnits="userSpaceOnUse">
<stop stop-color="#73C8FF"/>
<stop offset="0.2038" stop-color="#68BFFA"/>
<stop offset="0.5577" stop-color="#4CA6EC"/>
<stop offset="1" stop-color="#207FD6"/>
</linearGradient>
<linearGradient id="paint30_linear" x1="108.439" y1="369.314" x2="499.478" y2="153.486" gradientUnits="userSpaceOnUse">
<stop stop-color="#73C8FF"/>
<stop offset="0.2038" stop-color="#68BFFA"/>
<stop offset="0.5577" stop-color="#4CA6EC"/>
<stop offset="1" stop-color="#207FD6"/>
</linearGradient>
<linearGradient id="paint31_linear" x1="183.061" y1="328.098" x2="308.719" y2="258.743" gradientUnits="userSpaceOnUse">
<stop stop-color="#73C8FF"/>
<stop offset="0.2038" stop-color="#68BFFA"/>
<stop offset="0.5577" stop-color="#4CA6EC"/>
<stop offset="1" stop-color="#207FD6"/>
</linearGradient>
<linearGradient id="paint32_linear" x1="299.427" y1="325.117" x2="371.513" y2="325.117" gradientUnits="userSpaceOnUse">
<stop stop-color="#2580D3"/>
<stop offset="0.0762773" stop-color="#2377CD"/>
<stop offset="0.4933" stop-color="#1649AC"/>
<stop offset="0.8149" stop-color="#0F2D98"/>
<stop offset="1" stop-color="#0C2291"/>
</linearGradient>
<linearGradient id="paint33_linear" x1="215.607" y1="394.748" x2="248.634" y2="394.748" gradientUnits="userSpaceOnUse">
<stop stop-color="#2580D3"/>
<stop offset="0.0762773" stop-color="#2377CD"/>
<stop offset="0.4933" stop-color="#1649AC"/>
<stop offset="0.8149" stop-color="#0F2D98"/>
<stop offset="1" stop-color="#0C2291"/>
</linearGradient>
<linearGradient id="paint34_linear" x1="248.62" y1="389.473" x2="299.599" y2="389.473" gradientUnits="userSpaceOnUse">
<stop stop-color="#2580D3"/>
<stop offset="0.0762773" stop-color="#2377CD"/>
<stop offset="0.4933" stop-color="#1649AC"/>
<stop offset="0.8149" stop-color="#0F2D98"/>
<stop offset="1" stop-color="#0C2291"/>
</linearGradient>
<linearGradient id="paint35_linear" x1="222.912" y1="383.058" x2="229.861" y2="383.058" gradientUnits="userSpaceOnUse">
<stop stop-color="#207FD6"/>
<stop offset="0.4423" stop-color="#4CA6EC"/>
<stop offset="0.7962" stop-color="#68BFFA"/>
<stop offset="1" stop-color="#73C8FF"/>
</linearGradient>
<linearGradient id="paint36_linear" x1="245.149" y1="396.395" x2="252.098" y2="396.395" gradientUnits="userSpaceOnUse">
<stop stop-color="#207FD6"/>
<stop offset="0.4423" stop-color="#4CA6EC"/>
<stop offset="0.7962" stop-color="#68BFFA"/>
<stop offset="1" stop-color="#73C8FF"/>
</linearGradient>
<linearGradient id="paint37_linear" x1="359.89" y1="302.018" x2="366.839" y2="302.018" gradientUnits="userSpaceOnUse">
<stop stop-color="#207FD6"/>
<stop offset="0.4423" stop-color="#4CA6EC"/>
<stop offset="0.7962" stop-color="#68BFFA"/>
<stop offset="1" stop-color="#73C8FF"/>
</linearGradient>
<linearGradient id="paint38_linear" x1="412.202" y1="245.942" x2="447.074" y2="245.942" gradientUnits="userSpaceOnUse">
<stop stop-color="#2580D3"/>
<stop offset="0.0762773" stop-color="#2377CD"/>
<stop offset="0.4933" stop-color="#1649AC"/>
<stop offset="0.8149" stop-color="#0F2D98"/>
<stop offset="1" stop-color="#0C2291"/>
</linearGradient>
<linearGradient id="paint39_linear" x1="320.769" y1="229.676" x2="412.215" y2="229.676" gradientUnits="userSpaceOnUse">
<stop stop-color="#2580D3"/>
<stop offset="0.0762773" stop-color="#2377CD"/>
<stop offset="0.4933" stop-color="#1649AC"/>
<stop offset="0.8149" stop-color="#0F2D98"/>
<stop offset="1" stop-color="#0C2291"/>
</linearGradient>
<linearGradient id="paint40_linear" x1="320.781" y1="217.391" x2="447.074" y2="217.391" gradientUnits="userSpaceOnUse">
<stop stop-color="#73C8FF"/>
<stop offset="0.2038" stop-color="#68BFFA"/>
<stop offset="0.5577" stop-color="#4CA6EC"/>
<stop offset="1" stop-color="#207FD6"/>
</linearGradient>
<linearGradient id="paint41_linear" x1="352.123" y1="186.981" x2="359.072" y2="186.981" gradientUnits="userSpaceOnUse">
<stop stop-color="#207FD6"/>
<stop offset="0.4423" stop-color="#4CA6EC"/>
<stop offset="0.7962" stop-color="#68BFFA"/>
<stop offset="1" stop-color="#73C8FF"/>
</linearGradient>
<linearGradient id="paint42_linear" x1="327.859" y1="201.125" x2="334.808" y2="201.125" gradientUnits="userSpaceOnUse">
<stop stop-color="#207FD6"/>
<stop offset="0.4423" stop-color="#4CA6EC"/>
<stop offset="0.7962" stop-color="#68BFFA"/>
<stop offset="1" stop-color="#73C8FF"/>
</linearGradient>
<linearGradient id="paint43_linear" x1="408.742" y1="247.801" x2="415.691" y2="247.801" gradientUnits="userSpaceOnUse">
<stop stop-color="#207FD6"/>
<stop offset="0.4423" stop-color="#4CA6EC"/>
<stop offset="0.7962" stop-color="#68BFFA"/>
<stop offset="1" stop-color="#73C8FF"/>
</linearGradient>
<linearGradient id="paint44_linear" x1="433.043" y1="233.656" x2="439.992" y2="233.656" gradientUnits="userSpaceOnUse">
<stop stop-color="#207FD6"/>
<stop offset="0.4423" stop-color="#4CA6EC"/>
<stop offset="0.7962" stop-color="#68BFFA"/>
<stop offset="1" stop-color="#73C8FF"/>
</linearGradient>
<linearGradient id="paint45_linear" x1="46.3175" y1="460.337" x2="448.888" y2="186.392" gradientUnits="userSpaceOnUse">
<stop stop-color="#73C8FF"/>
<stop offset="0.2038" stop-color="#68BFFA"/>
<stop offset="0.5577" stop-color="#4CA6EC"/>
<stop offset="1" stop-color="#207FD6"/>
</linearGradient>
<linearGradient id="paint46_linear" x1="189.487" y1="384.569" x2="194.207" y2="384.569" gradientUnits="userSpaceOnUse">
<stop stop-color="#2580D3"/>
<stop offset="0.0762773" stop-color="#2377CD"/>
<stop offset="0.4933" stop-color="#1649AC"/>
<stop offset="0.8149" stop-color="#0F2D98"/>
<stop offset="1" stop-color="#0C2291"/>
</linearGradient>
<linearGradient id="paint47_linear" x1="187.218" y1="381.315" x2="196.544" y2="381.315" gradientUnits="userSpaceOnUse">
<stop stop-color="#2580D3"/>
<stop offset="0.0762773" stop-color="#2377CD"/>
<stop offset="0.4933" stop-color="#1649AC"/>
<stop offset="0.8149" stop-color="#0F2D98"/>
<stop offset="1" stop-color="#0C2291"/>
</linearGradient>
<linearGradient id="paint48_linear" x1="79.6508" y1="416.281" x2="85.3712" y2="416.281" gradientUnits="userSpaceOnUse">
<stop stop-color="#207FD6"/>
<stop offset="0.4423" stop-color="#4CA6EC"/>
<stop offset="0.7962" stop-color="#68BFFA"/>
<stop offset="1" stop-color="#73C8FF"/>
</linearGradient>
<linearGradient id="paint49_linear" x1="83.1218" y1="418.282" x2="88.8373" y2="418.282" gradientUnits="userSpaceOnUse">
<stop stop-color="#207FD6"/>
<stop offset="0.4423" stop-color="#4CA6EC"/>
<stop offset="0.7962" stop-color="#68BFFA"/>
<stop offset="1" stop-color="#73C8FF"/>
</linearGradient>
<linearGradient id="paint50_linear" x1="76.1886" y1="414.281" x2="81.904" y2="414.281" gradientUnits="userSpaceOnUse">
<stop stop-color="#207FD6"/>
<stop offset="0.4423" stop-color="#4CA6EC"/>
<stop offset="0.7962" stop-color="#68BFFA"/>
<stop offset="1" stop-color="#73C8FF"/>
</linearGradient>
<linearGradient id="paint51_linear" x1="367.989" y1="65.3306" x2="178.264" y2="351.964" gradientUnits="userSpaceOnUse">
<stop stop-color="#207FD6"/>
<stop offset="0.4423" stop-color="#4CA6EC"/>
<stop offset="0.7962" stop-color="#68BFFA"/>
<stop offset="1" stop-color="#73C8FF"/>
</linearGradient>
<linearGradient id="paint52_linear" x1="210.197" y1="61.1974" x2="210.197" y2="242.049" gradientUnits="userSpaceOnUse">
<stop stop-color="#060000"/>
<stop offset="0.0372728" stop-color="#0D0911"/>
<stop offset="0.1142" stop-color="#18182E"/>
<stop offset="0.1964" stop-color="#212445"/>
<stop offset="0.2851" stop-color="#272C55"/>
<stop offset="0.3851" stop-color="#2B315E"/>
<stop offset="0.52" stop-color="#2C3361"/>
<stop offset="1"/>
</linearGradient>
<linearGradient id="paint53_linear" x1="375.104" y1="61.1977" x2="375.104" y2="242.049" gradientUnits="userSpaceOnUse">
<stop stop-color="#060000"/>
<stop offset="0.0372728" stop-color="#0D0911"/>
<stop offset="0.1142" stop-color="#18182E"/>
<stop offset="0.1964" stop-color="#212445"/>
<stop offset="0.2851" stop-color="#272C55"/>
<stop offset="0.3851" stop-color="#2B315E"/>
<stop offset="0.52" stop-color="#2C3361"/>
<stop offset="1"/>
</linearGradient>
<linearGradient id="paint54_linear" x1="304.98" y1="61.1974" x2="304.98" y2="242.049" gradientUnits="userSpaceOnUse">
<stop stop-color="#060000"/>
<stop offset="0.0372728" stop-color="#0D0911"/>
<stop offset="0.1142" stop-color="#18182E"/>
<stop offset="0.1964" stop-color="#212445"/>
<stop offset="0.2851" stop-color="#272C55"/>
<stop offset="0.3851" stop-color="#2B315E"/>
<stop offset="0.52" stop-color="#2C3361"/>
<stop offset="1"/>
</linearGradient>
<linearGradient id="paint55_linear" x1="355.05" y1="64.6261" x2="364.872" y2="64.6261" gradientUnits="userSpaceOnUse">
<stop stop-color="#2580D3"/>
<stop offset="0.0762773" stop-color="#2377CD"/>
<stop offset="0.4933" stop-color="#1649AC"/>
<stop offset="0.8149" stop-color="#0F2D98"/>
<stop offset="1" stop-color="#0C2291"/>
</linearGradient>
<linearGradient id="paint56_linear" x1="78.9872" y1="102.762" x2="232.699" y2="102.762" gradientUnits="userSpaceOnUse">
<stop stop-color="#73C8FF"/>
<stop offset="0.2038" stop-color="#68BFFA"/>
<stop offset="0.5577" stop-color="#4CA6EC"/>
<stop offset="1" stop-color="#207FD6"/>
</linearGradient>
<linearGradient id="paint57_linear" x1="73.1363" y1="147.539" x2="238.53" y2="147.539" gradientUnits="userSpaceOnUse">
<stop stop-color="#73C8FF"/>
<stop offset="0.2038" stop-color="#68BFFA"/>
<stop offset="0.5577" stop-color="#4CA6EC"/>
<stop offset="1" stop-color="#207FD6"/>
</linearGradient>
<linearGradient id="paint58_linear" x1="288.275" y1="133.826" x2="285.01" y2="153.723" gradientUnits="userSpaceOnUse">
<stop stop-color="#2580D3"/>
<stop offset="0.0762773" stop-color="#2377CD"/>
<stop offset="0.4933" stop-color="#1649AC"/>
<stop offset="0.8149" stop-color="#0F2D98"/>
<stop offset="1" stop-color="#0C2291"/>
</linearGradient>
<linearGradient id="paint59_linear" x1="184.208" y1="87.3655" x2="184.208" y2="141.156" gradientUnits="userSpaceOnUse">
<stop stop-color="#4E5F91"/>
<stop offset="0.1351" stop-color="#485886"/>
<stop offset="0.3752" stop-color="#384467"/>
<stop offset="0.6898" stop-color="#1D2437"/>
<stop offset="1"/>
</linearGradient>
<linearGradient id="paint60_linear" x1="143.158" y1="87.3655" x2="143.158" y2="141.156" gradientUnits="userSpaceOnUse">
<stop stop-color="#4E5F91"/>
<stop offset="0.1351" stop-color="#485886"/>
<stop offset="0.3752" stop-color="#384467"/>
<stop offset="0.6898" stop-color="#1D2437"/>
<stop offset="1"/>
</linearGradient>
<linearGradient id="paint61_linear" x1="237.199" y1="282.936" x2="415.893" y2="111.985" gradientUnits="userSpaceOnUse">
<stop stop-color="#2D4F9E"/>
<stop offset="0.0993075" stop-color="#121274"/>
<stop offset="0.2344" stop-color="#063A6F"/>
<stop offset="0.3901" stop-color="#1658A7"/>
<stop offset="0.5612" stop-color="#386189"/>
<stop offset="0.7449" stop-color="#6E98C6"/>
<stop offset="0.854167" stop-color="#A0B5CD"/>
<stop offset="1" stop-color="#B1C9E3"/>
</linearGradient>
</defs>
</svg>
