<svg width="26" height="34" viewBox="0 0 26 34" fill="none" xmlns="http://www.w3.org/2000/svg">
<path d="M25.6574 8.26041L17.6888 0.291855C17.5028 0.105785 17.2489 0 16.9844 0H3.03906C1.39132 0 0.0507812 1.34054 0.0507812 2.98828V31.0117C0.0507812 32.6595 1.39132 34 3.03906 34H22.9609C24.6087 34 25.9492 32.6595 25.9492 31.0117V8.96484C25.9492 8.69324 25.8352 8.43818 25.6574 8.26041ZM17.9805 3.40086L22.5484 7.96875H18.9766C18.4273 7.96875 17.9805 7.5219 17.9805 6.97266V3.40086ZM22.9609 32.0078H3.03906C2.48982 32.0078 2.04297 31.561 2.04297 31.0117V2.98828C2.04297 2.43904 2.48982 1.99219 3.03906 1.99219H15.9883V6.97266C15.9883 8.62039 17.3288 9.96094 18.9766 9.96094H23.957V31.0117C23.957 31.561 23.5102 32.0078 22.9609 32.0078Z" fill="#2D4F9E"/>
<path d="M18.9766 14.0781H7.02344C6.47333 14.0781 6.02734 14.5241 6.02734 15.0742C6.02734 15.6243 6.47333 16.0703 7.02344 16.0703H18.9766C19.5267 16.0703 19.9727 15.6243 19.9727 15.0742C19.9727 14.5241 19.5267 14.0781 18.9766 14.0781Z" fill="#2D4F9E"/>
<path d="M18.9766 18.0625H7.02344C6.47333 18.0625 6.02734 18.5085 6.02734 19.0586C6.02734 19.6087 6.47333 20.0547 7.02344 20.0547H18.9766C19.5267 20.0547 19.9727 19.6087 19.9727 19.0586C19.9727 18.5085 19.5267 18.0625 18.9766 18.0625Z" fill="#2D4F9E"/>
<path d="M18.9766 22.0469H7.02344C6.47333 22.0469 6.02734 22.4929 6.02734 23.043C6.02734 23.5931 6.47333 24.0391 7.02344 24.0391H18.9766C19.5267 24.0391 19.9727 23.5931 19.9727 23.043C19.9727 22.4929 19.5267 22.0469 18.9766 22.0469Z" fill="#2D4F9E"/>
<path d="M14.9922 26.0312H7.02344C6.47333 26.0312 6.02734 26.4772 6.02734 27.0273C6.02734 27.5775 6.47333 28.0234 7.02344 28.0234H14.9922C15.5423 28.0234 15.9883 27.5775 15.9883 27.0273C15.9883 26.4772 15.5423 26.0312 14.9922 26.0312Z" fill="#2D4F9E"/>
</svg>
