<svg width="40" height="40" viewBox="0 0 40 40" fill="none" xmlns="http://www.w3.org/2000/svg">
<circle cx="20" cy="20" r="20" fill="#2D4F9E"/>
<path d="M27.6413 24.6552L25.1704 22.1784C24.6782 21.6871 23.8632 21.702 23.3538 22.2127L22.109 23.4601C22.0303 23.4167 21.9489 23.3713 21.8633 23.3231C21.0772 22.8866 20.0012 22.2882 18.869 21.1526C17.7335 20.0146 17.1359 18.9345 16.699 18.1461C16.6529 18.0626 16.6087 17.9821 16.5651 17.9056L17.4006 17.0694L17.8113 16.6572C18.3214 16.1459 18.3355 15.3292 17.8445 14.8365L15.3735 12.3594C14.8825 11.8673 14.0671 11.8823 13.557 12.3936L12.8606 13.0956L12.8796 13.1146C12.6461 13.4132 12.451 13.7576 12.3058 14.1291C12.1719 14.4826 12.0886 14.82 12.0505 15.1581C11.7242 17.8691 12.9603 20.3467 16.3147 23.7088C20.9517 28.3559 24.6884 28.0049 24.8496 27.9877C25.2007 27.9457 25.5372 27.8616 25.8791 27.7285C26.2465 27.5847 26.5899 27.3894 26.8877 27.1558L26.9029 27.1694L27.6084 26.477C28.1174 25.9657 28.1321 25.1487 27.6413 24.6552Z" fill="white"/>
</svg>
