<svg width="34" height="34" viewBox="0 0 34 34" fill="none" xmlns="http://www.w3.org/2000/svg">
<path d="M33.2414 13.0443L30.1192 12.2779C29.9717 11.8734 29.8017 11.4685 29.6105 11.0663L31.2366 8.35596C31.4718 7.96404 31.41 7.46234 31.0868 7.13914L26.8607 2.91304C26.5376 2.58984 26.0358 2.52809 25.6439 2.76323L22.9336 4.38945C22.5314 4.1982 22.1265 4.0282 21.7219 3.88071L20.9556 0.758625C20.8463 0.313238 20.4469 0 19.9883 0H14.0117C13.5531 0 13.1537 0.313238 13.0444 0.758625L12.2781 3.88071C11.8735 4.0282 11.4686 4.1982 11.0664 4.38945L8.3561 2.76323C7.96423 2.52809 7.46247 2.58984 7.13927 2.91304L2.91318 7.13914C2.58998 7.46234 2.52822 7.96404 2.76336 8.35596L4.38952 11.0663C4.19827 11.4685 4.02834 11.8734 3.88085 12.2779L0.758625 13.0443C0.313238 13.1537 0 13.5531 0 14.0117V19.9883C0 20.4469 0.313238 20.8463 0.758625 20.9557L3.88085 21.7221C4.02834 22.1266 4.19827 22.5315 4.38952 22.9337L2.76336 25.644C2.52822 26.036 2.58998 26.5377 2.91318 26.8609L7.13927 31.087C7.46247 31.4102 7.96417 31.4719 8.3561 31.2368L11.0664 29.6105C11.4686 29.8018 11.8735 29.9718 12.2781 30.1193L13.0444 33.2414C13.1565 33.6964 13.5667 34 14.0117 34H19.9883C20.444 34 20.8461 33.6859 20.9556 33.2414L21.7219 30.1193C22.1265 29.9718 22.5314 29.8018 22.9336 29.6105L25.6439 31.2368C26.0358 31.472 26.5375 31.4102 26.8607 31.087L31.0868 26.8609C31.41 26.5377 31.4718 26.036 31.2366 25.644L29.6105 22.9337C29.8017 22.5315 29.9717 22.1266 30.1192 21.7221L33.2414 20.9557C33.6868 20.8463 34 20.4469 34 19.9883V14.0117C34 13.5531 33.6868 13.1537 33.2414 13.0443ZM13.4592 17.8288L16.4475 19.821C16.7821 20.0441 17.2179 20.0441 17.5526 19.821L20.5408 17.8288C20.818 17.6441 20.9844 17.3331 20.9844 17V11.2766C22.8372 12.5619 23.9727 14.6765 23.9727 17C23.9727 20.8447 20.8448 23.9727 17.0001 23.9727C13.1553 23.9727 10.0274 20.8447 10.0274 17C10.0274 14.6766 11.163 12.5619 13.0157 11.2766V17C13.0156 17.333 13.1821 17.6441 13.4592 17.8288ZM17 25.9648C17.6845 25.9648 18.3512 25.8874 18.9922 25.7414V32.0078H15.0078V25.7414C15.6488 25.8874 16.3155 25.9648 17 25.9648ZM32.0078 19.2071L29.1146 19.9173C28.7768 20.0002 28.5067 20.2534 28.4022 20.5851C28.2001 21.2258 27.9278 21.8755 27.5928 22.5161C27.432 22.8236 27.4428 23.1926 27.6213 23.4902L29.1284 26.002L26.0022 29.1282L23.4904 27.6211C23.1927 27.4426 22.8236 27.4319 22.5162 27.5927C22.0083 27.8584 21.4948 28.0838 20.9845 28.2668V25.029C23.9338 23.5595 25.965 20.5127 25.965 16.9999C25.965 15.1825 25.4216 13.431 24.3938 11.9348C23.3911 10.4753 21.9973 9.35312 20.3631 8.68966C20.0561 8.56501 19.7071 8.6012 19.4321 8.78634C19.1571 8.97142 18.9923 9.2812 18.9923 9.61264V16.4669L17.0001 17.795L15.0079 16.4669V9.61264C15.0079 9.2812 14.8431 8.97148 14.5681 8.78634C14.2933 8.6012 13.9442 8.56501 13.6371 8.68966C12.0029 9.35312 10.6091 10.4753 9.60646 11.9348C8.57849 13.4311 8.03516 15.1826 8.03516 17C8.03516 20.5128 10.0663 23.5596 13.0156 25.0291V28.2668C12.5054 28.0839 11.9918 27.8584 11.4839 27.5927C11.1764 27.432 10.8074 27.4426 10.5097 27.6212L7.99797 29.1283L4.87176 26.0021L6.37879 23.4903C6.55729 23.1927 6.56818 22.8236 6.40734 22.5162C6.07225 21.8755 5.79999 21.2258 5.59798 20.5852C5.49339 20.2534 5.22325 20.0002 4.88551 19.9174L1.99219 19.2071V14.7929L4.88538 14.0828C5.22318 13.9998 5.49326 13.7467 5.59785 13.4149C5.79986 12.7743 6.07219 12.1246 6.40721 11.484C6.56804 11.1764 6.55722 10.8074 6.37865 10.5099L4.87163 7.99804L7.99784 4.87183L10.5096 6.37892C10.8073 6.55755 11.1764 6.56818 11.4838 6.40741C12.1244 6.07232 12.7741 5.80006 13.4147 5.59805C13.7465 5.49346 13.9997 5.22332 14.0826 4.88551L14.7929 1.99219H19.2071L19.9173 4.88538C20.0002 5.22325 20.2534 5.49332 20.5852 5.59791C21.2258 5.79992 21.8755 6.07219 22.5162 6.40727C22.8236 6.56804 23.1927 6.55735 23.4903 6.37879L26.0021 4.8717L29.1283 7.9979L27.6213 10.5097C27.4428 10.8073 27.4319 11.1764 27.5927 11.4838C27.9278 12.1245 28.2001 12.7742 28.4021 13.4148C28.5067 13.7466 28.7768 13.9998 29.1146 14.0826L32.0078 14.7929V19.2071Z" fill="#2D4F9E"/>
</svg>
