<svg width="40" height="38" viewBox="0 0 40 38" fill="none" xmlns="http://www.w3.org/2000/svg">
<path fill-rule="evenodd" clip-rule="evenodd" d="M0.100955 18.2304C0.286249 8.04663 8.38237 -0.0816021 18.1461 0.103692C27.8234 0.284045 35.0795 7.34005 35.0202 17.4052H38.8373C39.0949 17.6692 39.2391 18.0234 39.2391 18.3922C39.2391 18.761 39.0949 19.1153 38.8373 19.3792L34.2766 24.3599C34.1508 24.49 34.0001 24.5935 33.8335 24.6641C33.667 24.7347 33.4879 24.7712 33.3069 24.7712C33.1259 24.7712 32.9468 24.7347 32.7802 24.6641C32.6137 24.5935 32.463 24.49 32.3372 24.3599L28.0754 19.3792C27.8167 19.1159 27.6717 18.7614 27.6717 18.3922C27.6717 18.023 27.8167 17.6686 28.0754 17.4052H31.5886C31.6454 9.1584 26.0075 3.60946 18.0819 3.46122C10.0945 3.30805 3.47578 9.95887 3.32013 18.2897C3.16695 26.497 9.36072 33.3035 17.1875 33.6469V37.0093C7.55966 36.6684 -0.0843391 28.3129 0.100955 18.2304Z" fill="#2D4F9E"/>
</svg>
