<svg width="38" height="32" viewBox="0 0 38 32" fill="none" xmlns="http://www.w3.org/2000/svg">
<path d="M30.0123 6.25426L5.25689 17.3613C4.56713 17.6753 4.20165 18.3378 4.02258 19.4117C3.8024 21.4966 5.04489 24.2387 6.75602 25.4443C7.54262 26.0784 8.41875 26.1757 9.1085 25.8616L33.8639 14.7546L30.0123 6.25426Z" fill="url(#paint0_linear)"/>
<path d="M28.1887 19.5146C24.7565 17.099 22.3303 11.7366 22.7764 7.55251C22.9994 5.46045 23.8727 4.06715 25.2578 3.43555L21.1025 5.33037C19.856 5.89882 18.9826 7.29212 18.6211 9.44733C18.175 13.6314 20.6013 18.9938 24.0335 21.4094C25.7495 22.6172 27.3693 22.8737 28.6159 22.3052L32.7712 20.4104C31.5246 20.9788 29.9048 20.7224 28.1887 19.5146Z" fill="url(#paint1_linear)"/>
<path d="M35.0267 16.2358C35.4727 12.0522 33.0469 6.6905 29.5532 4.1377C26.1217 1.72239 22.9366 3.17491 22.4906 7.35852C22.0446 11.5421 24.4703 16.9037 27.9018 19.319C31.5963 21.9461 34.6429 20.5569 35.0267 16.2358Z" fill="#1544A8"/>
<defs>
<linearGradient id="paint0_linear" x1="16.4076" y1="12.2825" x2="20.315" y2="20.8637" gradientUnits="userSpaceOnUse">
<stop stop-color="#2580D3"/>
<stop offset="0.0762773" stop-color="#2377CD"/>
<stop offset="0.4933" stop-color="#1649AC"/>
<stop offset="0.8149" stop-color="#0F2D98"/>
<stop offset="1" stop-color="#0C2291"/>
</linearGradient>
<linearGradient id="paint1_linear" x1="20.4839" y1="5.43169" x2="28.2339" y2="22.4272" gradientUnits="userSpaceOnUse">
<stop stop-color="#2580D3"/>
<stop offset="0.0762773" stop-color="#2377CD"/>
<stop offset="0.4933" stop-color="#1649AC"/>
<stop offset="0.8149" stop-color="#0F2D98"/>
<stop offset="1" stop-color="#0C2291"/>
</linearGradient>
</defs>
</svg>
