<svg width="214" height="118" viewBox="0 0 214 118" fill="none" xmlns="http://www.w3.org/2000/svg">
<path d="M213.435 112.997L209.366 111.339C209.441 110.133 209.215 109.154 208.537 108.702L201.229 105.763C201.153 104.332 200.701 103.126 199.797 102.523L107.874 65.3022C109.683 66.4324 109.833 70.049 108.176 73.3643C106.669 76.4535 104.258 78.1865 102.449 77.433L194.372 114.654C195.502 115.106 197.009 114.503 198.29 113.223L205.222 116.01C206.051 116.312 207.03 115.86 207.935 114.805L211.928 116.387C212.455 116.613 213.133 116.086 213.586 115.182C213.962 114.428 213.962 113.373 213.435 112.997Z" fill="#EEF8FF"/>
<path d="M121.212 53.4729C120.835 53.2468 120.383 53.0208 120.006 52.8701L28.0835 15.6489C28.5355 15.7996 28.9123 16.0256 29.289 16.2517C35.0907 20.019 35.5427 31.7731 30.4192 42.5476C25.597 52.5687 17.5349 58.2197 11.8086 55.884L103.731 93.1051C109.458 95.4408 117.52 89.7898 122.342 79.7687C127.465 68.9942 127.013 57.2402 121.212 53.4729Z" fill="url(#paint0_linear)"/>
<path d="M31.3351 40.3679C35.8352 29.2607 34.3872 18.1918 28.1009 15.6448C21.8145 13.0978 13.0703 20.0373 8.57015 31.1445C4.06999 42.2517 5.51797 53.3206 11.8043 55.8676C18.0907 58.4145 26.8349 51.4751 31.3351 40.3679Z" fill="#F2FAFE"/>
<path d="M104.709 87.9065C104.332 87.9065 103.955 87.8311 103.503 87.6804L31.6978 58.5214C30.1155 57.8433 29.2867 56.0349 29.9648 54.4527C30.6429 52.8704 32.4512 52.0416 34.0335 52.7197L105.914 81.8788C107.496 82.5569 108.325 84.3652 107.647 85.9475C107.12 87.153 105.989 87.9065 104.709 87.9065Z" fill="url(#paint1_linear)"/>
<path d="M112.849 76.5289C112.472 76.5289 112.096 76.4536 111.644 76.3029L39.8384 47.2192C38.2561 46.541 37.4273 44.7327 38.1055 43.1504C38.7836 41.5681 40.5919 40.7393 42.1742 41.4175L113.979 70.5012C115.562 71.1793 116.39 72.9876 115.712 74.5699C115.26 75.7755 114.055 76.5289 112.849 76.5289Z" fill="url(#paint2_linear)"/>
<path d="M114.731 62.7405C114.354 62.7405 113.977 62.6652 113.525 62.5145L42.0967 33.5815C40.5144 32.9033 39.6856 31.095 40.3638 29.5128C41.0419 27.9305 42.8502 27.1016 44.4325 27.7798L115.861 56.7128C117.443 57.3909 118.272 59.1993 117.594 60.7816C117.142 62.0624 115.936 62.7405 114.731 62.7405Z" fill="url(#paint3_linear)"/>
<path d="M120.461 33.1297C120.009 21.451 115.94 8.03933 104.714 2.46369C92.2815 -3.56403 78.2671 3.14183 68.472 11.0532C63.0471 15.4233 58.4509 20.6222 54.1562 26.1225C54.3822 26.1978 54.6083 26.3485 54.759 26.3485C55.1357 26.4239 55.0604 26.3485 55.2864 25.9718C55.9645 25.143 56.5673 24.3142 57.2454 23.5607C58.677 21.9031 60.1839 20.2454 61.6908 18.7385C64.4787 15.9507 67.4172 13.3889 70.5817 11.0532C77.4382 6.08034 85.8771 2.08694 94.5419 2.53902C102.378 2.9911 108.707 7.6626 112.098 14.5191C116.091 22.5059 116.468 31.9242 115.564 40.6644C113.68 58.5968 105.693 76.0772 94.768 90.3177C89.4937 97.1742 83.1646 103.503 75.7053 108.099C68.3214 112.696 58.903 115.935 50.3135 112.696C42.8542 109.832 38.3334 102.75 36.2237 95.2906C33.888 86.8517 34.114 77.8855 35.5456 69.296C35.6963 68.3165 35.9223 67.337 36.073 66.3575C36.1484 65.8301 36.2237 65.9054 35.9223 65.6794C35.7716 65.5287 35.4703 65.4533 35.2443 65.378C32.5318 76.5293 31.6276 89.1121 35.621 100.037C37.58 105.462 40.8199 110.284 45.6421 113.6C49.4847 116.237 54.1562 117.442 58.7524 117.367C70.8831 117.367 82.2604 109.983 90.6992 101.846C99.3641 93.4822 106.371 83.3858 111.344 72.4606C116.392 61.5353 119.708 49.7059 120.084 37.5751C120.536 36.2189 120.536 34.6366 120.461 33.1297C120.536 35.5408 120.386 30.7186 120.461 33.1297Z" fill="url(#paint4_linear)"/>
<defs>
<linearGradient id="paint0_linear" x1="80.2995" y1="38.1746" x2="60.1039" y2="76.0929" gradientUnits="userSpaceOnUse">
<stop stop-color="#2580D3"/>
<stop offset="0.0762773" stop-color="#2377CD"/>
<stop offset="0.4933" stop-color="#1649AC"/>
<stop offset="0.8149" stop-color="#0F2D98"/>
<stop offset="1" stop-color="#0C2291"/>
</linearGradient>
<linearGradient id="paint1_linear" x1="71.2464" y1="66.2216" x2="86.0839" y2="42.3166" gradientUnits="userSpaceOnUse">
<stop stop-color="#207FD6"/>
<stop offset="0.4423" stop-color="#4CA6EC"/>
<stop offset="0.7962" stop-color="#68BFFA"/>
<stop offset="1" stop-color="#73C8FF"/>
</linearGradient>
<linearGradient id="paint2_linear" x1="72.0382" y1="66.7107" x2="86.8757" y2="42.8059" gradientUnits="userSpaceOnUse">
<stop stop-color="#207FD6"/>
<stop offset="0.4423" stop-color="#4CA6EC"/>
<stop offset="0.7962" stop-color="#68BFFA"/>
<stop offset="1" stop-color="#73C8FF"/>
</linearGradient>
<linearGradient id="paint3_linear" x1="67.4058" y1="63.8368" x2="82.2432" y2="39.9318" gradientUnits="userSpaceOnUse">
<stop stop-color="#207FD6"/>
<stop offset="0.4423" stop-color="#4CA6EC"/>
<stop offset="0.7962" stop-color="#68BFFA"/>
<stop offset="1" stop-color="#73C8FF"/>
</linearGradient>
<linearGradient id="paint4_linear" x1="44.0558" y1="50.8887" x2="111.774" y2="67.4054" gradientUnits="userSpaceOnUse">
<stop/>
<stop offset="0.0993075" stop-color="#050506"/>
<stop offset="0.2344" stop-color="#121518"/>
<stop offset="0.3901" stop-color="#292E34"/>
<stop offset="0.5612" stop-color="#48525C"/>
<stop offset="0.7449" stop-color="#707F8F"/>
<stop offset="0.9362" stop-color="#A0B5CD"/>
<stop offset="1" stop-color="#B1C9E3"/>
</linearGradient>
</defs>
</svg>
