<svg width="34" height="34" viewBox="0 0 34 34" fill="none" xmlns="http://www.w3.org/2000/svg">
<path d="M18.5273 24.1719C18.5273 25.6365 19.7189 26.8281 21.1836 26.8281H24.3047C25.7693 26.8281 26.9609 25.6365 26.9609 24.1719V21.0508C26.9609 19.5861 25.7693 18.3945 24.3047 18.3945H21.1836C19.7189 18.3945 18.5273 19.5861 18.5273 21.0508V24.1719ZM21.1836 21.0508H24.3047L24.3063 24.1718C24.3063 24.1718 24.3059 24.1719 24.3047 24.1719H21.1836V21.0508Z" fill="#2D4F9E"/>
<path d="M25.6328 15.2734C26.3663 15.2734 26.9609 14.6788 26.9609 13.9453C26.9609 13.2118 26.3663 12.6172 25.6328 12.6172C24.8993 12.6172 24.3047 13.2118 24.3047 13.9453C24.3047 14.6788 24.8993 15.2734 25.6328 15.2734Z" fill="#2D4F9E"/>
<path d="M19.8555 15.2734C20.589 15.2734 21.1836 14.6788 21.1836 13.9453C21.1836 13.2118 20.589 12.6172 19.8555 12.6172C19.122 12.6172 18.5273 13.2118 18.5273 13.9453C18.5273 14.6788 19.122 15.2734 19.8555 15.2734Z" fill="#2D4F9E"/>
<path d="M32.6719 23.375C33.4054 23.375 34 22.7804 34 22.0469V7.96875C34 5.03944 31.6168 2.65625 28.6875 2.65625H26.9609V1.32812C26.9609 0.594602 26.3663 0 25.6328 0C24.8993 0 24.3047 0.594602 24.3047 1.32812V2.65625H18.2617V1.32812C18.2617 0.594602 17.6671 0 16.9336 0C16.2001 0 15.6055 0.594602 15.6055 1.32812V2.65625H9.62891V1.32812C9.62891 0.594602 9.0343 0 8.30078 0C7.56726 0 6.97266 0.594602 6.97266 1.32812V2.65625H5.3125C2.38319 2.65625 0 5.03944 0 7.96875V28.6875C0 31.6168 2.38319 34 5.3125 34H28.6875C31.6168 34 34 31.6168 34 28.6875C34 27.954 33.4054 27.3594 32.6719 27.3594C31.9384 27.3594 31.3438 27.954 31.3438 28.6875C31.3438 30.1522 30.1522 31.3438 28.6875 31.3438H5.3125C3.84784 31.3438 2.65625 30.1522 2.65625 28.6875V7.96875C2.65625 6.50409 3.84784 5.3125 5.3125 5.3125H6.97266V6.64062C6.97266 7.37415 7.56726 7.96875 8.30078 7.96875C9.0343 7.96875 9.62891 7.37415 9.62891 6.64062V5.3125H15.6055V6.64062C15.6055 7.37415 16.2001 7.96875 16.9336 7.96875C17.6671 7.96875 18.2617 7.37415 18.2617 6.64062V5.3125H24.3047V6.64062C24.3047 7.37415 24.8993 7.96875 25.6328 7.96875C26.3663 7.96875 26.9609 7.37415 26.9609 6.64062V5.3125H28.6875C30.1522 5.3125 31.3438 6.50409 31.3438 7.96875V22.0469C31.3438 22.7804 31.9384 23.375 32.6719 23.375Z" fill="#2D4F9E"/>
<path d="M8.30078 26.8281C9.03428 26.8281 9.62891 26.2335 9.62891 25.5C9.62891 24.7665 9.03428 24.1719 8.30078 24.1719C7.56728 24.1719 6.97266 24.7665 6.97266 25.5C6.97266 26.2335 7.56728 26.8281 8.30078 26.8281Z" fill="#2D4F9E"/>
<path d="M8.30078 15.2734C9.03428 15.2734 9.62891 14.6788 9.62891 13.9453C9.62891 13.2118 9.03428 12.6172 8.30078 12.6172C7.56728 12.6172 6.97266 13.2118 6.97266 13.9453C6.97266 14.6788 7.56728 15.2734 8.30078 15.2734Z" fill="#2D4F9E"/>
<path d="M8.30078 21.0508C9.03428 21.0508 9.62891 20.4562 9.62891 19.7227C9.62891 18.9892 9.03428 18.3945 8.30078 18.3945C7.56728 18.3945 6.97266 18.9892 6.97266 19.7227C6.97266 20.4562 7.56728 21.0508 8.30078 21.0508Z" fill="#2D4F9E"/>
<path d="M14.0781 21.0508C14.8116 21.0508 15.4062 20.4562 15.4062 19.7227C15.4062 18.9892 14.8116 18.3945 14.0781 18.3945C13.3446 18.3945 12.75 18.9892 12.75 19.7227C12.75 20.4562 13.3446 21.0508 14.0781 21.0508Z" fill="#2D4F9E"/>
<path d="M14.0781 15.2734C14.8116 15.2734 15.4062 14.6788 15.4062 13.9453C15.4062 13.2118 14.8116 12.6172 14.0781 12.6172C13.3446 12.6172 12.75 13.2118 12.75 13.9453C12.75 14.6788 13.3446 15.2734 14.0781 15.2734Z" fill="#2D4F9E"/>
<path d="M14.0781 26.8281C14.8116 26.8281 15.4062 26.2335 15.4062 25.5C15.4062 24.7665 14.8116 24.1719 14.0781 24.1719C13.3446 24.1719 12.75 24.7665 12.75 25.5C12.75 26.2335 13.3446 26.8281 14.0781 26.8281Z" fill="#2D4F9E"/>
</svg>
