<svg width="166" height="181" viewBox="0 0 166 181" fill="none" xmlns="http://www.w3.org/2000/svg">
<path d="M115.142 34.5738C115.826 35.6279 115.4 36.476 114.148 36.5526L112.812 36.657L103.213 22.0972L104.55 21.9928C105.801 21.9162 107.338 22.6925 108.021 23.7466L115.142 34.5738Z" fill="#E8F6FF"/>
<path d="M103.019 39.4375C96.8503 39.7922 89.1143 35.8854 85.6697 30.6758C83.99 28.0571 83.6467 25.6176 84.5547 23.8101L82.1995 28.4984C81.2915 30.3059 81.578 32.7167 83.3145 35.3641C86.7022 40.545 94.4951 44.4805 100.664 44.1258L111.807 43.5215L114.162 38.8332L103.019 39.4375Z" fill="#A1DAFF"/>
<path d="M114.199 38.8018L103.049 39.407C96.8773 39.7622 89.1371 35.852 85.6908 30.6378C82.3013 25.4524 84.4875 20.9572 90.6595 20.6019L101.809 19.9968L103.233 22.1338L112.832 36.6935L114.199 38.8018Z" fill="#E8F6FF"/>
<path d="M110.613 27.6759L107.001 27.9067L108.168 29.5598L111.695 29.3568L110.613 27.6759Z" fill="url(#paint0_linear)"/>
<path d="M112.453 30.525L108.869 30.6993L110.008 32.4089L113.535 32.2059L112.453 30.525Z" fill="url(#paint1_linear)"/>
<path d="M108.746 24.8839L105.162 25.0582L106.301 26.7678L109.857 26.5082L108.746 24.8839Z" fill="url(#paint2_linear)"/>
<path d="M45.3107 85.4978C44.2843 84.9792 43.571 83.9796 43.5414 82.7572C43.4542 80.9376 44.8493 79.4406 46.5877 79.3955L67.6476 78.4583C68.0751 78.4612 68.3028 78.1501 68.3882 77.9801C68.5019 77.7535 68.5872 77.4414 68.3588 77.042L46.5561 44.0087C45.1007 41.7818 44.8988 39.0519 46.0936 36.6724C47.2884 34.293 49.5385 32.8019 52.2172 32.5926L83.2223 30.6428C84.9891 30.5411 86.5863 31.9162 86.7019 33.6792C86.8175 35.4422 85.4509 37.0246 83.6841 37.1263L52.679 39.0762C52.2515 39.0733 52.0238 39.3844 51.9384 39.5544C51.8246 39.781 51.7394 40.0931 51.9962 40.4359L73.7989 73.4692C75.3114 75.7248 75.4278 78.4826 74.233 80.8621C73.0382 83.2415 70.7026 84.7605 67.9953 84.8842L46.9354 85.8215C46.337 85.8743 45.7669 85.7283 45.3107 85.4978Z" fill="#A1DAFF"/>
<path d="M126.315 131.033C126.599 130.468 126.542 129.587 126.229 129.075C126.059 128.847 125.86 128.675 125.632 128.702L123.783 128.833C123.669 128.633 123.584 128.378 123.499 128.263C123.129 127.722 122.702 127.436 122.247 127.49L119.033 127.64C118.862 127.27 118.691 126.9 118.492 126.587C117.809 125.533 116.928 125.017 116.103 125.097L93.2628 126.405C92.4664 126.429 91.6701 127.02 91.1014 128.152C90.7318 128.888 90.476 129.822 90.4192 130.787L17.1492 134.94C16.4097 134.992 15.8978 135.585 15.9548 136.323C15.9834 136.834 16.2963 137.205 16.6946 137.406C16.8653 137.492 17.1213 137.55 17.3488 137.523L90.6188 133.371C90.7897 134.308 91.1596 135.276 91.6433 136.016C92.3261 137.071 93.208 137.587 94.0328 137.507L116.873 136.198C117.669 136.174 118.466 135.583 119.034 134.452C119.205 134.112 119.29 133.8 119.404 133.432L122.646 133.225C123.073 133.227 123.471 132.861 123.755 132.295C123.869 132.069 123.926 131.814 123.983 131.558L125.803 131.484C125.974 131.429 126.173 131.316 126.315 131.033Z" fill="#EEF8FF"/>
<defs>
<linearGradient id="paint0_linear" x1="107.214" y1="27.5382" x2="111.54" y2="29.7108" gradientUnits="userSpaceOnUse">
<stop stop-color="#207FD6"/>
<stop offset="0.4423" stop-color="#4CA6EC"/>
<stop offset="0.7962" stop-color="#68BFFA"/>
<stop offset="1" stop-color="#73C8FF"/>
</linearGradient>
<linearGradient id="paint1_linear" x1="109.068" y1="30.3631" x2="113.391" y2="32.5338" gradientUnits="userSpaceOnUse">
<stop stop-color="#207FD6"/>
<stop offset="0.4423" stop-color="#4CA6EC"/>
<stop offset="0.7962" stop-color="#68BFFA"/>
<stop offset="1" stop-color="#73C8FF"/>
</linearGradient>
<linearGradient id="paint2_linear" x1="105.365" y1="24.7158" x2="109.687" y2="26.8864" gradientUnits="userSpaceOnUse">
<stop stop-color="#207FD6"/>
<stop offset="0.4423" stop-color="#4CA6EC"/>
<stop offset="0.7962" stop-color="#68BFFA"/>
<stop offset="1" stop-color="#73C8FF"/>
</linearGradient>
</defs>
</svg>
