<svg width="169" height="138" viewBox="0 0 169 138" fill="none" xmlns="http://www.w3.org/2000/svg">
<path d="M99.1453 75.4294L96.1437 80.1633C101.123 72.3116 98.8747 60.1559 88.8914 48.0128C74.2045 30.2313 48.2334 19.1507 31.0255 23.3725C25.5141 24.7247 21.5596 27.4824 19.2377 31.172L22.2394 26.4381C24.5841 22.7103 28.5386 19.9527 34.0271 18.6386C51.235 14.4168 77.1678 25.4743 91.8931 43.2789C101.861 55.3608 104.11 67.5165 99.1453 75.4294Z" fill="url(#paint0_linear)"/>
<path d="M101.974 77.3796L98.972 82.1134C96.4286 86.0848 92.1988 89.04 86.2588 90.4974C67.7651 95.0346 39.8326 83.1356 23.9872 63.9813C13.2292 50.956 10.8104 37.8673 16.1567 29.4058L19.1584 24.672C13.812 33.1335 16.2308 46.2222 26.9888 59.2474C42.8342 78.4018 70.7284 90.2777 89.2604 85.7635C95.2004 84.3062 99.4685 81.3741 101.974 77.3796Z" fill="url(#paint1_linear)"/>
<path d="M146.636 118.193C146.674 118.216 146.674 118.216 146.636 118.193L100.046 79.3211C99.8774 79.1675 99.4488 79.2726 98.814 79.7208C97.2079 80.8297 94.8617 83.5174 93.5177 85.6667C92.7388 86.9626 92.4952 87.8022 92.7177 88.0401L139.346 126.935C139.514 127.088 139.943 126.983 140.578 126.535C142.184 125.426 144.53 122.738 145.874 120.589C146.714 119.278 146.919 118.415 146.636 118.193Z" fill="url(#paint2_linear)"/>
<path d="M94.232 42.6997C78.3777 23.5301 50.4679 11.6445 31.9258 16.1621C13.422 20.7027 11.2248 40.0088 27.0178 59.1935C42.8721 78.3632 70.7818 90.2488 89.324 85.7312C107.866 81.2136 110.063 61.9076 94.232 42.6997ZM87.3047 83.2669C70.0876 87.4919 44.1407 76.4256 29.4073 58.6071C14.7123 40.8118 16.7279 22.8513 33.945 18.6263C51.1622 14.4014 77.1091 25.4676 91.8424 43.2861C106.553 61.1428 104.522 79.042 87.3047 83.2669Z" fill="#EEF8FF"/>
<path opacity="0.62" d="M91.8836 43.3097C77.1884 25.5143 51.2031 14.4248 33.986 18.6495C16.7689 22.8742 14.7152 40.8115 29.4487 58.6301C44.1823 76.4486 70.1293 87.5151 87.3464 83.2903C104.525 79.0425 106.556 61.1433 91.8836 43.3097Z" fill="#EEF8FF"/>
<path d="M34.2446 44.2347C35.3206 46.1823 34.4037 47.7083 32.2201 47.6912C29.998 47.651 27.3519 46.0561 26.276 44.1085C25.2 42.1608 26.1169 40.6349 28.3006 40.652C30.5226 40.6922 33.1687 42.287 34.2446 44.2347Z" fill="#EEF8FF"/>
<defs>
<linearGradient id="paint0_linear" x1="26.6385" y1="18.8203" x2="104.886" y2="65.8459" gradientUnits="userSpaceOnUse">
<stop stop-color="#73C8FF"/>
<stop offset="0.2038" stop-color="#68BFFA"/>
<stop offset="0.5577" stop-color="#4CA6EC"/>
<stop offset="1" stop-color="#207FD6"/>
</linearGradient>
<linearGradient id="paint1_linear" x1="9.97227" y1="39.7779" x2="94.1647" y2="90.3767" gradientUnits="userSpaceOnUse">
<stop stop-color="#73C8FF"/>
<stop offset="0.2038" stop-color="#68BFFA"/>
<stop offset="0.5577" stop-color="#4CA6EC"/>
<stop offset="1" stop-color="#207FD6"/>
</linearGradient>
<linearGradient id="paint2_linear" x1="123.508" y1="98.6765" x2="115.806" y2="107.748" gradientUnits="userSpaceOnUse">
<stop stop-color="#2580D3"/>
<stop offset="0.0762773" stop-color="#2377CD"/>
<stop offset="0.4933" stop-color="#1649AC"/>
<stop offset="0.8149" stop-color="#0F2D98"/>
<stop offset="1" stop-color="#0C2291"/>
</linearGradient>
</defs>
</svg>
