<svg width="161" height="138" viewBox="0 0 161 138" fill="none" xmlns="http://www.w3.org/2000/svg">
<g filter="url(#filter0_d)">
<path d="M27.4422 53.1987L6.69697 61.7446L19.3115 62.985L40.0568 54.4392C41.4744 53.8908 42.7939 53.6733 44.1509 53.7995L31.5364 52.559C30.2472 52.4392 28.8659 52.5829 27.4422 53.1987Z" fill="url(#paint0_linear)"/>
<path d="M43.0668 16.9969L55.694 18.2485C66.1479 19.2964 75.2711 29.1394 79.8081 44.3402L67.1808 43.0886C62.5758 27.8814 53.5206 18.0448 43.0668 16.9969Z" fill="url(#paint1_linear)"/>
<path d="M45.0705 127.848L32.4242 126.593C35.6213 126.893 38.8846 126.449 42.2321 125.058C56.6846 119.114 67.5091 98.4353 69.721 75.1071L82.3673 76.3615C80.1614 99.622 69.2629 120.362 54.8784 126.312C51.5309 127.703 48.2676 128.148 45.0705 127.848Z" fill="url(#paint2_linear)"/>
<path d="M143.541 27.9764C144.529 39.1192 139.819 50.4134 133.064 53.195L69.7595 74.8581L82.3864 76.1023L145.691 54.4391C152.446 51.6575 157.156 40.3633 156.168 29.2206C155.406 20.1453 151.16 14.02 145.937 13.4653L133.31 12.2212C138.533 12.7759 142.779 18.9012 143.541 27.9764Z" fill="url(#paint3_linear)"/>
<path d="M6.53072 61.6271C10.0579 41.2331 20.0922 23.9718 33.1149 18.5805C47.5572 12.6406 61.0702 23.3162 67.0498 43.1704L129.641 12.9776C136.399 10.2029 142.649 16.9931 143.579 28.1244C144.576 39.2622 139.871 50.5468 133.113 53.3215L69.778 74.9228C67.5738 98.1679 56.683 118.894 42.3087 124.84C29.292 130.164 17.058 122.062 10.3398 105.889L31.1145 97.3384C38.5146 94.283 43.6615 81.881 42.6245 69.6487C41.5875 57.4165 34.7115 49.954 27.3114 53.0094L6.53072 61.6271Z" fill="#F2FAFE"/>
</g>
<defs>
<filter id="filter0_d" x="2.53076" y="12.2212" width="157.768" height="123.716" filterUnits="userSpaceOnUse" color-interpolation-filters="sRGB">
<feFlood flood-opacity="0" result="BackgroundImageFix"/>
<feColorMatrix in="SourceAlpha" type="matrix" values="0 0 0 0 0 0 0 0 0 0 0 0 0 0 0 0 0 0 127 0"/>
<feOffset dy="4"/>
<feGaussianBlur stdDeviation="2"/>
<feColorMatrix type="matrix" values="0 0 0 0 0 0 0 0 0 0 0 0 0 0 0 0 0 0 0.25 0"/>
<feBlend mode="normal" in2="BackgroundImageFix" result="effect1_dropShadow"/>
<feBlend mode="normal" in="SourceGraphic" in2="effect1_dropShadow" result="shape"/>
</filter>
<linearGradient id="paint0_linear" x1="24.9065" y1="63.5064" x2="25.974" y2="52.0215" gradientUnits="userSpaceOnUse">
<stop stop-color="#73C8FF"/>
<stop offset="0.2038" stop-color="#68BFFA"/>
<stop offset="0.5577" stop-color="#4CA6EC"/>
<stop offset="1" stop-color="#207FD6"/>
</linearGradient>
<linearGradient id="paint1_linear" x1="60.3657" y1="42.5616" x2="62.5893" y2="18.838" gradientUnits="userSpaceOnUse">
<stop stop-color="#73C8FF"/>
<stop offset="0.2038" stop-color="#68BFFA"/>
<stop offset="0.5577" stop-color="#4CA6EC"/>
<stop offset="1" stop-color="#207FD6"/>
</linearGradient>
<linearGradient id="paint2_linear" x1="54.9884" y1="128.779" x2="60.1068" y2="74.2109" gradientUnits="userSpaceOnUse">
<stop stop-color="#73C8FF"/>
<stop offset="0.2038" stop-color="#68BFFA"/>
<stop offset="0.5577" stop-color="#4CA6EC"/>
<stop offset="1" stop-color="#207FD6"/>
</linearGradient>
<linearGradient id="paint3_linear" x1="110.855" y1="78.7642" x2="117.19" y2="10.7351" gradientUnits="userSpaceOnUse">
<stop stop-color="#73C8FF"/>
<stop offset="0.2038" stop-color="#68BFFA"/>
<stop offset="0.5577" stop-color="#4CA6EC"/>
<stop offset="1" stop-color="#207FD6"/>
</linearGradient>
</defs>
</svg>
