<svg width="165" height="22" fill="none" xmlns="http://www.w3.org/2000/svg"><path fill-rule="evenodd" clip-rule="evenodd" d="M90.48 10.216s-1.605-.904-2.598-1.254c0 0-3.073-1.297-3.682-1.914 0 0-1.198-1.027-.497-2.221 0 0 .294-.781 1.56-.781 0 0 1.647.082 1.647 1.315v1.74h5.904l-.01-2.562s.454-4.195-6.955-4.38c0 0-5.827-.349-7.498 2.51 0 0-.656.637-.656 2.857v1.605s-.067 1.85.971 3.043c0 0 .587.783 2.033 1.645 0 0 2.935 1.44 4.697 2.264 0 0 1.778.924 1.545 2.396 0 0-.145 1.51-1.863 1.448 0 0-1.57-.064-1.57-1.545v-1.739h-6.292v2.526s-.176 4.829 7.908 4.829c0 0 7.725.142 8.086-4.956v-2.056c-.001 0 .273-3.125-2.73-4.77zM60.252.76l-1.977 11.282h-.463L55.924.862H46.06l-.494 20.43h5.84l.07-15.393h.459l3.095 15.39h6.143l3.058-15.385h.406l.141 15.389h5.87L70.018.76h-9.765zM25.49.846l-3.885 20.423h6.286l2.302-15.835h.516l2.3 15.835h6.286L35.412.846h-9.921zm131.908 9.088v3.013h1.612v3.234c0 1.581-1.484 1.61-1.484 1.61-1.804 0-1.736-1.502-1.736-1.502V5.103c0-1.153 1.602-1.215 1.602-1.215 1.536 0 1.546 1.375 1.546 1.375v1.7h5.919c.193-3.32-.533-4.123-.533-4.123-1.469-3.002-7.023-2.838-7.023-2.838-8.535 0-7.588 5.963-7.588 5.963v10.816c.183 5.594 8.594 5.025 8.736 5.02 3.741-.376 4.871-1.46 4.871-1.46 1.04-.703 1.307-1.677 1.307-1.677.298-.567.372-2.375.372-2.375V9.934h-7.601zM137.78 13.26h-.258L131.516.765h-7.186v20.528h5.848l-.35-12.49h.262l6.222 12.49h6.968V.764h-5.923l.423 12.495zm-27.727 2.92s.084 1.685-1.631 1.685c0 0-1.804.089-1.804-1.642L106.599.778h-6.415v15.32s-.658 5.8 8.328 5.8c0 0 7.81.084 7.81-5.533V.78h-6.269v15.4zm-96.792-5.963s-1.603-.904-2.597-1.253c0 0-3.07-1.296-3.68-1.914 0 0-1.198-1.03-.495-2.22 0 0 .292-.781 1.556-.781 0 0 1.649.081 1.649 1.314v1.74H15.6l-.01-2.563S16.04.344 8.633.16c0 0-.558-.033-1.376.005 0 0-4.487.22-6.091 2.46-.01.017-.023.03-.032.044 0 0-.655.637-.655 2.858v1.605s-.068 1.85.971 3.043c0 0 .587.782 2.033 1.645 0 0 2.934 1.44 4.696 2.264 0 0 1.78.922 1.545 2.396 0 0-.145 1.51-1.862 1.448 0 0-1.57-.064-1.57-1.545v-1.74H0v2.527S-.176 22 7.908 22c0 0 7.723.142 8.087-4.956v-2.055c0-.001.27-3.128-2.734-4.773z" fill="#2D4F9E"/></svg>