<svg width="110" height="16" fill="none" xmlns="http://www.w3.org/2000/svg"><path fill-rule="evenodd" clip-rule="evenodd" d="M60.32 7.43s-1.07-.658-1.732-.912c0 0-2.049-.943-2.455-1.392 0 0-.798-.747-.33-1.616 0 0 .195-.568 1.039-.568 0 0 1.098.06 1.098.957v1.265h3.936l-.007-1.863s.303-3.05-4.636-3.185c0 0-3.885-.254-4.999 1.825 0 0-.437.463-.437 2.078v1.167s-.045 1.346.647 2.214c0 0 .391.568 1.355 1.196 0 0 1.957 1.047 3.132 1.646 0 0 1.185.672 1.03 1.742 0 0-.097 1.099-1.242 1.054 0 0-1.047-.046-1.047-1.124V10.65h-4.194v1.836s-.118 3.512 5.272 3.512c0 0 5.15.104 5.39-3.604V10.9s.182-2.273-1.82-3.47zM40.168.553L38.85 8.758h-.308L37.282.627h-6.574l-.33 14.858h3.893l.047-11.195h.306l2.063 11.194h4.096l2.038-11.19h.271l.094 11.192H47.1L46.678.553h-6.51zM16.994.615l-2.59 14.854h4.19L20.13 3.952h.345l1.533 11.517h4.19L23.608.615h-6.614zm87.938 6.61v2.191h1.075v2.352c0 1.15-.989 1.171-.989 1.171-1.202 0-1.157-1.092-1.157-1.092V3.71c0-.838 1.067-.883 1.067-.883 1.025 0 1.031 1 1.031 1v1.237h3.946c.129-2.415-.355-3-.355-3C108.571-.119 104.868 0 104.868 0c-5.69 0-5.059 4.337-5.059 4.337v7.867c.123 4.068 5.73 3.654 5.824 3.65 2.494-.273 3.247-1.061 3.247-1.061.694-.511.872-1.22.872-1.22.199-.413.248-1.727.248-1.727V7.225h-5.068zM91.853 9.643h-.171L87.677.557h-4.79v14.93h3.898l-.233-9.084h.174l4.149 9.084h4.645V.556h-3.948l.281 9.087zm-18.485 2.124s.057 1.225-1.087 1.225c0 0-1.203.064-1.203-1.195L71.066.566h-4.277v11.142s-.438 4.217 5.552 4.217c0 0 5.207.062 5.207-4.023V.566h-4.18v11.2zM8.841 7.43s-1.07-.658-1.732-.911c0 0-2.047-.943-2.453-1.392 0 0-.798-.75-.33-1.615 0 0 .195-.568 1.038-.568 0 0 1.099.06 1.099.956v1.265H10.4L10.393 3.3s.3-3.05-4.637-3.185c0 0-.372-.023-.918.004 0 0-2.99.16-4.06 1.79-.006.012-.015.02-.021.031 0 0-.437.463-.437 2.079v1.167S.275 6.533.967 7.4c0 0 .392.57 1.356 1.196 0 0 1.956 1.047 3.13 1.647 0 0 1.187.67 1.03 1.742 0 0-.097 1.099-1.24 1.054 0 0-1.048-.047-1.048-1.124V10.65H0v1.838S-.117 16 5.272 16c0 0 5.149.103 5.391-3.604V10.9s.18-2.275-1.822-3.471z" fill="#2D4F9E"/></svg>