<svg width="272" height="229" fill="none" xmlns="http://www.w3.org/2000/svg"><path opacity=".018" d="M190.292 105.088c3.019-1.772 6.991-2.724 11.126-2.724 2.987 0 5.875.493 8.402 1.444.952.361 1.903.788 2.757 1.28l51.592 29.768c3.643 2.1 5.744 5.251 5.744 8.632 0 3.38-2.068 6.498-5.678 8.598l-126.291 73.385c-3.019 1.773-6.99 2.724-11.126 2.724-2.986 0-5.874-.492-8.401-1.444-.952-.361-1.904-.787-2.757-1.28l-51.593-29.8c-3.643-2.1-5.743-5.251-5.743-8.632 0-3.38 2.067-6.498 5.677-8.598l126.291-73.353z" fill="#FDFEFE"/><path opacity=".036" d="M190.194 105.351c3.019-1.74 6.925-2.691 11.06-2.691 2.954 0 5.842.525 8.336 1.444.952.361 1.904.82 2.724 1.28l51.298 29.603c3.61 2.101 5.677 5.186 5.677 8.533 0 3.348-2.034 6.433-5.612 8.501l-125.601 73.024c-3.02 1.739-6.925 2.691-11.061 2.691-2.953 0-5.841-.525-8.336-1.444a20.93 20.93 0 01-2.724-1.28l-51.297-29.604c-3.61-2.067-5.678-5.185-5.678-8.533 0-3.347 2.035-6.432 5.612-8.5l125.602-73.024z" fill="#FCFDFE"/><path opacity=".054" d="M190.096 105.613c2.987-1.739 6.893-2.691 10.995-2.691 2.954 0 5.809.525 8.304 1.444.918.361 1.903.82 2.724 1.28l51.002 29.439c3.577 2.068 5.612 5.153 5.645 8.468 0 3.282-2.002 6.367-5.547 8.435l-125.044 72.663c-2.986 1.739-6.892 2.691-10.994 2.691-2.954 0-5.809-.525-8.304-1.444a23.182 23.182 0 01-2.724-1.28l-51.002-29.44c-3.577-2.067-5.612-5.152-5.612-8.467 0-3.282 2.002-6.367 5.547-8.435l125.01-72.663z" fill="#FAFCFD"/><path opacity=".071" d="M189.996 105.909c2.987-1.74 6.86-2.659 10.929-2.659 2.921 0 5.777.526 8.238 1.445.919.328 1.904.82 2.691 1.28l50.74 29.275c3.544 2.035 5.579 5.087 5.579 8.369 0 3.249-2.002 6.301-5.513 8.336l-124.355 72.302c-2.986 1.74-6.859 2.659-10.929 2.659-2.921 0-5.776-.526-8.238-1.444-.918-.329-1.903-.821-2.691-1.28l-50.74-29.309c-3.544-2.034-5.579-5.087-5.579-8.369 0-3.249 2.002-6.301 5.514-8.336l124.354-72.269z" fill="#F8FBFD"/><path opacity=".089" d="M189.9 106.171c2.954-1.706 6.827-2.658 10.864-2.625 2.921 0 5.743.525 8.172 1.444.886.328 1.903.82 2.691 1.28l50.444 29.111c3.512 2.035 5.514 5.054 5.514 8.303 0 3.217-1.969 6.236-5.448 8.271l-123.731 71.908c-2.954 1.707-6.827 2.659-10.896 2.626-2.921 0-5.744-.525-8.205-1.444a18.434 18.434 0 01-2.691-1.28l-50.445-29.111c-3.511-2.035-5.513-5.055-5.513-8.271 0-3.216 1.969-6.236 5.448-8.271L189.9 106.171z" fill="#F7FAFC"/><path opacity=".107" d="M189.832 106.467c2.954-1.707 6.794-2.626 10.831-2.626 2.888 0 5.71.525 8.139 1.444.886.329 1.904.821 2.658 1.248l50.149 28.947c3.479 2.002 5.481 4.988 5.481 8.205 0 3.183-1.969 6.17-5.415 8.172l-123.14 71.58c-2.954 1.706-6.794 2.625-10.831 2.625-2.888 0-5.71-.525-8.139-1.444a19.813 19.813 0 01-2.659-1.247l-50.148-28.947c-3.48-2.002-5.448-4.989-5.481-8.205 0-3.183 1.969-6.17 5.415-8.172l123.14-71.58z" fill="#F5F9FC"/><path opacity=".125" d="M189.737 106.729c2.921-1.706 6.761-2.625 10.765-2.592 2.888.032 5.677.525 8.073 1.476.854.329 1.904.821 2.659 1.248l49.853 28.783c3.446 2.002 5.415 4.955 5.415 8.106s-1.936 6.105-5.349 8.074l-122.517 71.219c-2.921 1.706-6.761 2.625-10.765 2.593-2.888-.033-5.678-.526-8.106-1.477a22.008 22.008 0 01-2.659-1.247l-49.853-28.783c-3.413-2.002-5.382-4.956-5.382-8.107 0-3.151 1.936-6.104 5.35-8.074l122.516-71.219z" fill="#F3F8FB"/><path opacity=".143" d="M189.641 106.992c2.921-1.674 6.728-2.593 10.699-2.56 2.856.033 5.645.525 8.041 1.477.854.328 1.904.82 2.626 1.247l49.591 28.619c3.413 1.969 5.349 4.89 5.349 8.041 0 3.118-1.903 6.039-5.284 8.008L138.77 222.649c-2.921 1.674-6.728 2.593-10.699 2.56-2.855-.033-5.645-.525-8.041-1.477-.853-.328-1.903-.82-2.625-1.247l-49.591-28.619c-3.413-1.969-5.35-4.89-5.35-8.041 0-3.118 1.904-6.039 5.284-8.008l121.893-70.825z" fill="#F2F7FB"/><path opacity=".161" d="M189.541 107.287c2.888-1.673 6.696-2.592 10.634-2.56 2.855.033 5.612.526 7.975 1.477.821.296 1.904.821 2.626 1.247l49.295 28.455c3.381 1.969 5.317 4.858 5.317 7.943s-1.904 5.973-5.251 7.909l-121.27 70.464c-2.888 1.674-6.695 2.593-10.633 2.56-2.855-.032-5.612-.525-8.008-1.477a17.45 17.45 0 01-2.626-1.247l-49.295-28.454c-3.38-1.937-5.317-4.858-5.317-7.943s1.904-5.973 5.251-7.909l121.302-70.465z" fill="#F0F6FA"/><path opacity=".179" d="M189.439 107.549c2.888-1.673 6.662-2.559 10.568-2.527 2.822.033 5.579.525 7.942 1.477.82.296 1.903.854 2.593 1.247l49 28.291c3.347 1.936 5.251 4.792 5.251 7.844 0 3.052-1.871 5.908-5.186 7.811l-120.613 70.136c-2.888 1.674-6.662 2.56-10.568 2.527-2.822-.033-5.579-.525-7.942-1.477-.82-.295-1.903-.853-2.593-1.247l-49-28.29c-3.347-1.937-5.25-4.792-5.25-7.844 0-3.053 1.87-5.908 5.185-7.844l120.613-70.104z" fill="#EFF6FA"/><path opacity=".196" d="M189.343 107.845c2.855-1.674 6.629-2.56 10.502-2.527 2.823.033 5.547.525 7.877 1.477.788.295 1.903.853 2.56 1.247l48.704 28.126c3.315 1.904 5.186 4.759 5.219 7.779 0 3.019-1.838 5.842-5.12 7.745l-119.989 69.742c-2.856 1.674-6.63 2.56-10.503 2.527-2.822-.032-5.546-.525-7.909-1.476-.788-.296-1.904-.854-2.56-1.248l-48.705-28.159c-3.315-1.904-5.185-4.759-5.185-7.778 0-3.02 1.838-5.842 5.152-7.746l119.957-69.709z" fill="#EDF5F9"/><path opacity=".214" d="M189.274 108.107c2.855-1.641 6.564-2.527 10.437-2.494 2.79.033 5.514.525 7.844 1.477.787.295 1.903.853 2.56 1.247l48.442 27.963c3.282 1.903 5.153 4.693 5.153 7.68 0 2.986-1.838 5.776-5.088 7.647l-119.398 69.381c-2.855 1.641-6.564 2.527-10.437 2.494-2.789-.033-5.514-.525-7.844-1.477-.787-.295-1.903-.853-2.56-1.247l-48.442-27.963c-3.282-1.903-5.152-4.693-5.152-7.679 0-2.987 1.837-5.777 5.087-7.647l119.398-69.382z" fill="#EBF4F9"/><path opacity=".232" d="M189.178 108.37c2.823-1.641 6.532-2.527 10.404-2.461 2.79.032 5.481.525 7.779 1.477.755.295 1.87.853 2.527 1.247l48.146 27.798c3.25 1.871 5.088 4.661 5.088 7.614 0 2.954-1.806 5.711-5.022 7.582l-118.775 68.987c-2.822 1.641-6.531 2.527-10.404 2.461-2.789-.032-5.481-.525-7.811-1.476a20.125 20.125 0 01-2.527-1.248l-48.114-27.765c-3.249-1.871-5.087-4.661-5.087-7.614 0-2.954 1.805-5.711 5.021-7.582l118.775-69.02z" fill="#EAF3F8"/><path opacity=".25" d="M189.085 108.666c2.822-1.641 6.498-2.495 10.338-2.462 2.757.033 5.448.558 7.746 1.477.722.262 1.87.853 2.527 1.214l47.851 27.635c3.216 1.87 5.021 4.594 5.054 7.515 0 2.888-1.772 5.645-4.988 7.483l-118.152 68.659c-2.822 1.641-6.498 2.495-10.338 2.462-2.757-.033-5.448-.558-7.746-1.477-.722-.263-1.87-.853-2.527-1.214L71 192.323c-3.217-1.87-5.022-4.595-5.055-7.515 0-2.921 1.805-5.645 4.988-7.483l118.152-68.659z" fill="#E8F2F8"/><path opacity=".268" d="M188.977 108.928c2.79-1.608 6.466-2.461 10.273-2.429 2.757.033 5.415.558 7.68 1.477.722.263 1.871.854 2.494 1.215l47.589 27.47c3.183 1.838 4.989 4.562 4.989 7.417 0 2.855-1.773 5.547-4.923 7.385l-117.528 68.33c-2.79 1.609-6.466 2.462-10.273 2.429-2.757-.033-5.415-.558-7.68-1.477-.722-.262-1.87-.853-2.494-1.214l-47.589-27.47c-3.183-1.838-4.988-4.529-4.988-7.418 0-2.855 1.772-5.579 4.923-7.384l117.527-68.331z" fill="#E6F1F7"/><path opacity=".286" d="M188.879 109.224c2.79-1.609 6.433-2.462 10.207-2.396 2.724.033 5.383.558 7.647 1.477.689.262 1.871.853 2.495 1.214l47.293 27.306c3.151 1.838 4.923 4.496 4.923 7.352 0 2.822-1.74 5.481-4.857 7.319l-116.905 67.937c-2.789 1.608-6.432 2.461-10.207 2.395-2.724-.032-5.382-.558-7.647-1.476-.689-.263-1.87-.854-2.494-1.215l-47.293-27.339c-3.151-1.838-4.923-4.496-4.923-7.351 0-2.823 1.74-5.481 4.857-7.319l116.904-67.904z" fill="#E5F0F7"/><path opacity=".304" d="M188.82 109.486c2.756-1.608 6.399-2.429 10.141-2.396 2.724.033 5.35.558 7.581 1.477.689.263 1.871.886 2.462 1.215l46.998 27.142c3.118 1.805 4.89 4.43 4.89 7.253 0 2.789-1.74 5.415-4.825 7.22l-116.28 67.576c-2.757 1.608-6.4 2.429-10.142 2.396-2.724-.033-5.349-.558-7.581-1.477-.689-.262-1.871-.886-2.461-1.214l-46.998-27.142c-3.118-1.805-4.89-4.431-4.89-7.253 0-2.79 1.739-5.416 4.824-7.221l116.281-67.576z" fill="#E3EFF6"/><path opacity=".321" d="M188.719 109.748c2.757-1.608 6.367-2.428 10.076-2.363 2.691.033 5.317.558 7.549 1.477.656.263 1.87.886 2.461 1.215l46.703 26.978c3.085 1.772 4.824 4.397 4.824 7.187 0 2.757-1.706 5.35-4.759 7.122l-115.657 67.215c-2.757 1.608-6.367 2.429-10.075 2.363-2.692-.033-5.317-.558-7.549-1.477-.656-.262-1.871-.886-2.461-1.214l-46.703-26.978c-3.085-1.772-4.825-4.398-4.825-7.155 0-2.757 1.707-5.349 4.76-7.154l115.656-67.216z" fill="#E1EEF6"/><path opacity=".339" d="M188.621 110.044c2.724-1.576 6.334-2.396 10.01-2.33 2.692.032 5.284.558 7.483 1.477.657.229 1.871.886 2.429 1.214l46.44 26.814c3.052 1.772 4.759 4.332 4.759 7.089 0 2.724-1.674 5.284-4.726 7.056l-115.001 66.821c-2.724 1.575-6.334 2.396-10.01 2.33-2.691-.032-5.284-.558-7.483-1.477-.656-.229-1.871-.886-2.429-1.214l-46.44-26.814c-3.052-1.772-4.759-4.332-4.759-7.089 0-2.724 1.674-5.284 4.727-7.056l115-66.821z" fill="#E0EDF5"/><path opacity=".357" d="M188.518 110.307c2.725-1.576 6.302-2.396 9.978-2.331 2.658.033 5.251.558 7.45 1.477.623.23 1.871.886 2.428 1.215l46.145 26.649c3.02 1.74 4.726 4.3 4.726 6.991s-1.674 5.218-4.66 6.958l-114.41 66.493c-2.724 1.575-6.302 2.395-9.977 2.33-2.659-.033-5.252-.558-7.45-1.477-.624-.23-1.871-.886-2.429-1.214l-46.145-26.65c-3.02-1.74-4.726-4.299-4.726-6.991 0-2.691 1.674-5.218 4.66-6.958l114.41-66.492z" fill="#DEECF5"/><path opacity=".375" d="M188.42 110.602c2.691-1.575 6.269-2.363 9.912-2.297 2.658.065 5.218.558 7.384 1.509.624.23 1.871.886 2.396 1.215l45.849 26.485c2.987 1.74 4.661 4.234 4.661 6.925 0 2.659-1.641 5.153-4.595 6.892l-113.786 66.132c-2.692 1.576-6.269 2.363-9.912 2.298-2.658-.066-5.218-.558-7.384-1.51-.624-.23-1.871-.886-2.396-1.214l-45.85-26.486c-2.986-1.739-4.66-4.234-4.66-6.925 0-2.658 1.641-5.153 4.595-6.892l113.786-66.132z" fill="#DCEBF4"/><path opacity=".393" d="M188.321 110.865c2.691-1.543 6.203-2.364 9.846-2.298 2.626.066 5.186.558 7.352 1.51.59.23 1.87.886 2.396 1.181l45.554 26.322c2.953 1.706 4.594 4.201 4.627 6.826 0 2.626-1.608 5.087-4.562 6.794l-113.163 65.771c-2.691 1.543-6.235 2.363-9.846 2.297-2.625-.065-5.185-.558-7.351-1.509-.591-.23-1.871-.886-2.396-1.182l-45.554-26.321c-2.954-1.707-4.595-4.201-4.628-6.827 0-2.625 1.609-5.087 4.562-6.794l113.163-65.77z" fill="#DBEAF4"/><path opacity=".411" d="M188.262 111.127c2.658-1.542 6.17-2.33 9.78-2.264 2.625.065 5.153.558 7.286 1.509.591.23 1.871.887 2.363 1.182l45.291 26.157c2.921 1.707 4.562 4.136 4.562 6.728 0 2.593-1.608 5.022-4.496 6.696l-112.539 65.41c-2.659 1.542-6.17 2.33-9.781 2.264-2.625-.066-5.152-.558-7.286-1.51-.59-.229-1.87-.886-2.363-1.181L75.788 189.96c-2.92-1.706-4.562-4.135-4.562-6.728 0-2.592 1.608-5.021 4.496-6.695l112.54-65.41z" fill="#D9E9F3"/><path opacity=".429" d="M188.16 111.423c2.658-1.543 6.137-2.331 9.715-2.232 2.592.065 5.119.558 7.253 1.51.558.196 1.87.918 2.363 1.181l44.996 25.961c2.888 1.673 4.496 4.102 4.496 6.662 0 2.56-1.575 4.956-4.463 6.63l-111.916 65.048c-2.658 1.543-6.137 2.331-9.715 2.232-2.593-.065-5.12-.558-7.253-1.509-.558-.197-1.871-.919-2.363-1.182l-44.996-25.96c-2.888-1.674-4.496-4.103-4.496-6.663 0-2.56 1.575-4.956 4.463-6.63l111.916-65.048z" fill="#D8E8F3"/><path opacity=".446" d="M188.064 111.685c2.626-1.543 6.105-2.297 9.649-2.232 2.593.066 5.088.558 7.188 1.51.558.197 1.871.919 2.33 1.181l44.701 25.797c2.855 1.641 4.463 4.037 4.463 6.564s-1.575 4.89-4.398 6.531l-111.292 64.688c-2.625 1.542-6.104 2.297-9.649 2.231-2.592-.065-5.087-.557-7.187-1.509-.558-.197-1.871-.919-2.33-1.182l-44.701-25.796c-2.855-1.641-4.463-4.037-4.463-6.564s1.575-4.89 4.397-6.531l111.292-64.688z" fill="#D6E7F2"/><path opacity=".464" d="M187.965 111.981c2.626-1.51 6.072-2.298 9.583-2.199 2.56.065 5.055.59 7.155 1.509.525.197 1.871.919 2.33 1.182l44.405 25.632c2.823 1.641 4.398 4.004 4.398 6.499 0 2.461-1.542 4.824-4.332 6.465l-110.668 64.327c-2.626 1.51-6.072 2.297-9.584 2.199-2.56-.066-5.054-.591-7.154-1.51-.526-.197-1.871-.919-2.331-1.181l-44.405-25.633c-2.822-1.641-4.398-4.004-4.398-6.465 0-2.462 1.543-4.825 4.332-6.466l110.669-64.359z" fill="#D4E6F2"/><path opacity=".482" d="M187.862 112.243c2.593-1.51 6.039-2.265 9.55-2.166 2.56.066 5.022.591 7.089 1.51.526.197 1.871.919 2.298 1.181l44.142 25.468c2.79 1.609 4.333 3.939 4.333 6.4 0 2.429-1.51 4.759-4.3 6.367l-110.045 63.966c-2.592 1.51-6.038 2.265-9.55 2.166-2.56-.065-5.022-.591-7.089-1.51-.525-.196-1.871-.918-2.298-1.181l-44.11-25.468c-2.79-1.608-4.332-3.939-4.332-6.4 0-2.429 1.51-4.759 4.3-6.367l110.012-63.966z" fill="#D3E5F1"/><path opacity=".5" d="M187.768 112.506c2.592-1.51 6.006-2.232 9.485-2.166 2.527.065 4.988.59 7.056 1.509.492.197 1.871.919 2.297 1.182l43.848 25.304c2.756 1.608 4.299 3.905 4.299 6.301 0 2.396-1.51 4.693-4.234 6.269L141.098 214.51c-2.593 1.509-6.006 2.231-9.485 2.166-2.527-.066-4.989-.591-7.056-1.51-.493-.197-1.871-.919-2.298-1.181L78.412 188.68c-2.757-1.608-4.3-3.905-4.3-6.301 0-2.396 1.51-4.693 4.234-6.269l109.422-63.604z" fill="#D1E5F1"/><path opacity=".518" d="M187.701 112.801c2.56-1.477 5.974-2.232 9.42-2.133 2.527.065 4.955.59 6.99 1.509.46.165 1.871.919 2.265 1.149l43.552 25.14c2.724 1.575 4.233 3.84 4.233 6.236 0 2.363-1.476 4.627-4.168 6.203l-108.797 63.244c-2.56 1.477-5.974 2.231-9.42 2.133-2.527-.066-4.955-.591-6.99-1.51-.46-.164-1.871-.919-2.265-1.148l-43.585-25.173c-2.724-1.576-4.233-3.84-4.233-6.236 0-2.363 1.477-4.628 4.2-6.203l108.798-63.211z" fill="#CFE4F1"/><path opacity=".536" d="M187.603 113.063c2.56-1.476 5.941-2.198 9.354-2.1 2.494.066 4.923.591 6.958 1.51.459.164 1.87.919 2.264 1.148l43.257 24.976c2.691 1.576 4.168 3.807 4.201 6.138 0 2.33-1.444 4.562-4.136 6.104l-108.207 62.883c-2.559 1.477-5.94 2.199-9.353 2.1-2.494-.065-4.923-.59-6.958-1.509-.459-.164-1.871-.919-2.265-1.149l-43.256-24.976c-2.691-1.575-4.168-3.807-4.201-6.137 0-2.33 1.444-4.562 4.135-6.105l108.207-62.883z" fill="#CEE3F0"/><path opacity=".554" d="M187.505 113.359c2.527-1.477 5.908-2.199 9.288-2.101 2.494.066 4.89.591 6.892 1.51.427.164 1.871.919 2.232 1.149l42.994 24.812c2.658 1.542 4.135 3.741 4.135 6.038 0 2.298-1.444 4.497-4.069 6.006l-107.584 62.522c-2.527 1.477-5.907 2.199-9.288 2.101-2.494-.066-4.89-.591-6.892-1.51-.427-.164-1.871-.919-2.232-1.149l-42.994-24.812c-2.658-1.542-4.135-3.741-4.135-6.038 0-2.298 1.444-4.497 4.07-6.039l107.583-62.489z" fill="#CCE2F0"/><path opacity=".571" d="M187.409 113.621c2.527-1.444 5.842-2.166 9.222-2.067 2.462.065 4.857.591 6.859 1.51.427.164 1.838.951 2.232 1.148l42.699 24.648c2.625 1.51 4.069 3.709 4.069 5.973 0 2.265-1.411 4.431-4.036 5.94l-106.927 62.161c-2.528 1.444-5.875 2.166-9.223 2.068-2.461-.066-4.857-.591-6.859-1.51-.427-.164-1.838-.952-2.232-1.149l-42.698-24.68c-2.626-1.51-4.07-3.709-4.07-5.973 0-2.265 1.411-4.431 4.037-5.941l106.927-62.128z" fill="#CAE1EF"/><path opacity=".589" d="M187.308 113.884c2.494-1.444 5.809-2.166 9.157-2.068 2.461.066 4.824.591 6.793 1.51.394.164 1.838.952 2.199 1.149l42.404 24.483c2.592 1.51 4.036 3.643 4.036 5.875s-1.378 4.365-3.971 5.842l-106.336 61.8c-2.494 1.444-5.809 2.166-9.157 2.068-2.461-.066-4.824-.591-6.794-1.51-.393-.164-1.837-.952-2.198-1.149l-42.404-24.483c-2.592-1.51-4.037-3.643-4.037-5.875s1.379-4.365 3.972-5.842l106.336-61.8z" fill="#C9E0EF"/><path opacity=".607" d="M187.244 114.179c2.495-1.444 5.777-2.133 9.124-2.035 2.429.066 4.792.591 6.761 1.51.394.131 1.838.952 2.199 1.149l42.108 24.319c2.56 1.477 3.971 3.611 3.971 5.809 0 2.199-1.378 4.3-3.905 5.777l-105.713 61.438c-2.462 1.445-5.776 2.134-9.124 2.035-2.429-.065-4.792-.59-6.761-1.509-.394-.132-1.838-.952-2.199-1.149l-42.14-24.352c-2.56-1.477-3.972-3.578-3.972-5.81 0-2.198 1.379-4.299 3.906-5.776l105.745-61.406z" fill="#C7DFEE"/><path opacity=".625" d="M187.141 114.442c2.461-1.444 5.743-2.134 9.058-2.002 2.428.098 4.759.59 6.695 1.509.361.132 1.838.952 2.166 1.149l41.845 24.155c2.528 1.477 3.906 3.545 3.906 5.711 0 2.166-1.346 4.234-3.873 5.678L141.849 211.72c-2.461 1.444-5.743 2.133-9.058 2.002-2.429-.099-4.759-.591-6.695-1.51-.361-.131-1.838-.952-2.166-1.149l-41.846-24.155c-2.527-1.477-3.905-3.545-3.905-5.711 0-2.166 1.345-4.234 3.872-5.678l105.09-61.077z" fill="#C6DEEE"/><path opacity=".643" d="M187.042 114.737c2.429-1.411 5.711-2.1 8.993-2.002 2.396.099 4.726.591 6.662 1.543.361.131 1.838.952 2.167 1.149l41.549 23.991c2.495 1.444 3.873 3.479 3.873 5.612s-1.345 4.135-3.807 5.579l-104.465 60.717c-2.429 1.411-5.711 2.101-8.993 2.002-2.396-.098-4.726-.591-6.662-1.542-.361-.132-1.838-.952-2.167-1.149l-41.55-23.991c-2.494-1.444-3.872-3.479-3.872-5.613 0-2.133 1.345-4.168 3.807-5.579l104.465-60.717z" fill="#C4DDED"/><path opacity=".661" d="M186.943 115c2.429-1.412 5.678-2.101 8.927-1.97 2.396.099 4.694.591 6.597 1.543.328.131 1.838.952 2.133 1.116l41.255 23.827c2.494 1.444 3.807 3.446 3.807 5.547 0 2.067-1.313 4.069-3.774 5.513l-103.842 60.356c-2.429 1.411-5.678 2.1-8.927 1.969-2.396-.098-4.693-.591-6.597-1.542-.328-.132-1.838-.952-2.133-1.116l-41.255-23.827c-2.461-1.444-3.807-3.446-3.807-5.547 0-2.068 1.313-4.07 3.774-5.514L186.943 115z" fill="#C2DCED"/><path opacity=".679" d="M186.853 115.262c2.396-1.411 5.645-2.067 8.861-1.936 2.363.098 4.66.624 6.564 1.543.328.131 1.838.951 2.133 1.115l40.992 23.664c2.462 1.411 3.742 3.38 3.774 5.448 0 2.034-1.279 4.004-3.708 5.415l-103.218 59.995c-2.396 1.411-5.645 2.067-8.862 1.936-2.363-.099-4.66-.624-6.564-1.543-.328-.131-1.838-.951-2.133-1.116L83.7 186.12c-2.462-1.411-3.742-3.38-3.774-5.448 0-2.035 1.28-4.004 3.708-5.415l103.219-59.995z" fill="#C1DBEC"/><path opacity=".696" d="M186.745 115.558c2.396-1.379 5.612-2.068 8.796-1.937 2.363.099 4.627.624 6.498 1.543.296.098 1.838.984 2.101 1.116l40.696 23.499c2.429 1.378 3.709 3.347 3.709 5.349 0 2.002-1.28 3.939-3.643 5.35l-102.595 59.634c-2.396 1.378-5.612 2.067-8.796 1.936-2.363-.099-4.627-.624-6.498-1.543-.295-.098-1.838-.984-2.1-1.115l-40.697-23.499c-2.429-1.379-3.709-3.348-3.709-5.35s1.28-3.938 3.643-5.35l102.595-59.633z" fill="#BFDAEC"/><path opacity=".714" d="M186.682 115.82c2.363-1.378 5.579-2.034 8.73-1.903 2.33.098 4.594.623 6.465 1.542.296.099 1.838.985 2.101 1.116l40.401 23.335c2.396 1.379 3.643 3.282 3.643 5.284 0 1.969-1.247 3.873-3.61 5.251L142.44 209.718c-2.363 1.378-5.579 2.035-8.73 1.903-2.33-.098-4.594-.623-6.465-1.542-.295-.099-1.838-.985-2.101-1.116l-40.4-23.335c-2.397-1.378-3.644-3.282-3.644-5.284 0-1.969 1.247-3.873 3.61-5.251l101.972-59.273z" fill="#BDD9EB"/><path opacity=".732" d="M186.581 116.083c2.363-1.378 5.546-2.002 8.697-1.871 2.33.099 4.562.624 6.4 1.543.262.098 1.838.985 2.068 1.116l40.105 23.171c2.363 1.345 3.611 3.249 3.611 5.185 0 1.937-1.215 3.807-3.545 5.153l-101.348 58.911c-2.363 1.379-5.546 2.002-8.697 1.871-2.33-.098-4.562-.623-6.4-1.542-.262-.099-1.838-.985-2.067-1.116l-40.14-23.138c-2.362-1.346-3.61-3.249-3.61-5.186 0-1.936 1.215-3.807 3.545-5.152l101.381-58.945z" fill="#BCD8EB"/><path opacity=".75" d="M186.484 116.378c2.33-1.378 5.513-2.002 8.631-1.871 2.298.099 4.529.624 6.367 1.543.23.098 1.838.984 2.035 1.116l39.843 23.006c2.331 1.346 3.545 3.184 3.545 5.12 0 1.904-1.214 3.742-3.479 5.087L142.702 208.93c-2.33 1.378-5.514 2.002-8.632 1.871-2.297-.099-4.529-.624-6.367-1.543-.229-.098-1.838-.984-2.034-1.116l-39.844-23.006c-2.33-1.346-3.544-3.184-3.544-5.12 0-1.904 1.214-3.742 3.511-5.087l100.692-58.551z" fill="#BAD7EA"/><path opacity=".768" d="M186.386 116.641c2.33-1.346 5.448-1.969 8.566-1.838 2.298.098 4.496.623 6.302 1.542.229.099 1.837.985 2.034 1.116l39.548 22.843c2.298 1.313 3.479 3.151 3.479 5.021 0 1.871-1.181 3.676-3.446 4.989l-100.1 58.189c-2.331 1.346-5.448 1.97-8.566 1.838-2.298-.098-4.497-.623-6.302-1.542-.23-.099-1.838-.985-2.035-1.116L86.319 184.84c-2.298-1.312-3.48-3.15-3.48-5.021s1.182-3.676 3.447-4.989l100.1-58.189z" fill="#B8D6EA"/><path opacity=".786" d="M186.287 116.936c2.297-1.346 5.415-1.969 8.5-1.838 2.264.099 4.463.624 6.268 1.543.197.065 1.838.984 2.002 1.083l39.253 22.678c2.265 1.313 3.446 3.085 3.446 4.923s-1.149 3.61-3.38 4.89l-99.477 57.796c-2.298 1.346-5.416 1.969-8.501 1.838-2.264-.098-4.463-.624-6.268-1.542-.197-.066-1.838-.985-2.002-1.084l-39.253-22.678c-2.264-1.313-3.446-3.085-3.446-4.923s1.182-3.61 3.38-4.923l99.478-57.763z" fill="#B7D5E9"/><path opacity=".804" d="M186.224 117.199c2.297-1.346 5.382-1.936 8.435-1.805 2.264.098 4.43.623 6.203 1.542.196.066 1.837.985 2.002 1.083l38.957 22.515c2.231 1.28 3.38 3.052 3.38 4.857 0 1.805-1.149 3.545-3.347 4.825L143 207.65c-2.297 1.346-5.382 1.937-8.435 1.806-2.264-.099-4.43-.624-6.202-1.543-.197-.066-1.838-.985-2.002-1.083l-38.958-22.515c-2.231-1.279-3.38-3.052-3.38-4.857 0-1.805 1.149-3.544 3.348-4.824l98.853-57.435z" fill="#B5D4E9"/><path opacity=".821" d="M186.128 117.461c2.265-1.313 5.35-1.936 8.369-1.772 2.232.098 4.398.623 6.17 1.542.164.066 1.838 1.018 1.969 1.083l38.695 22.318c2.199 1.247 3.315 2.987 3.348 4.759 0 1.772-1.116 3.479-3.282 4.726l-98.23 57.074c-2.265 1.312-5.35 1.936-8.369 1.772-2.232-.099-4.398-.624-6.17-1.543-.164-.065-1.838-1.017-1.969-1.083L87.964 184.02c-2.199-1.247-3.315-2.987-3.348-4.759 0-1.772 1.116-3.479 3.282-4.726l98.23-57.074z" fill="#B3D3E8"/><path opacity=".839" d="M186.025 117.756c2.265-1.312 5.317-1.903 8.304-1.772 2.231.099 4.365.624 6.104 1.543.164.065 1.838 1.017 1.969 1.083l38.399 22.153c2.167 1.247 3.282 2.954 3.282 4.693 0 1.74-1.115 3.414-3.216 4.661l-97.606 56.713c-2.265 1.312-5.317 1.903-8.303 1.772-2.232-.099-4.366-.624-6.105-1.543-.164-.065-1.838-1.017-1.969-1.083l-38.4-22.153c-2.165-1.247-3.281-2.954-3.281-4.661 0-1.739 1.115-3.413 3.216-4.66l97.606-56.746z" fill="#B2D3E8"/><path opacity=".857" d="M185.929 118.019c2.232-1.313 5.284-1.903 8.238-1.739 2.199.098 4.332.623 6.071 1.542a107.77 107.77 0 011.937 1.083l38.104 21.99c2.133 1.214 3.216 2.888 3.216 4.594 0 1.674-1.083 3.348-3.184 4.562l-96.982 56.352c-2.232 1.313-5.284 1.904-8.271 1.739-2.199-.098-4.332-.623-6.071-1.542a107.77 107.77 0 01-1.937-1.083l-38.104-21.989c-2.133-1.215-3.216-2.889-3.216-4.595 0-1.707 1.083-3.348 3.183-4.562l97.016-56.352z" fill="#B0D2E7"/><path opacity=".875" d="M185.833 118.315c2.232-1.28 5.252-1.871 8.205-1.707 2.199.131 4.3.623 6.006 1.542.132.033 1.838 1.018 1.937 1.083l37.808 21.826c2.101 1.214 3.184 2.855 3.184 4.496 0 1.641-1.05 3.282-3.118 4.463l-96.392 56.024c-2.232 1.28-5.251 1.871-8.205 1.707-2.199-.132-4.299-.624-6.006-1.543-.131-.033-1.838-1.017-1.936-1.083l-37.809-21.825c-2.1-1.215-3.183-2.856-3.183-4.497s1.05-3.281 3.118-4.463l96.391-56.023z" fill="#AFD1E7"/><path opacity=".893" d="M185.73 118.577c2.199-1.28 5.218-1.871 8.139-1.706 2.166.131 4.267.656 5.973 1.575.099.033 1.838 1.017 1.904 1.083l37.546 21.661c2.068 1.182 3.118 2.79 3.118 4.431 0 1.608-1.05 3.216-3.085 4.398l-95.736 55.629c-2.199 1.28-5.218 1.871-8.139 1.707-2.166-.131-4.267-.657-5.973-1.575-.099-.033-1.838-1.018-1.904-1.084l-37.546-21.661c-2.067-1.181-3.118-2.789-3.118-4.43 0-1.608 1.05-3.217 3.085-4.398l95.736-55.63z" fill="#ADD0E6"/><path opacity=".911" d="M185.665 118.84c2.199-1.28 5.186-1.838 8.074-1.674 2.166.131 4.234.657 5.908 1.576.098.032 1.837 1.017 1.903 1.083l37.251 21.497c2.034 1.181 3.052 2.756 3.052 4.332 0 1.575-1.018 3.15-3.02 4.299l-95.111 55.269c-2.199 1.28-5.186 1.838-8.074 1.674-2.166-.132-4.234-.657-5.908-1.576-.098-.033-1.838-1.017-1.903-1.083l-37.25-21.497c-2.035-1.181-3.053-2.724-3.053-4.332 0-1.575 1.017-3.151 3.02-4.299l95.111-55.269z" fill="#ABCFE6"/><path opacity=".929" d="M185.567 119.135c2.166-1.28 5.153-1.838 8.008-1.673 2.134.131 4.201.656 5.875 1.575.066.033 1.805 1.017 1.871 1.05l36.955 21.333c2.002 1.149 3.019 2.691 3.019 4.234 0 1.542-.984 3.085-2.954 4.234l-94.488 54.907c-2.166 1.28-5.153 1.838-8.008 1.674-2.133-.131-4.201-.656-5.875-1.575-.065-.033-1.805-1.018-1.87-1.051L91.145 182.51c-2.002-1.148-3.02-2.691-3.02-4.233 0-1.543.985-3.085 2.954-4.234l94.488-54.908z" fill="#AACEE5"/><path opacity=".946" d="M185.468 119.398c2.166-1.248 5.087-1.806 7.942-1.641 2.134.131 4.169.656 5.81 1.575.065.033 1.805 1.017 1.87 1.05l36.66 21.169c1.969 1.116 2.954 2.625 2.954 4.168 0 1.51-.985 3.019-2.921 4.135l-93.865 54.58c-2.166 1.247-5.087 1.805-7.942 1.641-2.134-.132-4.168-.657-5.809-1.576-.066-.032-1.805-1.017-1.871-1.05l-36.66-21.169c-1.969-1.116-2.954-2.625-2.954-4.168 0-1.51.985-3.019 2.921-4.135l93.865-54.579z" fill="#A8CDE5"/><path opacity=".964" d="M185.371 119.693c2.133-1.247 5.054-1.772 7.877-1.608 2.1.131 4.135.656 5.776 1.575.033 0 1.805 1.05 1.838 1.05l36.397 21.005c1.937 1.116 2.888 2.593 2.921 4.07 0 1.477-.952 2.954-2.855 4.037l-93.274 54.185c-2.133 1.247-5.054 1.772-7.877 1.608-2.1-.131-4.135-.656-5.776-1.575-.033 0-1.805-1.05-1.838-1.05l-36.397-21.005c-1.937-1.116-2.888-2.593-2.921-4.07 0-1.476.951-2.953 2.855-4.036l93.274-54.186z" fill="#A6CCE4"/><path opacity=".982" d="M185.275 119.956c2.133-1.247 5.021-1.772 7.811-1.608 2.1.131 4.102.656 5.711 1.575.032 0 1.805 1.05 1.837 1.05l36.102 20.841c1.904 1.083 2.856 2.527 2.856 4.004 0 1.444-.952 2.888-2.823 3.971l-92.65 53.825c-2.134 1.247-5.022 1.772-7.844 1.608-2.101-.132-4.103-.657-5.711-1.576-.033 0-1.805-1.05-1.838-1.05l-36.102-20.84c-1.903-1.084-2.855-2.528-2.855-4.005 0-1.444.952-2.888 2.822-3.971l92.684-53.824z" fill="#A5CBE4"/><path d="M236.241 141.945c3.709 2.133 3.742 5.645.033 7.778l-92.027 53.464c-3.676 2.133-9.715 2.133-13.423 0L93.212 181.46c-3.708-2.133-3.741-5.645-.033-7.778l92.027-53.464c3.676-2.133 9.715-2.133 13.424 0l37.611 21.727z" fill="#A3CAE3"/><path d="M267.355 133.084L136.47 209.127c-4.89 2.856-12.833 2.856-17.756 0l-56.548-32.655c-2.462-1.444-3.709-3.315-3.709-5.186v1.083c0 1.871 1.247 3.742 3.709 5.186l56.548 32.655c4.923 2.856 12.866 2.856 17.756 0l130.885-76.043c2.429-1.411 3.643-3.249 3.643-5.12v-1.083c0 1.838-1.214 3.709-3.643 5.12z" fill="url(#paint0_linear)"/><path d="M267.294 122.778c4.923 2.856 4.956 7.45.066 10.306l-130.886 76.043c-4.89 2.855-12.832 2.855-17.755 0L62.17 176.471c-4.923-2.855-4.956-7.45-.066-10.305L192.99 90.123c4.89-2.856 12.832-2.856 17.755 0l56.549 32.655z" fill="url(#paint1_linear)"/><path d="M231.355 112.178c.624.361.624.951 0 1.312-.492.296-1.247.328-1.87.164l-19.791 11.52h-53.397v-.558h52.971l19.528-11.355c-.329-.361-.23-.788.262-1.083.689-.362 1.674-.362 2.297 0z" fill="url(#paint2_linear)"/><path d="M221.117 113.819c.624.361.624.951 0 1.312-.558.329-1.411.361-2.035.099l-10.272 5.973h-31.146v-.558h30.752l10.076-5.842c-.197-.328-.099-.722.361-.984.623-.361 1.641-.361 2.264 0z" fill="url(#paint3_linear)"/><path d="M204.504 142.437c.623.361.623.952 0 1.313-.492.295-1.247.328-1.871.164l-19.79 11.52h-53.398v-.558h52.971l19.528-11.356c-.328-.361-.23-.787.262-1.083.657-.361 1.674-.361 2.298 0z" fill="url(#paint4_linear)"/><path d="M194.262 144.078c.623.361.623.952 0 1.313-.558.328-1.412.361-2.035.099l-10.273 5.973h-31.146v-.558h30.752l10.076-5.842c-.197-.328-.098-.722.361-.985.624-.361 1.641-.361 2.265 0z" fill="url(#paint5_linear)"/><path d="M66.077 169.448c-.722-.427-1.903-.427-2.625 0s-.722 1.083 0 1.51c.722.426 1.903.426 2.593 0 .754-.427.754-1.083.032-1.51z" fill="url(#paint6_linear)"/><path d="M129.582 204.434c-.722-.427-1.903-.427-2.625 0-.722.426-.722 1.083 0 1.509.722.427 1.903.427 2.592 0 .755-.393.755-1.083.033-1.509z" fill="url(#paint7_linear)"/><path d="M265.981 127.078c-.722-.427-1.904-.427-2.626 0-.722.426-.722 1.083 0 1.51.722.426 1.904.426 2.593 0 .787-.427.787-1.084.033-1.51z" fill="url(#paint8_linear)"/><path d="M133.205 180.147l-16.541 9.617c-.558.328-1.477.328-2.035 0l-41.747-24.09c-.295-.164-.426-.394-.426-.591v1.871c0 .229.131.426.426.59l41.747 24.09c.558.328 1.477.328 2.035 0l16.541-9.616c.263-.164.427-.361.427-.591v-1.87c-.033.196-.164.426-.427.59z" fill="url(#paint9_linear)"/><path d="M133.179 178.966c.557.328.557.853 0 1.181l-16.542 9.617c-.558.328-1.477.328-2.034 0l-41.747-24.09c-.558-.328-.558-.854 0-1.182l16.54-9.616c.559-.328 1.478-.328 2.036 0l41.747 24.09z" fill="url(#paint10_linear)"/><path d="M77.59 163.967c.591.328.591.886 0 1.247-.59.361-1.542.328-2.133 0-.59-.328-.59-.886 0-1.247.591-.361 1.543-.361 2.134 0z" fill="url(#paint11_linear)"/><path d="M117.149 186.777c.591.328.591.886 0 1.247-.59.328-1.542.328-2.133 0s-.591-.886 0-1.247c.591-.361 1.543-.361 2.133 0z" fill="url(#paint12_linear)"/><path d="M258.955 112.407v1.871l-50.51 29.374v-1.904l50.51-29.341z" fill="url(#paint13_linear)"/><path d="M208.431 141.748v1.904l-11.782-6.827v-1.87l11.782 6.793z" fill="url(#paint14_linear)"/><path d="M258.941 112.407l-50.51 29.341-11.782-6.793 50.509-29.341 11.783 6.793z" fill="url(#paint15_linear)"/><path d="M201.78 134.331c.591.328.591.886 0 1.247-.591.361-1.542.328-2.133 0s-.591-.886 0-1.247c.558-.328 1.542-.328 2.133 0z" fill="url(#paint16_linear)"/><path d="M209.491 138.696c.59.328.59.886 0 1.247-.591.328-1.543.328-2.134 0-.59-.328-.59-.886 0-1.247.591-.361 1.543-.361 2.134 0z" fill="url(#paint17_linear)"/><path d="M247.733 107.648c.591.329.591.887 0 1.248-.591.328-1.543.328-2.133 0-.591-.329-.591-.886 0-1.248.59-.328 1.542-.328 2.133 0z" fill="url(#paint18_linear)"/><path d="M255.475 111.981c.591.328.591.886 0 1.247-.591.361-1.542.328-2.133 0s-.591-.886 0-1.247c.591-.328 1.542-.328 2.133 0z" fill="url(#paint19_linear)"/><path d="M86.447 167.938c-.46-.262-.689-.623-.689-.952v1.871c0 .361.23.689.69.952l3.872 2.232v-1.871l-3.873-2.232z" fill="url(#paint20_linear)"/><path d="M119.37 175.421l-8.304 4.825c-.919.525-2.363.525-3.282 0l-3.873-2.232v1.871l3.873 2.231c.919.525 2.363.525 3.282 0l8.304-4.824c.459-.263.689-.591.689-.952v-1.871c0 .361-.23.689-.689.952z" fill="url(#paint21_linear)"/><path d="M98.104 181.394l-13.588-7.844v1.871l13.588 7.844 5.809-3.348v-1.903l-5.81 3.38z" fill="url(#paint22_linear)"/><path d="M119.37 173.55c.919.526.919 1.379 0 1.904l-8.303 4.825c-.919.525-2.363.525-3.282 0l-3.873-2.232-5.809 3.38-13.587-7.877 5.809-3.38-3.873-2.232c-.919-.525-.919-1.378 0-1.903l8.303-4.825c.92-.525 2.364-.525 3.282 0l21.333 12.34z" fill="#A1DAFF"/><path d="M97.87 162.26c.59.329.59.886 0 1.247-.592.361-1.544.329-2.134 0-.591-.328-.591-.886 0-1.247.558-.328 1.542-.328 2.133 0z" fill="url(#paint23_linear)"/><path d="M116.78 173.124c.591.328.591.886 0 1.247-.591.328-1.543.328-2.133 0-.591-.328-.591-.886 0-1.247.558-.329 1.542-.329 2.133 0z" fill="url(#paint24_linear)"/><path d="M215.303 115.689l-85.135 49.46c-1.772 1.017-4.595 1.017-6.367 0l-34.198-19.725c-.887-.525-1.346-1.182-1.346-1.871v3.643c0 .657.427 1.346 1.346 1.871l34.198 19.725c1.772 1.017 4.627 1.017 6.367 0l85.135-49.493c.886-.492 1.312-1.181 1.312-1.838v-3.643c0 .69-.426 1.346-1.312 1.871z" fill="url(#paint25_linear)"/><path d="M215.298 111.981c1.772 1.017 1.772 2.658.033 3.708l-85.168 49.46c-1.772 1.017-4.594 1.017-6.367 0l-34.198-19.725c-1.772-1.017-1.772-2.658-.033-3.709L174.7 92.223c1.772-1.017 4.627-1.017 6.367 0l34.231 19.758z" fill="url(#paint26_linear)"/><path d="M176.412 112.112a1.956 1.956 0 00-.886-.197c-.328 0-.623.098-.853.263l-4.234 2.888c-.295.197-.295.394 0 .558.263.164.591.164.919 0l4.923-2.462c.295-.131.427-.295.46-.492.032-.23-.066-.427-.329-.558z" fill="url(#paint27_linear)"/><path d="M169.492 116.248l-.164-.099a1.528 1.528 0 00-.755-.197c-.263 0-.525.066-.755.197l-.197.131c-.229.132-.361.296-.361.427 0 .164.132.295.361.427l.164.098c.23.131.493.197.755.197.263 0 .493-.066.755-.197l.197-.131c.23-.131.361-.296.361-.427 0-.164-.098-.295-.361-.426z" fill="url(#paint28_linear)"/><path d="M181.007 109.454c-.722-.427-1.773-.591-2.757-.427l-19.068 2.954c-.985.164-1.74.59-2.002 1.181-.263.591 0 1.182.754 1.608l14.014 8.107c.723.427 1.773.591 2.757.427.985-.165 1.74-.591 2.002-1.182l5.055-11.06c.262-.591-.033-1.182-.755-1.608zm-.493 1.411l-5.054 11.06c-.131.328-.558.558-1.116.657-.558.098-1.116 0-1.542-.23l-14.014-8.107c-.394-.229-.558-.558-.427-.886.131-.328.558-.558 1.116-.656l19.068-2.954c.558-.098 1.116 0 1.543.23.426.229.591.558.426.886z" fill="url(#paint29_linear)"/><path d="M159.803 130.196l-3.414-1.969 1.937-1.116c.262-.164.262-.427 0-.558l-4.89-2.823c-.263-.164-.722-.164-.985 0l-1.936 1.116-3.414-1.969c-.262-.164-.722-.164-.984 0l-26.519 15.425c-.262.164-.262.427 0 .558l12.734 7.352c.263.164.723.164.985 0l26.519-15.425c.229-.165.229-.427-.033-.591zm-27.011 15.13l-11.75-6.761 25.534-14.835 3.414 1.969c.262.165.722.165.984 0l1.937-1.115 3.905 2.264-1.936 1.116c-.263.164-.263.427 0 .558l3.413 1.969-25.501 14.835z" fill="url(#paint30_linear)"/><path d="M135.911 132.592l4.3 2.494-6.466 1.608 10.601-.787-4.628-2.692 5.777-1.87-9.584 1.247z" fill="url(#paint31_linear)"/><path d="M206.505 131.574v1.871l-31.408 18.248v-1.871l31.408-18.248z" fill="url(#paint32_linear)"/><path d="M152.973 175.159v1.903l-14.375-8.303v-1.904l14.375 8.304z" fill="url(#paint33_linear)"/><path d="M175.196 162.261l-.033 1.903-22.186 12.898v-1.903l22.219-12.898z" fill="url(#paint34_linear)"/><path d="M206.502 131.574l-31.409 18.248.099 12.439-22.219 12.898-10.798-6.203-3.577-2.101 36.495-21.201 27.799-16.148 3.61 2.068z" fill="#A1DAFF"/><path d="M144.35 166.232c.591.328.591.886 0 1.247-.591.328-1.542.328-2.133 0s-.591-.886 0-1.247c.591-.328 1.542-.328 2.133 0z" fill="url(#paint35_linear)"/><path d="M154.034 172.041c.59.328.59.886 0 1.247-.591.328-1.543.328-2.134 0s-.591-.886 0-1.247c.591-.328 1.543-.328 2.134 0z" fill="url(#paint36_linear)"/><path d="M204.013 130.95c.591.329.591.887 0 1.248-.591.328-1.542.328-2.133 0-.591-.329-.591-.887 0-1.248s1.542-.361 2.133 0z" fill="url(#paint37_linear)"/><path d="M239.427 101.773v1.904l-15.196 8.829v-1.904l15.196-8.829z" fill="url(#paint38_linear)"/><path d="M224.229 110.602v1.904l-39.81-23.007v-1.87l39.81 22.973z" fill="url(#paint39_linear)"/><path d="M239.425 101.774l-15.196 8.828-39.81-22.974 15.162-8.828 39.844 22.974z" fill="url(#paint40_linear)"/><path d="M200.636 80.835c.591.328.591.886 0 1.247-.591.328-1.542.328-2.133 0s-.591-.886 0-1.247c.591-.329 1.542-.329 2.133 0z" fill="url(#paint41_linear)"/><path d="M190.065 87.005c.591.328.591.886 0 1.247-.591.328-1.542.328-2.133 0s-.591-.886 0-1.247c.591-.361 1.542-.361 2.133 0z" fill="url(#paint42_linear)"/><path d="M225.319 107.32c.591.329.591.886 0 1.248-.59.328-1.542.328-2.133 0-.591-.329-.591-.887 0-1.248.558-.328 1.543-.328 2.133 0z" fill="url(#paint43_linear)"/><path d="M235.879 101.183c.591.328.591.886 0 1.247-.591.328-1.543.328-2.133 0-.591-.328-.591-.886 0-1.247.59-.361 1.542-.361 2.133 0z" fill="url(#paint44_linear)"/><path d="M220.358 94.717l-8.401 4.858-8.468-4.858 8.402-4.89 8.467 4.89z" fill="#A1DAFF"/><path d="M266.333 104.957l-56.549-32.656c-4.824-2.79-12.636-2.79-17.46 0L61.471 148.345c-2.396 1.378-3.577 3.183-3.577 5.021v5.448c0-1.805 1.181-3.643 3.577-5.021l130.886-76.044c4.791-2.79 12.635-2.79 17.46 0l56.548 32.656c2.429 1.411 3.643 3.249 3.643 5.087v-5.448c-.032-1.871-1.247-3.709-3.675-5.087z" fill="url(#paint45_linear)"/><path d="M266.66 104.76l-56.548-32.655c-4.989-2.889-13.128-2.889-18.084 0L61.142 148.148c-4.955 2.888-4.955 7.582.066 10.47l56.549 32.655c4.988 2.889 13.095 2.889 18.083 0l130.886-76.043c4.956-2.888 4.923-7.582-.066-10.47zm-.262 10.273l-130.886 76.076c-4.792 2.79-12.636 2.79-17.46 0l-56.549-32.655c-4.824-2.79-4.857-7.319-.065-10.109l130.885-76.043c4.792-2.79 12.636-2.79 17.46 0l56.549 32.655c4.824 2.757 4.857 7.319.066 10.076z" fill="#EEF8FF"/><path d="M266.693 115.23L135.84 191.274c-4.955 2.888-13.062 2.888-18.083 0l-56.549-32.656c-2.527-1.444-3.774-3.381-3.774-5.284v5.448c0 1.903 1.247 3.807 3.774 5.284l56.549 32.656c4.988 2.888 13.095 2.888 18.083 0l130.886-76.044c2.461-1.444 3.709-3.315 3.709-5.185v-5.449c-.033 1.871-1.248 3.742-3.742 5.186zm-173.19 66.526l-8.27-4.759c-.854-.492-1.543-1.674-1.543-2.659 0-.984.689-1.378 1.542-.886l8.27 4.759c.854.493 1.543 1.674 1.543 2.659 0 .984-.689 1.378-1.542.886zm7.483 4.463c-.886-.525-1.608-1.772-1.608-2.789 0-1.018.722-1.445 1.608-.919.886.525 1.608 1.772 1.608 2.789 0 1.018-.722 1.444-1.608.919zm122.418-41.55c-.821.46-1.477.099-1.477-.82 0-.919.656-2.068 1.444-2.527.82-.46 1.477-.099 1.477.82 0 .952-.657 2.068-1.444 2.527zm17.066-9.878l-10.896 6.301c-.689.394-1.214.066-1.214-.689 0-.788.557-1.74 1.214-2.134l10.896-6.301c.689-.394 1.214-.066 1.214.689 0 .788-.558 1.74-1.214 2.134z" fill="#EEF8FF"/><path d="M248.384 136.53c-.23-.131-.558-.131-.919.099l-11.454 6.596c-.722.394-1.28 1.412-1.28 2.232 0 .394.131.689.361.821l.951.558c-.229-.132-.361-.427-.361-.821 0-.82.558-1.805 1.28-2.232l11.454-6.596c.362-.197.69-.23.919-.099l-.951-.558z" fill="#A1DAFF"/><path d="M248.383 137.186c.722-.393 1.28-.065 1.28.722 0 .821-.558 1.806-1.28 2.232l-11.454 6.597c-.722.394-1.28.066-1.28-.722 0-.821.558-1.805 1.28-2.232l11.454-6.597z" fill="#EEF8FF"/><path d="M230.363 146.277c-.295-.164-.689-.131-1.148.099-.887.525-1.609 1.772-1.609 2.79 0 .492.197.853.46 1.05l.952.558c-.296-.164-.46-.525-.46-1.051 0-1.017.722-2.264 1.608-2.789.46-.263.854-.296 1.149-.099l-.952-.558z" fill="#A1DAFF"/><path d="M230.171 146.966c.886-.525 1.608-.098 1.608.919 0 1.018-.722 2.265-1.608 2.79-.886.525-1.609.098-1.609-.919.001-1.05.723-2.297 1.609-2.79z" fill="#EEF8FF"/><path d="M63.74 129.31l-.032 5.874c0 .164.098.296.295.427.394.23 1.05.23 1.444 0 .197-.098.296-.263.296-.427l.032-5.874H63.74z" fill="url(#paint46_linear)"/><path d="M66.201 130.852c-.788.46-2.068.46-2.855 0-.394-.229-.591-.525-.591-.853v.985c0 .295.197.59.59.853.788.459 2.068.459 2.856 0 .394-.23.59-.525.59-.821v-.984c0 .295-.196.591-.59.82z" fill="url(#paint47_linear)"/><path d="M66.199 129.211c-.788-.459-2.068-.459-2.889 0-.787.46-.787 1.215 0 1.674.788.46 2.068.46 2.856 0 .82-.492.82-1.214.033-1.674z" fill="#1544A8"/><path d="M127.25 164.296l-.033 5.875c0 .164.099.295.296.426.394.23 1.05.23 1.444 0 .197-.098.295-.262.295-.426l.033-5.875h-2.035z" fill="url(#paint48_linear)"/><path d="M129.709 165.871c-.787.459-2.067.459-2.855 0-.394-.23-.591-.525-.591-.853v.984c0 .296.197.591.591.853.788.46 2.068.46 2.855 0 .394-.229.591-.525.591-.82v-.985c0 .296-.197.591-.591.821z" fill="url(#paint49_linear)"/><path d="M129.711 164.197c-.788-.459-2.068-.459-2.888 0-.788.46-.788 1.214 0 1.674.787.459 2.067.459 2.855 0 .82-.46.821-1.214.033-1.674z" fill="#EEF8FF"/><path d="M263.678 86.939l-.032 5.875c0 .164.098.295.295.426.394.23 1.05.23 1.444 0 .197-.098.295-.262.295-.426l.033-5.875h-2.035z" fill="url(#paint50_linear)"/><path d="M266.136 88.482c-.788.46-2.068.46-2.856 0-.394-.23-.591-.525-.591-.854v.985c0 .295.197.59.591.853.788.46 2.068.46 2.856 0 .393-.23.59-.525.59-.82v-.985c0 .296-.197.591-.59.82z" fill="url(#paint51_linear)"/><path d="M266.101 86.84c-.788-.459-2.068-.459-2.888 0-.788.46-.788 1.215 0 1.674.788.46 2.067.46 2.855 0 .853-.492.853-1.214.033-1.673z" fill="#1544A8"/><path d="M84.653 182.741c.558.328.558.82 0 1.148l-.59.361-7.779-4.496.591-.361c.558-.328 1.444-.328 2.002 0l5.776 3.348z" fill="#E8F4FC"/><path d="M80.188 187.795c-2.757 1.608-7.22 1.608-10.01 0-1.379-.82-2.1-1.871-2.1-2.921v2.724c0 1.05.689 2.101 2.1 2.921 2.757 1.608 7.253 1.608 10.01 0l4.989-2.888v-2.724l-4.99 2.888z" fill="#A1DAFF"/><path d="M85.176 184.907l-4.989 2.888c-2.757 1.608-7.22 1.608-10.01 0-2.757-1.608-2.79-4.201-.033-5.809l4.989-2.888 1.148.656 7.779 4.496 1.116.657z" fill="#E8F4FC"/><path d="M80.97 180.607l-1.608.952.919.493 1.575-.919-.886-.526z" fill="url(#paint52_linear)"/><path d="M82.482 181.493l-1.608.919.919.525 1.575-.919-.886-.525z" fill="url(#paint53_linear)"/><path d="M79.459 179.754l-1.609.919.92.525 1.575-.952-.886-.492z" fill="url(#paint54_linear)"/><path d="M64.263 222.485c-.59 0-1.149-.295-1.444-.853-.46-.82-.164-1.838.623-2.265l9.452-5.349a.431.431 0 00.23-.394.477.477 0 00-.23-.427L55.27 203.023c-1.181-.689-1.903-1.903-1.903-3.282 0-1.378.689-2.593 1.87-3.315l13.785-8.139c.787-.459 1.838-.197 2.297.591.46.788.197 1.838-.59 2.297l-13.785 8.14a.429.429 0 00-.23.393c0 .132.033.296.23.394l17.624 10.174c1.215.69 1.904 1.937 1.904 3.315a3.78 3.78 0 01-1.936 3.315l-9.453 5.35a1.559 1.559 0 01-.82.229z" fill="#A1DAFF"/><path d="M94.722 189.928c0-.328-.23-.722-.493-.886-.131-.065-.262-.098-.36-.033l-.821.493c-.099-.066-.197-.164-.263-.197-.295-.164-.558-.197-.755-.066l-1.444.821a4.533 4.533 0 00-.492-.361c-.558-.329-1.083-.361-1.444-.132l-10.207 5.941c-.361.197-.59.656-.59 1.313 0 .426.098.918.294 1.378l-32.754 19.035a.654.654 0 00-.23.919.659.659 0 00.92.23l32.754-19.035c.295.393.689.755 1.083.984.558.328 1.083.361 1.444.132l10.207-5.941c.36-.197.59-.656.59-1.313 0-.197-.032-.361-.065-.558l1.444-.853c.197-.098.295-.361.295-.689a1.65 1.65 0 00-.065-.394l.82-.459a.44.44 0 00.132-.329z" fill="#E8F4FC"/><path opacity=".72" d="M266.016 64.358c4.923 2.855 4.955 7.45.065 10.273l-130.852 76.043c-4.89 2.856-12.833 2.856-17.756 0l-56.581-32.623c-4.923-2.855-4.956-7.45-.066-10.272l130.886-76.044c4.89-2.855 12.832-2.855 17.755 0l56.549 32.623z" fill="url(#paint55_linear)"/><path d="M60.826 107.747c-4.89 2.855-4.857 7.45.066 10.273l56.548 32.655c4.923 2.856 12.866 2.856 17.756 0L141.53 147l-74.337-42.929-6.367 3.676zM266.017 64.36l-56.548-32.657c-4.53-2.625-11.586-2.822-16.509-.623l74.206 42.83c3.774-2.856 3.38-6.958-1.149-9.55zm-63.014-30.884c-.82.492-2.199.492-3.019 0-.854-.493-.854-1.28 0-1.74.82-.492 2.199-.492 3.019 0 .821.46.821 1.247 0 1.74z" fill="#DBF1FF"/><path opacity=".39" d="M266.02 58.122c4.923 2.855 4.956 7.45.066 10.272l-130.853 76.077c-4.89 2.855-12.832 2.855-17.755 0l-56.582-32.656c-4.922-2.855-4.955-7.45-.065-10.273l130.885-76.043c4.89-2.855 12.833-2.855 17.756 0l56.548 32.623z" fill="#EEF8FF"/><path d="M112.652 71.448v70.267l4.825 2.79c4.923 2.855 12.865 2.855 17.755 0l24.648-14.309V43.978l-47.228 27.47z" fill="url(#paint56_linear)"/><path d="M209.469 25.468c-2.79-1.608-6.531-2.298-10.141-2.1v83.821l17.525-10.174v-67.28l-7.384-4.267z" fill="url(#paint57_linear)"/><path d="M167.266 39.679v86.185l20.545-11.947V27.765L167.266 39.68z" fill="url(#paint58_linear)"/><path d="M203.003 27.273c.853.492.853 1.28 0 1.74-.821.492-2.199.492-3.02 0-.853-.493-.853-1.28 0-1.74.821-.46 2.166-.46 3.02 0zm-1.871.36c.263.165.689.165.919 0 .262-.163.262-.393 0-.524-.263-.164-.689-.164-.919 0-.263.131-.263.394 0 .525z" fill="url(#paint59_linear)"/><path d="M202.079 27.108c.263.165.263.394 0 .526-.262.164-.689.164-.919 0-.262-.165-.262-.394 0-.526.23-.164.657-.164.919 0z" fill="#EEF8FF"/><path d="M203.564 26.944c1.149.657 1.149 1.74 0 2.43-1.148.655-3.019.655-4.168 0-1.149-.657-1.149-1.74 0-2.43 1.149-.656 3.02-.656 4.168 0zm-3.577 2.1c.853.493 2.199.493 3.019 0 .821-.491.821-1.28 0-1.739-.853-.492-2.199-.492-3.019 0-.853.46-.853 1.248 0 1.74z" fill="#EEF8FF"/><path d="M126.339 147.262c-3.348 0-6.695-.722-9.222-2.199l-56.549-32.656c-2.593-1.509-4.037-3.544-4.037-5.743 0-2.199 1.412-4.201 3.971-5.711L191.388 24.91c5.054-2.954 13.325-2.954 18.445 0l56.548 32.655c2.593 1.51 4.037 3.545 4.037 5.744s-1.411 4.2-3.971 5.71l-130.886 76.044c-2.527 1.477-5.874 2.199-9.222 2.199zm74.238-123.239c-3.085 0-6.17.69-8.533 2.035L61.192 102.102c-2.134 1.247-3.315 2.855-3.315 4.529 0 1.707 1.214 3.315 3.38 4.595l56.549 32.656c4.726 2.724 12.406 2.724 17.099 0l130.886-76.044c2.133-1.247 3.314-2.855 3.314-4.53 0-1.706-1.214-3.314-3.38-4.594l-56.549-32.656c-2.396-1.345-5.513-2.035-8.599-2.035z" fill="#EEF8FF"/><path d="M72.88 118.84l-.821-.689L88.73 98.328l-5.81-9.617.92-.558 6.203 10.273-17.165 20.414z" fill="#EEF8FF"/><path d="M103.53 76.418L86.832 94.412l.793.737 16.699-17.995-.794-.736zm1.047 61.523l14.966-46.505.131-.361h.394l24.746-.394-.525.492 1.51-13.653-.46 13.752v.492h-.525l-24.746.36.525-.36-14.998 46.506-1.018-.329z" fill="#EEF8FF"/><path d="M112.489 116.451l-1.005.404 11.741 29.132 1.004-.405-11.74-29.131z" fill="#EEF8FF"/><path d="M195.908 154.384l-5.054-9.583-.033 6.104 5.054 9.584c.328.656.492 1.28.492 1.936l.033-6.104c0-.624-.131-1.28-.492-1.937z" fill="url(#paint60_linear)"/><path d="M213.957 160.324l-.033 6.105c-.033 5.054-4.365 9.846-11.487 12.668l.033-6.104c7.122-2.856 11.454-7.615 11.487-12.669z" fill="url(#paint61_linear)"/><path d="M160.785 166.101l.033-6.105c0 1.543.361 3.085 1.182 4.628 3.511 6.662 13.948 10.962 25.271 11.027l-.033 6.105c-11.29-.066-21.759-4.398-25.271-11.028-.821-1.542-1.182-3.085-1.182-4.627z" fill="url(#paint62_linear)"/><path d="M213.137 208.996c-5.317.952-10.962-.82-12.603-3.938l-13.259-29.407-.033 6.105 13.26 29.406c1.641 3.118 7.286 4.891 12.602 3.939 4.333-.755 7.09-3.052 7.122-5.58l.033-6.104c-.033 2.527-2.79 4.824-7.122 5.579z" fill="url(#paint63_linear)"/><path d="M190.853 144.801c9.978.82 18.741 4.89 21.924 10.896 3.512 6.662-1.017 13.587-10.305 17.296l17.361 28.685c1.641 3.117-1.345 6.399-6.662 7.318-5.317.952-10.962-.82-12.603-3.938l-13.259-29.407c-11.29-.065-21.76-4.397-25.271-11.027-3.151-6.006.196-12.209 7.679-16.115l5.055 9.584c1.805 3.413 8.008 5.349 13.85 4.332 5.842-1.017 9.124-4.628 7.318-8.041l-5.087-9.583z" fill="#F2FAFE"/><path d="M92.794 156.386l-1.773-.722c.033-.525-.065-.952-.36-1.149l-3.184-1.28c-.033-.624-.23-1.149-.624-1.411l-40.04-16.213c.788.492.853 2.067.131 3.512-.656 1.345-1.706 2.1-2.494 1.772l40.04 16.213c.492.197 1.149-.066 1.707-.624l3.02 1.215c.36.131.787-.066 1.18-.526l1.74.69c.23.098.525-.132.722-.525.164-.329.164-.788-.065-.952z" fill="#EEF8FF"/><path d="M52.62 130.458a4.013 4.013 0 00-.526-.262l-40.04-16.213c.197.066.36.164.525.262 2.527 1.641 2.724 6.761.492 11.455-2.1 4.365-5.612 6.826-8.106 5.809l40.04 16.213c2.494 1.017 6.006-1.444 8.106-5.809 2.232-4.694 2.035-9.814-.492-11.455z" fill="url(#paint64_linear)"/><path d="M13.465 124.75c1.96-4.838 1.33-9.66-1.408-10.769-2.739-1.109-6.548 1.913-8.508 6.751-1.96 4.839-1.33 9.66 1.409 10.769 2.738 1.11 6.547-1.913 8.507-6.751z" fill="#F2FAFE"/><path d="M45.432 145.457a1.65 1.65 0 01-.526-.098L13.63 132.657c-.69-.295-1.05-1.083-.755-1.772.296-.689 1.083-1.05 1.773-.755l31.31 12.701c.689.296 1.05 1.083.755 1.773a1.39 1.39 0 01-1.28.853z" fill="url(#paint65_linear)"/><path d="M48.974 140.501a1.62 1.62 0 01-.525-.098l-31.277-12.669c-.69-.295-1.05-1.083-.755-1.772.295-.689 1.083-1.05 1.772-.755l31.277 12.669c.69.295 1.05 1.083.755 1.772a1.346 1.346 0 01-1.247.853z" fill="url(#paint66_linear)"/><path d="M49.794 134.495c-.164 0-.329-.033-.525-.098l-31.114-12.603c-.689-.295-1.05-1.083-.755-1.772.296-.689 1.084-1.051 1.773-.755l31.113 12.603c.69.295 1.05 1.083.755 1.772-.197.558-.722.853-1.247.853z" fill="url(#paint67_linear)"/><path d="M146.054 52.938l-.098 4.135c.164-6.86-5.842-13.686-16.706-17.559-15.95-5.645-36.463-2.757-45.685 6.466-2.954 2.954-4.398 6.203-4.463 9.42l.098-4.136c.066-3.25 1.51-6.498 4.463-9.42 9.223-9.222 29.702-12.11 45.686-6.465 10.83 3.84 16.836 10.666 16.705 17.559z" fill="url(#paint68_linear)"/><path d="M148.591 53.004l-.098 4.135c-.099 3.479-1.641 6.958-4.825 10.141-9.912 9.912-31.966 13.03-49.164 6.958-11.684-4.135-18.15-11.487-17.985-18.871l.098-4.136c-.164 7.385 6.302 14.736 17.985 18.872 17.198 6.072 39.22 2.954 49.165-6.958 3.183-3.184 4.758-6.662 4.824-10.141z" fill="url(#paint69_linear)"/><path d="M192.17 61.832c.032 0 .032 0 0 0l-43.979-6.827c-.164-.032-.394.197-.624.723-.59 1.312-1.05 3.905-1.083 5.776 0 1.116.164 1.74.394 1.805l44.012 6.826c.164.033.393-.197.623-.722.591-1.312 1.05-3.905 1.083-5.776.033-1.149-.164-1.772-.426-1.805z" fill="url(#paint70_linear)"/><path d="M130.602 34.1c-17.198-6.072-39.22-2.955-49.165 6.957-9.911 9.912-4.004 22.941 13.161 29.046 17.198 6.071 39.22 2.953 49.164-6.958 9.945-9.912 4.037-22.941-13.16-29.046zm10.961 28.257c-9.222 9.222-29.702 12.11-45.685 6.466-15.95-5.645-21.464-17.756-12.242-26.978 9.223-9.223 29.702-12.11 45.686-6.466 15.983 5.678 21.464 17.756 12.241 26.978z" fill="#EEF8FF"/><path opacity=".62" d="M129.355 35.38c-15.951-5.646-36.463-2.758-45.685 6.465-9.223 9.222-3.742 21.333 12.241 26.978 15.984 5.645 36.463 2.756 45.685-6.466 9.19-9.222 3.709-21.3-12.241-26.978z" fill="#EEF8FF"/><path d="M129.348 35.379c-3.052-1.083-6.268-1.838-9.55-2.33v38.3c3.61-.426 7.089-1.18 10.24-2.264V35.642c-.23-.066-.46-.165-.69-.263z" fill="url(#paint71_linear)"/><path d="M101.028 33.541V70.3c3.905.92 8.008 1.379 12.012 1.412V32.524a55.685 55.685 0 00-12.012 1.017z" fill="url(#paint72_linear)"/><path d="M93.445 57.861c1.411.82 1.411 2.133.033 2.954-1.411.82-3.676.82-5.087 0-1.412-.82-1.412-2.133-.033-2.954 1.411-.82 3.676-.82 5.087 0z" fill="#EEF8FF"/><path d="M96.956 66.328s-.033-1.477-.132-4.233c.033-2.757 0-6.86.722-11.98.066-.656.197-1.313.296-1.969.13-.69.23-1.378.36-2.068.034-.164.066-.36.1-.525.032-.164.065-.36.13-.525.066-.36.165-.722.263-1.083.164-.722.328-1.477.525-2.231.853-3.02 1.805-6.27 3.315-9.584.164-.427.361-.853.558-1.247.197-.427.426-.82.623-1.247.427-.82.854-1.707 1.313-2.527.492-.82.985-1.674 1.51-2.528.131-.196.262-.426.394-.623.131-.197.295-.427.426-.624.296-.426.591-.82.887-1.247a51.133 51.133 0 018.697-9.518c.886-.689 1.772-1.41 2.691-2.133l.098-.066s.099-.065.132-.098l.164-.131.361-.23.722-.492c.459-.328.952-.657 1.411-.952l.361-.23.394-.23.788-.459c.525-.295 1.05-.59 1.575-.919.525-.328 1.083-.558 1.608-.82.558-.263 1.083-.526 1.641-.788 4.431-2.035 9.321-3.479 14.441-4.267 5.12-.787 10.502-.886 15.885-.394 5.415.493 10.863 1.609 16.246 3.282 10.764 3.315 21.234 8.665 30.817 15.491 9.584 6.86 18.314 15.163 25.928 24.386l2.79 3.511 2.691 3.578.328.46.164.229.099.131.065.099.624.919 1.247 1.837c.427.624.853 1.215 1.247 1.838l1.215 1.904a144.395 144.395 0 018.598 15.557c2.495 5.316 4.661 10.764 6.4 16.278 1.74 5.514 3.085 11.06 4.004 16.607.919 5.547 1.411 11.06 1.444 16.476a83.056 83.056 0 01-1.411 15.786c-.952 5.087-2.396 9.911-4.299 14.408a58.665 58.665 0 01-6.991 12.176 53.692 53.692 0 01-8.96 9.288c-.82.624-1.641 1.214-2.428 1.805l-.296.23-.328.23c-.197.131-.394.262-.624.393-.393.263-.82.525-1.214.788a96.94 96.94 0 01-2.494 1.444c-.854.427-1.674.853-2.495 1.247-3.314 1.543-6.531 2.692-9.583 3.446-3.052.755-5.908 1.182-8.5 1.444-5.186.46-9.255.197-12.012-.065-1.379-.132-2.429-.296-3.151-.361-.722-.099-1.083-.132-1.083-.132l1.083.099c.722.066 1.772.164 3.151.23 2.757.131 6.826.164 11.913-.46 2.527-.361 5.317-.886 8.304-1.739a50.007 50.007 0 009.222-3.676c.788-.427 1.575-.853 2.363-1.313.755-.492 1.543-.952 2.33-1.477.394-.262.788-.558 1.182-.82.197-.132.394-.263.591-.427l.295-.197.295-.23c.755-.59 1.51-1.214 2.298-1.837a50.29 50.29 0 008.402-9.157c5.054-7.056 8.664-15.983 10.305-25.797.82-4.923 1.182-10.042 1.083-15.261a102.18 102.18 0 00-1.575-15.95c-.952-5.383-2.331-10.765-4.07-16.082a132.263 132.263 0 00-6.301-15.82 139.23 139.23 0 00-8.435-15.096l-1.182-1.838a34.469 34.469 0 00-1.247-1.805l-1.247-1.805-.623-.92-.066-.098s-.033-.065-.066-.098l-.164-.23-.328-.427-2.593-3.511-2.724-3.414c-7.384-8.992-15.885-17.132-25.173-23.827-9.255-6.728-19.363-12.045-29.734-15.36-5.186-1.64-10.404-2.79-15.623-3.38-5.185-.59-10.338-.558-15.228.099a54.47 54.47 0 00-13.883 3.774c-.525.23-1.05.492-1.575.722-.525.262-1.05.46-1.543.755-.492.262-.984.558-1.477.82l-.754.394-.362.197-.361.23c-.492.328-.951.623-1.444.919l-.722.46-.361.229-.164.131-.131.099c-.886.656-1.772 1.312-2.626 1.969-3.38 2.724-6.203 5.809-8.631 8.96l-.886 1.181c-.132.197-.296.394-.427.59-.131.198-.263.395-.394.624-.525.821-1.05 1.609-1.542 2.43-.46.82-.919 1.64-1.346 2.428a14.2 14.2 0 00-.656 1.214c-.197.394-.394.82-.558 1.214-1.576 3.184-2.626 6.367-3.578 9.321-.197.755-.394 1.477-.59 2.2-.099.36-.197.721-.296 1.05-.033.164-.098.36-.131.525-.033.164-.066.36-.099.525-.13.689-.295 1.378-.426 2.035-.131.656-.296 1.312-.361 1.936-.92 5.054-1.083 9.124-1.215 11.88-.164 2.593-.197 4.07-.197 4.07z" fill="url(#paint73_linear)"/><path d="M52.286 121.597c-.196-5.087-1.969-10.929-6.859-13.358-5.415-2.625-11.52.295-15.786 3.742-2.363 1.903-4.365 4.168-6.236 6.564.099.032.197.098.263.098.164.033.13 0 .23-.164.295-.361.557-.722.853-1.05a39.93 39.93 0 011.936-2.101 34.116 34.116 0 013.873-3.347c2.986-2.167 6.662-3.906 10.436-3.709 3.414.197 6.17 2.232 7.648 5.218 1.739 3.479 1.903 7.582 1.51 11.389-.821 7.811-4.3 15.425-9.059 21.628-2.297 2.987-5.054 5.743-8.303 7.745-3.217 2.003-7.32 3.414-11.06 2.003-3.25-1.248-5.22-4.333-6.138-7.582-1.017-3.676-.919-7.581-.295-11.323.065-.426.164-.853.23-1.28.032-.229.065-.197-.066-.295-.066-.066-.197-.099-.296-.131-1.181 4.857-1.575 10.338.164 15.097.854 2.363 2.265 4.463 4.366 5.907 1.673 1.149 3.708 1.674 5.71 1.641 5.284 0 10.24-3.216 13.916-6.761 3.774-3.643 6.826-8.04 8.992-12.799 2.2-4.759 3.643-9.912 3.808-15.196.196-.591.196-1.28.163-1.936.033 1.05-.032-1.05 0 0z" fill="url(#paint74_linear)"/><defs><linearGradient id="paint0_linear" x1="58.451" y1="170.157" x2="271.003" y2="170.157" gradientUnits="userSpaceOnUse"><stop stop-color="#0C2291"/><stop offset=".41" stop-color="#184FB0"/><stop offset=".795" stop-color="#2172C9"/><stop offset="1" stop-color="#2580D3"/></linearGradient><linearGradient id="paint1_linear" x1="58.459" y1="149.63" x2="271.007" y2="149.63" gradientUnits="userSpaceOnUse"><stop stop-color="#207FD6"/><stop offset=".442" stop-color="#4CA6EC"/><stop offset=".796" stop-color="#68BFFA"/><stop offset="1" stop-color="#73C8FF"/></linearGradient><linearGradient id="paint2_linear" x1="156.325" y1="118.536" x2="231.829" y2="118.536" gradientUnits="userSpaceOnUse"><stop stop-color="#73C8FF"/><stop offset=".204" stop-color="#68BFFA"/><stop offset=".558" stop-color="#4CA6EC"/><stop offset="1" stop-color="#207FD6"/></linearGradient><linearGradient id="paint3_linear" x1="177.677" y1="117.362" x2="221.596" y2="117.362" gradientUnits="userSpaceOnUse"><stop stop-color="#73C8FF"/><stop offset=".204" stop-color="#68BFFA"/><stop offset=".558" stop-color="#4CA6EC"/><stop offset="1" stop-color="#207FD6"/></linearGradient><linearGradient id="paint4_linear" x1="129.467" y1="148.804" x2="204.972" y2="148.804" gradientUnits="userSpaceOnUse"><stop stop-color="#73C8FF"/><stop offset=".204" stop-color="#68BFFA"/><stop offset=".558" stop-color="#4CA6EC"/><stop offset="1" stop-color="#207FD6"/></linearGradient><linearGradient id="paint5_linear" x1="150.815" y1="147.63" x2="194.735" y2="147.63" gradientUnits="userSpaceOnUse"><stop stop-color="#73C8FF"/><stop offset=".204" stop-color="#68BFFA"/><stop offset=".558" stop-color="#4CA6EC"/><stop offset="1" stop-color="#207FD6"/></linearGradient><linearGradient id="paint6_linear" x1="62.928" y1="170.205" x2="66.619" y2="170.205" gradientUnits="userSpaceOnUse"><stop stop-color="#0C2291"/><stop offset=".185" stop-color="#0F2D98"/><stop offset=".507" stop-color="#1649AC"/><stop offset=".924" stop-color="#2377CD"/><stop offset="1" stop-color="#2580D3"/></linearGradient><linearGradient id="paint7_linear" x1="126.422" y1="205.196" x2="130.112" y2="205.196" gradientUnits="userSpaceOnUse"><stop stop-color="#0C2291"/><stop offset=".185" stop-color="#0F2D98"/><stop offset=".507" stop-color="#1649AC"/><stop offset=".924" stop-color="#2377CD"/><stop offset="1" stop-color="#2580D3"/></linearGradient><linearGradient id="paint8_linear" x1="262.85" y1="127.833" x2="266.541" y2="127.833" gradientUnits="userSpaceOnUse"><stop stop-color="#0C2291"/><stop offset=".185" stop-color="#0F2D98"/><stop offset=".507" stop-color="#1649AC"/><stop offset=".924" stop-color="#2377CD"/><stop offset="1" stop-color="#2580D3"/></linearGradient><linearGradient id="paint9_linear" x1="72.457" y1="178.467" x2="133.611" y2="178.467" gradientUnits="userSpaceOnUse"><stop stop-color="#2580D3"/><stop offset=".076" stop-color="#2377CD"/><stop offset=".493" stop-color="#1649AC"/><stop offset=".815" stop-color="#0F2D98"/><stop offset="1" stop-color="#0C2291"/></linearGradient><linearGradient id="paint10_linear" x1="72.469" y1="172.307" x2="133.617" y2="172.307" gradientUnits="userSpaceOnUse"><stop stop-color="#73C8FF"/><stop offset=".204" stop-color="#68BFFA"/><stop offset=".558" stop-color="#4CA6EC"/><stop offset="1" stop-color="#207FD6"/></linearGradient><linearGradient id="paint11_linear" x1="75.013" y1="164.574" x2="78.04" y2="164.574" gradientUnits="userSpaceOnUse"><stop stop-color="#207FD6"/><stop offset=".442" stop-color="#4CA6EC"/><stop offset=".796" stop-color="#68BFFA"/><stop offset="1" stop-color="#73C8FF"/></linearGradient><linearGradient id="paint12_linear" x1="114.575" y1="187.384" x2="117.602" y2="187.384" gradientUnits="userSpaceOnUse"><stop stop-color="#207FD6"/><stop offset=".442" stop-color="#4CA6EC"/><stop offset=".796" stop-color="#68BFFA"/><stop offset="1" stop-color="#73C8FF"/></linearGradient><linearGradient id="paint13_linear" x1="208.433" y1="128.024" x2="258.955" y2="128.024" gradientUnits="userSpaceOnUse"><stop stop-color="#0C2291"/><stop offset=".185" stop-color="#0F2D98"/><stop offset=".507" stop-color="#1649AC"/><stop offset=".924" stop-color="#2377CD"/><stop offset="1" stop-color="#2580D3"/></linearGradient><linearGradient id="paint14_linear" x1="196.635" y1="139.3" x2="208.425" y2="139.3" gradientUnits="userSpaceOnUse"><stop stop-color="#2580D3"/><stop offset=".076" stop-color="#2377CD"/><stop offset=".493" stop-color="#1649AC"/><stop offset=".815" stop-color="#0F2D98"/><stop offset="1" stop-color="#0C2291"/></linearGradient><linearGradient id="paint15_linear" x1="233.65" y1="78.037" x2="223.741" y2="155.233" gradientUnits="userSpaceOnUse"><stop stop-color="#0C2291"/><stop offset=".185" stop-color="#0F2D98"/><stop offset=".507" stop-color="#1649AC"/><stop offset=".924" stop-color="#2377CD"/><stop offset="1" stop-color="#2580D3"/></linearGradient><linearGradient id="paint16_linear" x1="199.191" y1="134.959" x2="202.218" y2="134.959" gradientUnits="userSpaceOnUse"><stop stop-color="#207FD6"/><stop offset=".442" stop-color="#4CA6EC"/><stop offset=".796" stop-color="#68BFFA"/><stop offset="1" stop-color="#73C8FF"/></linearGradient><linearGradient id="paint17_linear" x1="206.921" y1="139.3" x2="209.948" y2="139.3" gradientUnits="userSpaceOnUse"><stop stop-color="#207FD6"/><stop offset=".442" stop-color="#4CA6EC"/><stop offset=".796" stop-color="#68BFFA"/><stop offset="1" stop-color="#73C8FF"/></linearGradient><linearGradient id="paint18_linear" x1="245.168" y1="108.268" x2="248.195" y2="108.268" gradientUnits="userSpaceOnUse"><stop stop-color="#207FD6"/><stop offset=".442" stop-color="#4CA6EC"/><stop offset=".796" stop-color="#68BFFA"/><stop offset="1" stop-color="#73C8FF"/></linearGradient><linearGradient id="paint19_linear" x1="252.897" y1="112.609" x2="255.924" y2="112.609" gradientUnits="userSpaceOnUse"><stop stop-color="#207FD6"/><stop offset=".442" stop-color="#4CA6EC"/><stop offset=".796" stop-color="#68BFFA"/><stop offset="1" stop-color="#73C8FF"/></linearGradient><linearGradient id="paint20_linear" x1="85.761" y1="169.525" x2="90.332" y2="169.525" gradientUnits="userSpaceOnUse"><stop stop-color="#2580D3"/><stop offset=".076" stop-color="#2377CD"/><stop offset=".493" stop-color="#1649AC"/><stop offset=".815" stop-color="#0F2D98"/><stop offset="1" stop-color="#0C2291"/></linearGradient><linearGradient id="paint21_linear" x1="103.908" y1="178.513" x2="120.059" y2="178.513" gradientUnits="userSpaceOnUse"><stop stop-color="#2580D3"/><stop offset=".076" stop-color="#2377CD"/><stop offset=".493" stop-color="#1649AC"/><stop offset=".815" stop-color="#0F2D98"/><stop offset="1" stop-color="#0C2291"/></linearGradient><linearGradient id="paint22_linear" x1="84.526" y1="178.417" x2="103.914" y2="178.417" gradientUnits="userSpaceOnUse"><stop stop-color="#2580D3"/><stop offset=".076" stop-color="#2377CD"/><stop offset=".493" stop-color="#1649AC"/><stop offset=".815" stop-color="#0F2D98"/><stop offset="1" stop-color="#0C2291"/></linearGradient><linearGradient id="paint23_linear" x1="95.275" y1="162.893" x2="98.302" y2="162.893" gradientUnits="userSpaceOnUse"><stop stop-color="#207FD6"/><stop offset=".442" stop-color="#4CA6EC"/><stop offset=".796" stop-color="#68BFFA"/><stop offset="1" stop-color="#73C8FF"/></linearGradient><linearGradient id="paint24_linear" x1="114.188" y1="173.758" x2="117.214" y2="173.758" gradientUnits="userSpaceOnUse"><stop stop-color="#207FD6"/><stop offset=".442" stop-color="#4CA6EC"/><stop offset=".796" stop-color="#68BFFA"/><stop offset="1" stop-color="#73C8FF"/></linearGradient><linearGradient id="paint25_linear" x1="88.252" y1="141.697" x2="216.619" y2="141.697" gradientUnits="userSpaceOnUse"><stop stop-color="#0C2291"/><stop offset=".185" stop-color="#0F2D98"/><stop offset=".507" stop-color="#1649AC"/><stop offset=".924" stop-color="#2377CD"/><stop offset="1" stop-color="#2580D3"/></linearGradient><linearGradient id="paint26_linear" x1="180.13" y1="90.696" x2="126.622" y2="164.122" gradientUnits="userSpaceOnUse"><stop stop-color="#0C2291"/><stop offset=".185" stop-color="#0F2D98"/><stop offset=".507" stop-color="#1649AC"/><stop offset=".924" stop-color="#2377CD"/><stop offset="1" stop-color="#2580D3"/></linearGradient><linearGradient id="paint27_linear" x1="158.982" y1="121.763" x2="175.612" y2="112.584" gradientUnits="userSpaceOnUse"><stop stop-color="#73C8FF"/><stop offset=".204" stop-color="#68BFFA"/><stop offset=".558" stop-color="#4CA6EC"/><stop offset="1" stop-color="#207FD6"/></linearGradient><linearGradient id="paint28_linear" x1="163.763" y1="119.337" x2="169.288" y2="116.288" gradientUnits="userSpaceOnUse"><stop stop-color="#73C8FF"/><stop offset=".204" stop-color="#68BFFA"/><stop offset=".558" stop-color="#4CA6EC"/><stop offset="1" stop-color="#207FD6"/></linearGradient><linearGradient id="paint29_linear" x1="123.645" y1="141.524" x2="178.38" y2="111.314" gradientUnits="userSpaceOnUse"><stop stop-color="#73C8FF"/><stop offset=".204" stop-color="#68BFFA"/><stop offset=".558" stop-color="#4CA6EC"/><stop offset="1" stop-color="#207FD6"/></linearGradient><linearGradient id="paint30_linear" x1="91.913" y1="160.88" x2="262.244" y2="66.868" gradientUnits="userSpaceOnUse"><stop stop-color="#73C8FF"/><stop offset=".204" stop-color="#68BFFA"/><stop offset=".558" stop-color="#4CA6EC"/><stop offset="1" stop-color="#207FD6"/></linearGradient><linearGradient id="paint31_linear" x1="124.418" y1="142.927" x2="179.153" y2="112.717" gradientUnits="userSpaceOnUse"><stop stop-color="#73C8FF"/><stop offset=".204" stop-color="#68BFFA"/><stop offset=".558" stop-color="#4CA6EC"/><stop offset="1" stop-color="#207FD6"/></linearGradient><linearGradient id="paint32_linear" x1="175.106" y1="141.628" x2="206.506" y2="141.628" gradientUnits="userSpaceOnUse"><stop stop-color="#2580D3"/><stop offset=".076" stop-color="#2377CD"/><stop offset=".493" stop-color="#1649AC"/><stop offset=".815" stop-color="#0F2D98"/><stop offset="1" stop-color="#0C2291"/></linearGradient><linearGradient id="paint33_linear" x1="138.592" y1="171.959" x2="152.978" y2="171.959" gradientUnits="userSpaceOnUse"><stop stop-color="#2580D3"/><stop offset=".076" stop-color="#2377CD"/><stop offset=".493" stop-color="#1649AC"/><stop offset=".815" stop-color="#0F2D98"/><stop offset="1" stop-color="#0C2291"/></linearGradient><linearGradient id="paint34_linear" x1="152.977" y1="169.661" x2="175.182" y2="169.661" gradientUnits="userSpaceOnUse"><stop stop-color="#2580D3"/><stop offset=".076" stop-color="#2377CD"/><stop offset=".493" stop-color="#1649AC"/><stop offset=".815" stop-color="#0F2D98"/><stop offset="1" stop-color="#0C2291"/></linearGradient><linearGradient id="paint35_linear" x1="141.783" y1="166.867" x2="144.81" y2="166.867" gradientUnits="userSpaceOnUse"><stop stop-color="#207FD6"/><stop offset=".442" stop-color="#4CA6EC"/><stop offset=".796" stop-color="#68BFFA"/><stop offset="1" stop-color="#73C8FF"/></linearGradient><linearGradient id="paint36_linear" x1="151.469" y1="172.676" x2="154.496" y2="172.676" gradientUnits="userSpaceOnUse"><stop stop-color="#207FD6"/><stop offset=".442" stop-color="#4CA6EC"/><stop offset=".796" stop-color="#68BFFA"/><stop offset="1" stop-color="#73C8FF"/></linearGradient><linearGradient id="paint37_linear" x1="201.445" y1="131.567" x2="204.471" y2="131.567" gradientUnits="userSpaceOnUse"><stop stop-color="#207FD6"/><stop offset=".442" stop-color="#4CA6EC"/><stop offset=".796" stop-color="#68BFFA"/><stop offset="1" stop-color="#73C8FF"/></linearGradient><linearGradient id="paint38_linear" x1="224.232" y1="107.14" x2="239.422" y2="107.14" gradientUnits="userSpaceOnUse"><stop stop-color="#2580D3"/><stop offset=".076" stop-color="#2377CD"/><stop offset=".493" stop-color="#1649AC"/><stop offset=".815" stop-color="#0F2D98"/><stop offset="1" stop-color="#0C2291"/></linearGradient><linearGradient id="paint39_linear" x1="184.403" y1="100.056" x2="224.236" y2="100.056" gradientUnits="userSpaceOnUse"><stop stop-color="#2580D3"/><stop offset=".076" stop-color="#2377CD"/><stop offset=".493" stop-color="#1649AC"/><stop offset=".815" stop-color="#0F2D98"/><stop offset="1" stop-color="#0C2291"/></linearGradient><linearGradient id="paint40_linear" x1="184.408" y1="94.704" x2="239.42" y2="94.704" gradientUnits="userSpaceOnUse"><stop stop-color="#73C8FF"/><stop offset=".204" stop-color="#68BFFA"/><stop offset=".558" stop-color="#4CA6EC"/><stop offset="1" stop-color="#207FD6"/></linearGradient><linearGradient id="paint41_linear" x1="198.066" y1="81.458" x2="201.092" y2="81.458" gradientUnits="userSpaceOnUse"><stop stop-color="#207FD6"/><stop offset=".442" stop-color="#4CA6EC"/><stop offset=".796" stop-color="#68BFFA"/><stop offset="1" stop-color="#73C8FF"/></linearGradient><linearGradient id="paint42_linear" x1="187.494" y1="87.619" x2="190.521" y2="87.619" gradientUnits="userSpaceOnUse"><stop stop-color="#207FD6"/><stop offset=".442" stop-color="#4CA6EC"/><stop offset=".796" stop-color="#68BFFA"/><stop offset="1" stop-color="#73C8FF"/></linearGradient><linearGradient id="paint43_linear" x1="222.729" y1="107.95" x2="225.756" y2="107.95" gradientUnits="userSpaceOnUse"><stop stop-color="#207FD6"/><stop offset=".442" stop-color="#4CA6EC"/><stop offset=".796" stop-color="#68BFFA"/><stop offset="1" stop-color="#73C8FF"/></linearGradient><linearGradient id="paint44_linear" x1="233.308" y1="101.789" x2="236.334" y2="101.789" gradientUnits="userSpaceOnUse"><stop stop-color="#207FD6"/><stop offset=".442" stop-color="#4CA6EC"/><stop offset=".796" stop-color="#68BFFA"/><stop offset="1" stop-color="#73C8FF"/></linearGradient><linearGradient id="paint45_linear" x1="64.852" y1="200.528" x2="240.206" y2="81.201" gradientUnits="userSpaceOnUse"><stop stop-color="#73C8FF"/><stop offset=".204" stop-color="#68BFFA"/><stop offset=".558" stop-color="#4CA6EC"/><stop offset="1" stop-color="#207FD6"/></linearGradient><linearGradient id="paint46_linear" x1="63.722" y1="132.534" x2="65.778" y2="132.534" gradientUnits="userSpaceOnUse"><stop stop-color="#2580D3"/><stop offset=".076" stop-color="#2377CD"/><stop offset=".493" stop-color="#1649AC"/><stop offset=".815" stop-color="#0F2D98"/><stop offset="1" stop-color="#0C2291"/></linearGradient><linearGradient id="paint47_linear" x1="62.733" y1="131.116" x2="66.796" y2="131.116" gradientUnits="userSpaceOnUse"><stop stop-color="#2580D3"/><stop offset=".076" stop-color="#2377CD"/><stop offset=".493" stop-color="#1649AC"/><stop offset=".815" stop-color="#0F2D98"/><stop offset="1" stop-color="#0C2291"/></linearGradient><linearGradient id="paint48_linear" x1="127.22" y1="167.525" x2="129.276" y2="167.525" gradientUnits="userSpaceOnUse"><stop stop-color="#2580D3"/><stop offset=".076" stop-color="#2377CD"/><stop offset=".493" stop-color="#1649AC"/><stop offset=".815" stop-color="#0F2D98"/><stop offset="1" stop-color="#0C2291"/></linearGradient><linearGradient id="paint49_linear" x1="126.231" y1="166.107" x2="130.293" y2="166.107" gradientUnits="userSpaceOnUse"><stop stop-color="#2580D3"/><stop offset=".076" stop-color="#2377CD"/><stop offset=".493" stop-color="#1649AC"/><stop offset=".815" stop-color="#0F2D98"/><stop offset="1" stop-color="#0C2291"/></linearGradient><linearGradient id="paint50_linear" x1="263.645" y1="90.161" x2="265.701" y2="90.161" gradientUnits="userSpaceOnUse"><stop stop-color="#2580D3"/><stop offset=".076" stop-color="#2377CD"/><stop offset=".493" stop-color="#1649AC"/><stop offset=".815" stop-color="#0F2D98"/><stop offset="1" stop-color="#0C2291"/></linearGradient><linearGradient id="paint51_linear" x1="262.654" y1="88.743" x2="266.716" y2="88.743" gradientUnits="userSpaceOnUse"><stop stop-color="#2580D3"/><stop offset=".076" stop-color="#2377CD"/><stop offset=".493" stop-color="#1649AC"/><stop offset=".815" stop-color="#0F2D98"/><stop offset="1" stop-color="#0C2291"/></linearGradient><linearGradient id="paint52_linear" x1="79.374" y1="181.339" x2="81.866" y2="181.339" gradientUnits="userSpaceOnUse"><stop stop-color="#207FD6"/><stop offset=".442" stop-color="#4CA6EC"/><stop offset=".796" stop-color="#68BFFA"/><stop offset="1" stop-color="#73C8FF"/></linearGradient><linearGradient id="paint53_linear" x1="80.888" y1="182.21" x2="83.377" y2="182.21" gradientUnits="userSpaceOnUse"><stop stop-color="#207FD6"/><stop offset=".442" stop-color="#4CA6EC"/><stop offset=".796" stop-color="#68BFFA"/><stop offset="1" stop-color="#73C8FF"/></linearGradient><linearGradient id="paint54_linear" x1="77.864" y1="180.467" x2="80.354" y2="180.467" gradientUnits="userSpaceOnUse"><stop stop-color="#207FD6"/><stop offset=".442" stop-color="#4CA6EC"/><stop offset=".796" stop-color="#68BFFA"/><stop offset="1" stop-color="#73C8FF"/></linearGradient><linearGradient id="paint55_linear" x1="204.979" y1="28.468" x2="122.338" y2="153.322" gradientUnits="userSpaceOnUse"><stop stop-color="#207FD6"/><stop offset=".442" stop-color="#4CA6EC"/><stop offset=".796" stop-color="#68BFFA"/><stop offset="1" stop-color="#73C8FF"/></linearGradient><linearGradient id="paint56_linear" x1="136.251" y1="26.669" x2="136.251" y2="105.445" gradientUnits="userSpaceOnUse"><stop stop-color="#060000"/><stop offset=".037" stop-color="#0D0911"/><stop offset=".114" stop-color="#18182E"/><stop offset=".196" stop-color="#212445"/><stop offset=".285" stop-color="#272C55"/><stop offset=".385" stop-color="#2B315E"/><stop offset=".52" stop-color="#2C3361"/><stop offset="1"/></linearGradient><linearGradient id="paint57_linear" x1="208.08" y1="26.669" x2="208.08" y2="105.445" gradientUnits="userSpaceOnUse"><stop stop-color="#060000"/><stop offset=".037" stop-color="#0D0911"/><stop offset=".114" stop-color="#18182E"/><stop offset=".196" stop-color="#212445"/><stop offset=".285" stop-color="#272C55"/><stop offset=".385" stop-color="#2B315E"/><stop offset=".52" stop-color="#2C3361"/><stop offset="1"/></linearGradient><linearGradient id="paint58_linear" x1="177.538" y1="26.669" x2="177.538" y2="105.445" gradientUnits="userSpaceOnUse"><stop stop-color="#060000"/><stop offset=".037" stop-color="#0D0911"/><stop offset=".114" stop-color="#18182E"/><stop offset=".196" stop-color="#212445"/><stop offset=".285" stop-color="#272C55"/><stop offset=".385" stop-color="#2B315E"/><stop offset=".52" stop-color="#2C3361"/><stop offset="1"/></linearGradient><linearGradient id="paint59_linear" x1="199.345" y1="28.162" x2="203.623" y2="28.162" gradientUnits="userSpaceOnUse"><stop stop-color="#2580D3"/><stop offset=".076" stop-color="#2377CD"/><stop offset=".493" stop-color="#1649AC"/><stop offset=".815" stop-color="#0F2D98"/><stop offset="1" stop-color="#0C2291"/></linearGradient><linearGradient id="paint60_linear" x1="190.82" y1="153.612" x2="196.41" y2="153.612" gradientUnits="userSpaceOnUse"><stop stop-color="#73C8FF"/><stop offset=".204" stop-color="#68BFFA"/><stop offset=".558" stop-color="#4CA6EC"/><stop offset="1" stop-color="#207FD6"/></linearGradient><linearGradient id="paint61_linear" x1="202.416" y1="169.704" x2="213.952" y2="169.704" gradientUnits="userSpaceOnUse"><stop stop-color="#73C8FF"/><stop offset=".204" stop-color="#68BFFA"/><stop offset=".558" stop-color="#4CA6EC"/><stop offset="1" stop-color="#207FD6"/></linearGradient><linearGradient id="paint62_linear" x1="160.785" y1="170.886" x2="187.268" y2="170.886" gradientUnits="userSpaceOnUse"><stop stop-color="#73C8FF"/><stop offset=".204" stop-color="#68BFFA"/><stop offset=".558" stop-color="#4CA6EC"/><stop offset="1" stop-color="#207FD6"/></linearGradient><linearGradient id="paint63_linear" x1="187.237" y1="195.513" x2="220.252" y2="195.513" gradientUnits="userSpaceOnUse"><stop stop-color="#73C8FF"/><stop offset=".204" stop-color="#68BFFA"/><stop offset=".558" stop-color="#4CA6EC"/><stop offset="1" stop-color="#207FD6"/></linearGradient><linearGradient id="paint64_linear" x1="34.798" y1="123.795" x2="26.002" y2="140.311" gradientUnits="userSpaceOnUse"><stop stop-color="#2580D3"/><stop offset=".076" stop-color="#2377CD"/><stop offset=".493" stop-color="#1649AC"/><stop offset=".815" stop-color="#0F2D98"/><stop offset="1" stop-color="#0C2291"/></linearGradient><linearGradient id="paint65_linear" x1="30.856" y1="136.011" x2="37.319" y2="125.599" gradientUnits="userSpaceOnUse"><stop stop-color="#207FD6"/><stop offset=".442" stop-color="#4CA6EC"/><stop offset=".796" stop-color="#68BFFA"/><stop offset="1" stop-color="#73C8FF"/></linearGradient><linearGradient id="paint66_linear" x1="31.197" y1="136.225" x2="37.66" y2="125.812" gradientUnits="userSpaceOnUse"><stop stop-color="#207FD6"/><stop offset=".442" stop-color="#4CA6EC"/><stop offset=".796" stop-color="#68BFFA"/><stop offset="1" stop-color="#73C8FF"/></linearGradient><linearGradient id="paint67_linear" x1="29.18" y1="134.973" x2="35.642" y2="124.56" gradientUnits="userSpaceOnUse"><stop stop-color="#207FD6"/><stop offset=".442" stop-color="#4CA6EC"/><stop offset=".796" stop-color="#68BFFA"/><stop offset="1" stop-color="#73C8FF"/></linearGradient><linearGradient id="paint68_linear" x1="79.088" y1="44.773" x2="146.042" y2="44.773" gradientUnits="userSpaceOnUse"><stop stop-color="#73C8FF"/><stop offset=".204" stop-color="#68BFFA"/><stop offset=".558" stop-color="#4CA6EC"/><stop offset="1" stop-color="#207FD6"/></linearGradient><linearGradient id="paint69_linear" x1="76.549" y1="64.278" x2="148.592" y2="64.278" gradientUnits="userSpaceOnUse"><stop stop-color="#73C8FF"/><stop offset=".204" stop-color="#68BFFA"/><stop offset=".558" stop-color="#4CA6EC"/><stop offset="1" stop-color="#207FD6"/></linearGradient><linearGradient id="paint70_linear" x1="170.255" y1="58.304" x2="168.833" y2="66.972" gradientUnits="userSpaceOnUse"><stop stop-color="#2580D3"/><stop offset=".076" stop-color="#2377CD"/><stop offset=".493" stop-color="#1649AC"/><stop offset=".815" stop-color="#0F2D98"/><stop offset="1" stop-color="#0C2291"/></linearGradient><linearGradient id="paint71_linear" x1="124.921" y1="38.067" x2="124.921" y2="61.497" gradientUnits="userSpaceOnUse"><stop stop-color="#4E5F91"/><stop offset=".135" stop-color="#485886"/><stop offset=".375" stop-color="#384467"/><stop offset=".69" stop-color="#1D2437"/><stop offset="1"/></linearGradient><linearGradient id="paint72_linear" x1="107.043" y1="38.067" x2="107.043" y2="61.497" gradientUnits="userSpaceOnUse"><stop stop-color="#4E5F91"/><stop offset=".135" stop-color="#485886"/><stop offset=".375" stop-color="#384467"/><stop offset=".69" stop-color="#1D2437"/><stop offset="1"/></linearGradient><linearGradient id="paint73_linear" x1="148.002" y1="123.255" x2="225.839" y2="48.791" gradientUnits="userSpaceOnUse"><stop stop-color="#2D4F9E"/><stop offset=".099" stop-color="#121274"/><stop offset=".234" stop-color="#063A6F"/><stop offset=".39" stop-color="#1658A7"/><stop offset=".561" stop-color="#386189"/><stop offset=".745" stop-color="#6E98C6"/><stop offset=".854" stop-color="#A0B5CD"/><stop offset="1" stop-color="#B1C9E3"/></linearGradient><linearGradient id="paint74_linear" x1="19.006" y1="129.332" x2="48.502" y2="136.527" gradientUnits="userSpaceOnUse"><stop/><stop offset=".099" stop-color="#050506"/><stop offset=".234" stop-color="#121518"/><stop offset=".39" stop-color="#292E34"/><stop offset=".561" stop-color="#48525C"/><stop offset=".745" stop-color="#707F8F"/><stop offset=".936" stop-color="#A0B5CD"/><stop offset="1" stop-color="#B1C9E3"/></linearGradient></defs></svg>